<svg id="Layer_1" data-name="Layer 1" xmlns="http://www.w3.org/2000/svg" viewBox="0 0 64 64"><defs><style>.cls-1{fill:#00a966;}</style></defs><path class="cls-1" d="M32.18,62.15A3.89,3.89,0,0,1,29.42,61l-4.68-4.68A1,1,0,0,0,24,56H8.83a3.91,3.91,0,0,1-3.91-3.91V5.76A3.91,3.91,0,0,1,8.83,1.85H55.17A3.9,3.9,0,0,1,57.94,3a3.84,3.84,0,0,1,1.14,2.77L59,52.13A3.92,3.92,0,0,1,55.1,56H40.35a1.05,1.05,0,0,0-.74.31L35,61A3.87,3.87,0,0,1,32.18,62.15ZM8.83,4.72a1,1,0,0,0-1,1V52.11a1,1,0,0,0,1,1H24a4,4,0,0,1,2.77,1.15L31.44,59a1.06,1.06,0,0,0,1.49,0l4.65-4.66a4,4,0,0,1,2.77-1.15H55.1a1.05,1.05,0,0,0,1-1l.07-46.36A1.06,1.06,0,0,0,55.91,5a1,1,0,0,0-.74-.3Z"/><path d="M32,48.05a2,2,0,0,1-.59-.08,2.12,2.12,0,0,1-1.26-1L21.2,31.2a12.72,12.72,0,0,1-1.84-6.74C19.36,17,24.8,11.39,32,11.39S44.64,17,44.64,24.46A12.72,12.72,0,0,1,42.8,31.2L33.85,47a2.22,2.22,0,0,1-.82.82A2.19,2.19,0,0,1,32,48.05Zm-.32-2.3Zm.63,0ZM32,13.87c-5.79,0-10.15,4.56-10.15,10.59A10.2,10.2,0,0,0,23.36,30L32,45.19,40.64,30a10.2,10.2,0,0,0,1.51-5.51C42.15,18.43,37.79,13.87,32,13.87Zm0,16.65A6.5,6.5,0,1,1,38.5,24,6.51,6.51,0,0,1,32,30.52ZM32,20a4,4,0,1,0,4,4A4,4,0,0,0,32,20Z"/></svg>