<svg id="Layer_1" data-name="Layer 1" xmlns="http://www.w3.org/2000/svg" viewBox="0 0 64 64"><defs><style>.cls-1{fill:#00a966;}</style></defs><path class="cls-1" d="M32.18,62.15A3.89,3.89,0,0,1,29.42,61l-4.68-4.68A1,1,0,0,0,24,56H8.83a3.91,3.91,0,0,1-3.91-3.91V5.76A3.91,3.91,0,0,1,8.83,1.85H55.17A3.9,3.9,0,0,1,57.94,3a3.84,3.84,0,0,1,1.14,2.77L59,52.13A3.92,3.92,0,0,1,55.1,56H40.35a1.05,1.05,0,0,0-.74.31L35,61A3.87,3.87,0,0,1,32.18,62.15ZM8.83,4.72a1,1,0,0,0-1,1V52.11a1,1,0,0,0,1,1H24a4,4,0,0,1,2.77,1.15L31.44,59a1.06,1.06,0,0,0,1.49,0l4.65-4.66a4,4,0,0,1,2.77-1.15H55.1a1.05,1.05,0,0,0,1-1l.07-46.36A1.06,1.06,0,0,0,55.91,5a1,1,0,0,0-.74-.3Z"/><path d="M15,18.29h0a1.22,1.22,0,0,1-.88-.37l-2.25-2.24a1.25,1.25,0,0,1,1.77-1.77L15,15.27l5.94-5.94a1.25,1.25,0,0,1,1.77,1.77l-6.83,6.82A1.22,1.22,0,0,1,15,18.29Z"/><path d="M51.3,18.81H22.9a1.25,1.25,0,0,1,0-2.5H51.3a1.25,1.25,0,0,1,0,2.5Z"/><path d="M15,32.16h0a1.22,1.22,0,0,1-.88-.37l-2.25-2.24a1.25,1.25,0,1,1,1.77-1.77L15,29.14l5.94-5.94A1.25,1.25,0,0,1,22.66,25l-6.83,6.82A1.22,1.22,0,0,1,15,32.16Z"/><path d="M51.3,32.68H22.9a1.25,1.25,0,0,1,0-2.5H51.3a1.25,1.25,0,0,1,0,2.5Z"/><path d="M15,46h0a1.26,1.26,0,0,1-.88-.37l-2.25-2.25a1.25,1.25,0,0,1,1.77-1.76L15,43l5.94-5.94a1.25,1.25,0,1,1,1.77,1.77l-6.83,6.82A1.26,1.26,0,0,1,15,46Z"/><path d="M51.3,46.54H22.9a1.25,1.25,0,1,1,0-2.49H51.3a1.25,1.25,0,1,1,0,2.49Z"/><path class="cls-1" d="M32.18,62.15A3.89,3.89,0,0,1,29.42,61l-4.68-4.68A1,1,0,0,0,24,56H8.83a3.91,3.91,0,0,1-3.91-3.91V5.76A3.91,3.91,0,0,1,8.83,1.85H55.17A3.9,3.9,0,0,1,57.94,3a3.84,3.84,0,0,1,1.14,2.77L59,52.13A3.92,3.92,0,0,1,55.1,56H40.35a1.05,1.05,0,0,0-.74.31L35,61A3.87,3.87,0,0,1,32.18,62.15ZM8.83,4.72a1,1,0,0,0-1,1V52.11a1,1,0,0,0,1,1H24a4,4,0,0,1,2.77,1.15L31.44,59a1.06,1.06,0,0,0,1.49,0l4.65-4.66a4,4,0,0,1,2.77-1.15H55.1a1.05,1.05,0,0,0,1-1l.07-46.36A1.06,1.06,0,0,0,55.91,5a1,1,0,0,0-.74-.3Z"/><path d="M15,18.29h0a1.22,1.22,0,0,1-.88-.37l-2.25-2.24a1.25,1.25,0,0,1,1.77-1.77L15,15.27l5.94-5.94a1.25,1.25,0,0,1,1.77,1.77l-6.83,6.82A1.22,1.22,0,0,1,15,18.29Z"/><path d="M51.3,18.81H22.9a1.25,1.25,0,0,1,0-2.5H51.3a1.25,1.25,0,0,1,0,2.5Z"/><path d="M15,32.16h0a1.22,1.22,0,0,1-.88-.37l-2.25-2.24a1.25,1.25,0,1,1,1.77-1.77L15,29.14l5.94-5.94A1.25,1.25,0,0,1,22.66,25l-6.83,6.82A1.22,1.22,0,0,1,15,32.16Z"/><path d="M51.3,32.68H22.9a1.25,1.25,0,0,1,0-2.5H51.3a1.25,1.25,0,0,1,0,2.5Z"/><path d="M15,46h0a1.26,1.26,0,0,1-.88-.37l-2.25-2.25a1.25,1.25,0,0,1,1.77-1.76L15,43l5.94-5.94a1.25,1.25,0,1,1,1.77,1.77l-6.83,6.82A1.26,1.26,0,0,1,15,46Z"/><path d="M51.3,46.54H22.9a1.25,1.25,0,1,1,0-2.49H51.3a1.25,1.25,0,1,1,0,2.49Z"/></svg>