<svg id="Layer_1" data-name="Layer 1" xmlns="http://www.w3.org/2000/svg" viewBox="0 0 64 64"><defs><style>.cls-1{fill:#00a966;}</style></defs><path class="cls-1" d="M32.18,62.15A3.89,3.89,0,0,1,29.42,61l-4.68-4.68A1,1,0,0,0,24,56H8.83a3.91,3.91,0,0,1-3.91-3.91V5.76A3.91,3.91,0,0,1,8.83,1.85H55.17A3.9,3.9,0,0,1,57.94,3a3.84,3.84,0,0,1,1.14,2.77L59,52.13A3.92,3.92,0,0,1,55.1,56H40.35a1.05,1.05,0,0,0-.74.31L35,61A3.87,3.87,0,0,1,32.18,62.15ZM8.83,4.72a1,1,0,0,0-1,1V52.11a1,1,0,0,0,1,1H24a4,4,0,0,1,2.77,1.15L31.44,59a1.06,1.06,0,0,0,1.49,0l4.65-4.66a4,4,0,0,1,2.77-1.15H55.1a1.05,1.05,0,0,0,1-1l.07-46.36A1.06,1.06,0,0,0,55.91,5a1,1,0,0,0-.74-.3Z"/><path d="M32,34.55a7,7,0,1,1,7-7A6.94,6.94,0,0,1,32,34.55Zm0-11.68a4.71,4.71,0,1,0,4.71,4.7A4.69,4.69,0,0,0,32,22.87Z"/><path d="M32,49.36a19.06,19.06,0,1,1,19-19A19.07,19.07,0,0,1,32,49.36Zm0-35.83A16.78,16.78,0,1,0,48.78,30.31,16.8,16.8,0,0,0,32,13.53Z"/><path d="M22.11,44.53l-2-1c2.58-5.11,7.05-8.16,12-8.16h0c4.89,0,9.32,3.07,11.85,8.17l-2,1c-2.14-4.31-5.81-6.89-9.82-6.9h0C28,37.62,24.28,40.2,22.11,44.53Z"/></svg>