<svg xmlns="http://www.w3.org/2000/svg" viewBox="0 0 1400.349 703.073">
  <defs>
    <style>
      .cls-1 {
        fill: none;
      }

      .cls-2 {
        opacity: 0.5;
      }

      .cls-3 {
        fill: #dbe1e5;
      }

      .cls-4 {
        fill: rgba(0,116,206,0.05);
      }

      .cls-5 {
        fill: rgba(0,116,206,0.1);
      }

      .cls-6, .cls-7 {
        fill: #0074ce;
      }

      .cls-7 {
        stroke: #fff;
        stroke-miterlimit: 10;
        stroke-width: 2.393px;
      }

      .cls-8 {
        stroke: none;
      }
    </style>
  </defs>
  <g id="Group_10" data-name="Group 10" transform="translate(0 -3.998)">
    <g id="Map" class="cls-2" transform="translate(0 3)">
      <path id="Fill-1" class="cls-3" d="M0,3.858S3.046.068,7.241,0s4.737,3.18,4.737,3.18,0,1.218,2.166-.813,1.76-.947,1.76-.947l2.233.879,1.895-.812,7.039-.2A2.4,2.4,0,0,1,28.559.339,33.771,33.771,0,0,1,33.7.61a55.055,55.055,0,0,1,4.128,4.331c-.405,1.488-1.42,3.722-3.654,4.263s-7.986,2.03-8.865,2.707-1.083-.338-5.55,2.707c-3.52,1.083-4.061,0-4.061,0s-3.112-1.692-8.73-1.151a4.13,4.13,0,0,1-1.962-1.624s.136-.947,1.76-1.354C6.091,9.949,4.331,8.6,4.331,8.6L6.7,5.956S7.309,4.4,4.263,5.212,0,5.415,0,5.415Z" transform="translate(543.599 69.989)"/>
      <path id="Fill-3" class="cls-3" d="M185.08,6.3l-25.793-.912,1.043-1.693S150.3.565,143.394.173s-15.371,0-15.371,0A26.113,26.113,0,0,1,117.6,1.216a82.5,82.5,0,0,0-12.9.131S84.644,4.863,72.659,4.473s-8.337,0-8.337,0S61.978,5.905,50.905,5.645c-3.387.782-2.084,1.954-13.418,3.518-2.475.521-10.942,2.475-12.245,2.605a22.508,22.508,0,0,0,1.042,2.475s-12.9,2.476-25.011,3.778c-2.866,4.95,0,2.605,0,2.605s2.084,3.647.521,4.429a18.194,18.194,0,0,0,5.471,2.736c.782.26,14.85,0,14.85,0S35.4,26.618,35.4,37.17c-.782,2.475.912,1.953-2.084,9.119,2.605.782,11.724,1.693,9.379,4.038-2.866.131-7.164,0-7.164,0s-1.042,0,3,5.862c-.912,1.694,3.518-.261-4.95,3a13.735,13.735,0,0,0-4.95,2.346s-2.736,4.429-3.126,6.512.782,5.472,1.433,7.817-.652,3.256-.652,3.256l.912,5.341s3.777,9.119,4.429,10.29c1.953.391,4.559-.13,5.861,0s4.56.521,4.3,1.042.651,1.954.651,1.954l4.168,2.215,10.162-9.12.26-3s7.816-3.126,7.686-6.123a63.07,63.07,0,0,1,5.341-6.774s6.382.521,9.509-3.256c.131,4.168.652,1.632.652,1.632s11.854-.069,23.056-10.49l.391-1.043,1.3.782a18.92,18.92,0,0,0,6.513-.26c3.126-.782,12.245-2.606,12.245-2.606s10.552-4.689,12.246-5.34l.651-1.173s-2.345-1.953-3.778-1.953a14.4,14.4,0,0,1-3-.391l.782-.868V48.633l1.693.13,1.563,1.216a5.565,5.565,0,0,0,4.039,2.041c2.476,0,3.387-.911,3.387-.911l.131-4.43-7.295-5.34,6.643-1.563s5.211.39,6.774-1.433,5.081-2.214,5.211-2.866.391-2.084.391-2.084,3-2.475,2.866-3.257a30.392,30.392,0,0,0-2.345-4.3l3.908-.782s3.647-1.693,2.345-3.257a9.328,9.328,0,0,0-3.778-2.344s3.126-2.085,4.039-2.736,1.011-1.954,4.348-1.954c3.6-1.693,6.464-3.126,6.464-3.126l8.858-1.3s3.777-2.475,5.211-2.345a6.51,6.51,0,0,0,0-1.693" transform="translate(416.883 0.998)"/>
      <path id="Fill-6" class="cls-3" d="M101.956,2.432,84.066,6.774,63.223,13.026s-7.295.347-9.379,1.389-9.726,3.647-9.726,3.647S33.523,19.453,33.7,20.842s-1.911,2.779-1.911,2.779H20.149s-4.69-.174-7.295.695S0,24.316,0,24.316L3.648,21.19l7.469-1.042,1.389-2.258,7.99-.521s5.905-1.351,6.774-3.8a3.663,3.663,0,0,0,2.432-.887l-1.737-1.216,3.647-2.605-6.253-.521S20.5,6.947,20.67,4.863c1.911-.695,8.337-.695,8.337-.695l5.732-1.737H40.3S43.423.521,49.5.695,57.868,0,57.868,0L66.7,1.042s12.679.174,14.59-.174S96.919,0,96.919,0Z" transform="translate(359.015 3.126)"/>
      <path id="Fill-8" class="cls-3" d="M26.227,5.577,20.148,1.736,13.721,0,5.211,2.788,0,4.69,1.911,9.552H12.505l6.253-1.736Z" transform="translate(357.105 9.9)"/>
      <path id="Fill-10" class="cls-3" d="M.747.011S8.91-.336,8.91,2.79C7,5.048,4.916,5.048,3.179,4.006S-1.345-.013.747.011" transform="translate(341.941 18.573)"/>
      <path id="Fill-12" class="cls-3" d="M5.572,1.753s6.6.324,6.079,1.378S8.7,6.79,2.446,4.011C-.333,2.448.014,1.753.014,1.753S.188-.292,3.314.035,5.572,1.753,5.572,1.753" transform="translate(325.827 15.441)"/>
      <path id="Fill-14" class="cls-3" d="M.649.513C.62,1.555-.18-1.05,5.083.513c4.048.347,6.426.868,4.456,1.563s-7.59,1.737-8.95,0S.649.513.649.513" transform="translate(336.858 24.845)"/>
      <path id="Fill-16" class="cls-3" d="M1.621,5.677l3.2-1.563s.8-4.773,5.14-4.037,3.126,1.513,3.126,1.513.348,2.871,7.469,2.871,9.033-.868,9.033-.868,10.594-1.563,9.032.174S35.838,10.193,25.937,9.5,14.821,8.109,14.821,8.109s-9.553-.174-13.2-1.737,0-.695,0-.695" transform="translate(342.283 26.281)"/>
      <path id="Fill-18" class="cls-3" d="M8.759,0s2.084,4.019-3.126,3.846S-.272,3.156.075,1.245A5.829,5.829,0,0,1,3.549,0Z" transform="translate(330.281 31.06)"/>
      <path id="Fill-20" class="cls-3" d="M13.816,0a10.584,10.584,0,0,1-5.84,5.947C3.647,6.121,0,5.889,0,4.7S2.605-.042,4.342,0s9.474,0,9.474,0" transform="translate(317.851 26.358)"/>
      <path id="Fill-22" class="cls-3" d="M4.251.01s3.995,2.135,1.216,3a7.678,7.678,0,0,1-4.863,0S-2.192-.2,4.251.01" transform="translate(310.647 26.348)"/>
      <path id="Fill-24" class="cls-3" d="M24.367.359s-6.6,3.821-6.774,4.516C19.678,4.7,25.236,1.4,25.236,1.4S34.094-.856,35.57.359c.261,2.953,2.345,1.042-.608,4.516,4.169.347,7.469.868,7.469.868l6.253-.868L56.674,8.87s14.59,2.953,12.505,7.99c.521,3.474-3.126,4.168-3.126,4.168s-1.737.347,2.605,1.911,7.469,3.474,8.163,5.038,3.474,5.557-2.258,7.641C67.443,41.35,68.31,41.35,63.1,34.749l-.7-1.563-6.426.175s-1.389,1.27,4.864,6.453c1.389,10.221-5.905,9.525-5.558,9.7L47.85,46.04l3.265,6.253s1.911,3.82-6.078,1.216L37.046,50.9s-3.647-8.684-6.079-8.859a7.412,7.412,0,0,0-3.945.7L16.2,41.177l4.516-5.212s.446-.694,6.3,1.216c5.334-.867,6.724-.695,6.724-.695l.695-2.779s9.379-5.037,9.205-8.684l-4.863-2.605s-1.216-5.384-5.384-6.426a1.763,1.763,0,0,1-2.258,1.563L20.894,16.86l-4.69-.695a15.409,15.409,0,0,0-3.75-.521c-.939.174-6.671,0-6.671,0L2.21,13.907S-.828,12,.22,9.912,11.749.707,11.749.707Z" transform="translate(334.648 38.199)"/>
      <path id="Fill-26" class="cls-3" d="M.946,0s13.026-.162,10.77,1.4S3.378,3.49,3.378,3.49L0,0Z" transform="translate(373.701 38.194)"/>
      <path id="Fill-28" class="cls-3" d="M20.111,1.546,12.7,5.905H5.926L.021,7.816S-.406,5.541,2.586,3.292A28.035,28.035,0,0,1,8.109,0s10.9.313,12,1.546" transform="translate(322.172 36.648)"/>
      <path id="Fill-30" class="cls-3" d="M.071,1.19,3.892,0H9.971s1.563,2.708-2.258,2.557S-.623,3.448.071,1.19" transform="translate(293.116 20.694)"/>
      <path id="Fill-32" class="cls-3" d="M.122,5.166s17.89-8.245,25.358-3.9A26.8,26.8,0,0,1,14.538,3.48L9.675,6.863s-10.942.294-9.553-1.7" transform="translate(253.464 22.878)"/>
      <path id="Fill-34" class="cls-3" d="M.445,5.947,7.627,1.686S13.879,1.174,15.27,0c2.258,1.258,7.295,5.02,8.511,4.7S29.512.479,29.512,0h4.516V3.383s5.384-1.82,4.69-.409a35.7,35.7,0,0,1-3.126,4.363L19.612,8.558S7.974,8.726,6.933,7.51C5.716,7.337-1.9,7.337.445,5.947" transform="translate(265.759 26.358)"/>
      <path id="Fill-36" class="cls-3" d="M9.284,0H20.921c-.174,4.342-3.3,2.779-2.605,3.908s-.695,5.124-4.69,5.471A42.77,42.77,0,0,1,5.81,11.811S-.79,7.99.079,6.947s1.154-2.084,3.79-1.911C6.505,3.474,6.679,0,9.284,0" transform="translate(299.535 36.648)"/>
      <path id="Fill-38" class="cls-3" d="M0,9.755S13.895,3.849,15.805,1.939,29.528-.292,30.4.215A14.006,14.006,0,0,1,32.48,1.939S44.812.178,41.859,3.49a27.73,27.73,0,0,1-6.6,3.486L27.1,7.844l-8.338,2.779-5.211,1.216s-7.121,2.084-7.469,2.779C4.516,14.1,0,12.36,0,12.36Z" transform="translate(219.369 34.709)"/>
      <path id="Fill-40" class="cls-3" d="M26.746,3.251s5.384-1.577,7.295,0c3.995-.854,2.432.668,4.69-.7C42.03,3.786,42.725,3.786,42.2,5.7,44.809,3.439,49.672-1.25,51.583.313s5.037,2.779,0,9.379l.174,2.084s3.995,1.389,3.821,2.779,0,2.258-5.037,3.3a47.015,47.015,0,0,1-3.995,2.78H38.383L32.3,18.55s-9.726,1.564-10.769,2.085S9.2,21.5,9.2,21.5L7.64,19.766S-1.913,18.9.345,16.639a9,9,0,0,1,4.483-2.605L2.951,10.752l1.878-1.06L3.3,7.781,8.856,5.7l8.909-1.911,8.221-2.614Z" transform="translate(235.699 38.766)"/>
      <path id="Fill-42" class="cls-3" d="M10.069.07s4.466,1.042,3.188,2.605S7.985,5.455,3.99,4.933,0,2.564,0,2.564,8.328-.5,10.069.07" transform="translate(291.282 55.336)"/>
      <path id="Fill-44" class="cls-3" d="M0,9.928a99.773,99.773,0,0,0,7.662-7.99c3.513-2.605,7.16-2.258,8.2-.868A7.8,7.8,0,0,1,17.55,6.281a9.832,9.832,0,0,1,3.525,3.647s-.852,2.084-6.505,0L13.434,8.365,3.359,13.055Z" transform="translate(317.097 72.747)"/>
      <path id="Fill-46" class="cls-3" d="M235.7,12.158s8.165,2.953,0,4.342c4.861,0-10.6,3.474,15.8,0,4.168-1.737.868,3.628,6.774-1.4a4.478,4.478,0,0,1,2.085-1.206H268.7s6.426,3.126,8.51,3.126,14.075-.521,14.075-.521c.342-1.042,10.937-1.428,9.2,1.543,2.779-2.064,9.474-4.791,9.514-6.554s-2.566-3.326-2.566-3.326l4.69-5.02L317.851,0l1.216,1.042L321.5,0s3.474,3.3,1.737,6.774l-2.258,1.389,2.744.858V13.2s.181.695,2.105-.695,4.455,0,4.455,0-.62,3.474-3.573,4.69a3.052,3.052,0,0,0,2.605,1.838s1.807,1.912,12.627-9.516c1.962-.659,7.174-.556,7.174-.556l4.342,2.528-4.691,4.49-.694,3.053-8.62,5.978-4.805-1.042-7.012,1.042-5.463,2.953h-2.584v2.084l-15.049,8.337L301.7,39.427l-2.163,2.605H294.49s-20.756,7.47-23.535,17.2c6.427.521,2.432,3.474,2.259,8.163a12.1,12.1,0,0,1,6.774,0l7.12,5.037,7.382,4.342,10.279,1.911-5.234,9.379s.947,7.469,3.205,8.337c1.911-1.389,2.779-.695,2.779-.695l3.126-1.216,2.779-3.474-.174-3.647,1.563-2.953.174-4.168s21.364-7.642,19.974-15.111c-2.779-3.3-3.126-4.69-3.126-4.69s9.032-3.995,8.337-7.3,0-3.821,0-3.821l2.606-3.084.347-2.647,7.469-2.432,5.732,2.258s3.3,0,3.995-1.042c2.084,1.389,5.037,3.863,5.037,3.863V48.2l5.211,2.171s-3.3,5.905-2.258,8.163,5.211,7.383,18.237-3.951c0,0,1.911-8.9,5.732,14.2l-1.389,2.6,2.605,5.733,8.163,3.647v3.474l3.3,2.953-1.389,5.732L397.4,96.4h-6.6l-7.121,4.863-4.516,1.911H367.527l-10.074.868H352.59l-2.605,2.258s-7.991,3.126-8.684,4.168a31.258,31.258,0,0,1-3.127,3.3s13.375-8.338,20.322-5.733a5.482,5.482,0,0,1,2.432,2.779s-1.042,2.605-5.733,2.954l1.911,1.388-2.083,2.084,1.042,2.084V122.8l3.821,3.3,7.642,1.562-5.558,2.432-3.647,2.259h-6.08s-5.036,6.947-7.816,5.384,4.691-7.295,6.426-8.337l1.738-1.042-.174-2.085-6.6,2.953-8.337,4.342h-3.646l-2.259,2.78s-4.516-1.216-9.9,5.905l-.347,4.168-5.905,3.647h-4.342s-6.253,2.953-7.99,3.474a18.606,18.606,0,0,1-.521,2.953l-5.558,5.211s1.042-4.69-4.863,5.037c-2.432,1.563-1.737-.174-2.258-1.563s-.521,2.18-.521,2.18l-.347,3.2.174,3.474-1.564,3.126a4.6,4.6,0,0,1-3.646,4.516,7.3,7.3,0,0,0-.348,2.953s-8.337,2.085-7.641,3.127a7.142,7.142,0,0,1-4,2.432l-13.721,10.42-3.3,4.343s-.347,15.632,2.779,18.237c-.521,15.111-6.774,11.29-6.774,11.463s-7.121-10.247-6.079-14.416a21.641,21.641,0,0,0,.868-6.253l-3.647-3.3-5.732.695s-3.474-6.079-8.511-3.3h-2.432l-2.084,1.043H217.46s2.258,4.168,0,4.516-7.3-.347-7.3-.347l-2.778-1.042-2.258.694-4.691-1.736s-16.327,5.037-15.979,6.774c-2.084,2.084-6.079,4.516-5.732,6.079a29.791,29.791,0,0,1-.021,5.732s-6.926,14.069-6.232,16.5c.347,3.474.868,7.121.868,7.121s-2.084,4.864,3.995,13.374c5.211,1.738,3.995,1.738,3.995,1.738l1.737,1.911s2.953.346,4.342-.868c2.084-2.432,15.458,5.731,15.633-12.333l8.683-3.647,8.164,1.389-1.39,3.995-.346,4.342-3.995,8.511L211.9,274.95l-.347,3.995-3.647,4.168,2.084,1.389h6.947s7.642-2.779,11.637,0c.695,2.084,1.911,2.084,1.911,2.084h2.432l.695,6.079s-5.037,13.2-4.69,17.369,1.042,5.384,1.042,5.384,7.99,6.6,10.595,5.558,4.516-4.168,9.553-3.126a12.388,12.388,0,0,1,7.295,4.168v3.648l-2.605,2.778a3.326,3.326,0,0,1-.521-3.995l-1.737-.347s-4.168-3.3-5.037-2.605-3.821,2.953-3.821,2.953l1.042,2.779s-.174,2.953-4.168,1.216-3.3-2.953-3.3-2.953l-6.6-1.042s-3.995-4.515-5.037-5.037a13.878,13.878,0,0,1-2.779-2.605l-4.168-2.084,1.216-5.732,3.3-.347s-1.216-2.258-2.432-2.258A1.7,1.7,0,0,0,219.2,307.6s-2.258.347-3.3-.695-.868-4.863-3.995-5.732l-1.389-1.389-5.037-.695s-5.905-1.563-6.253-2.779a9.133,9.133,0,0,1-.348-2.258l-5.557.174s-11.291-14.242-15.98-10.249a54.165,54.165,0,0,1-7.99,1.217l-19.106-8.684-2.605-2.605L142.6,272l-3.3-3.822-4.342-1.562-2.259-6.775,2.084-3.821-.173-5.905-3.3-5.037s-4.689-10.074-9.552-11.811a18.369,18.369,0,0,0,0-3.647l-3.127-6.253v-2.258l-5.732-7.295V203.216a8.983,8.983,0,0,0-3.474-.868,2.019,2.019,0,0,1-2.084-1.389l-1.563,3.125-.695,4.343,3.995,6.6.347,3.995s4.69,9.032,3.821,12.332l1.389,2.605v3.474l3.127,3.647-.175,3.821-2.432.347-2.779-5.384-4.342-2.258.347-4.516s.174-5.905-3.3-5.037a24.4,24.4,0,0,1-5.384-4.168v-3.474s5.905-1.737,3.126-4.69-3.126-5.211-3.126-5.211L96.745,191.4,93.1,188.452s2.084-1.389-5.905-2.605l-.868-6.426s-.174-2.779-1.216-3.647l1.042-8.337s-2.605-5.037-2.084-7.295.868-4.516.868-4.516l5.211-6.253,1.216-5.558s22.753-25.706,20.148-31.265c-2.084-3.3-5.558-8.337-5.384-10.074,1.216-1.216,6.6-1.042,7.816,1.042s4.168,7.642,4.168,7.642,3.127.695,0-5.384c-1.911-1.737-3.821-3.474-4.342-5.037a11.384,11.384,0,0,1-4.342-2.432l1.911-5.558s-1.216-14.069,2.866-13.2a21.068,21.068,0,0,1-1.824-4.69l1.042-1.737-3.3-5.037L112.2,66l-.174-3.475h-3.821l-3.647-5.21s3.474-1.043-10.074-3.3c-3.126-.174-2.953-1.042-4.342-.7s-6.6-2.778-7.121-3.995c-5.037,1.217-8.337,1.911-8.337,1.911l-.868,2.606-16.5,4.168s3.474-4.691,6.254-5.558c-7.122,2.257-15.98,6.078-15.98,6.078v1.39L13.9,72.6s-5.037,2.953-4.863,3.647c-4.863.174-6.079-.695-6.079-.695L0,74.86s7.991-1.737,9.554-4.168c3.126-1.216,19.974-9.032,19.974-9.032H26.575a5.52,5.52,0,0,0-5.558,0c-2.258.174-6.426.366-6.253-.773S19.8,55.232,19.8,55.232a34.139,34.139,0,0,1-5.037,2.085c-1.563.346-2.779-4.517-2.779-4.517l2.779-1.388s-1.563-4.691,4.516-6.08S10.6,50.2,31.091,39.775c2.953-.522,3.995,0,3.995,0l3.126-2.433L46.2,36.3,51.933,33H44.638s-9.032.174-9.9.868A66.3,66.3,0,0,1,35.954,27.1s11.984-3.474,18.063-3.821l.175,1.216,3.994.695,2.78-1.911h2.605s.347-2.084-2.259-2.258a7.843,7.843,0,0,1-.694-2.432l-2.084-3.474,3.474-2.605s6.947-.347,10.769-1.911,5.384-1.389,5.384-1.389L82.156,7.99l8.337-3.647,8.858-.868h9.032a4.756,4.756,0,0,1,3.647-1.563,63.04,63.04,0,0,1,12.159,2.258c1.736.695,5.905,0,5.905,0a62.188,62.188,0,0,0,12.853,2.084c6.079.174,9.205.347,9.205.347l5.037,2.605h3.647l6.253,2.258,5.384-1.737s21.885-3.3,22.754-2.779a13.767,13.767,0,0,1,3.995,0c.52-1.911,7.989-2.258,5.732.521V9.032l3.82.695,2.78-1.911,1.737,1.145s7.121-3.177,15.111,2.528Z" transform="translate(-0.001 46.374)"/>
      <path id="Fill-49" class="cls-3" d="M18.893,1.56l-8.214,8.462s-5.258,6.9-9.365,8.953A5,5,0,0,0,0,20.371a21.311,21.311,0,0,0,10.267,1.068l5.751-.822s1.971.986,1.808,1.561,1.725,1.068,2.875,1.15a2.623,2.623,0,0,0,.985.822l4.026.657,2.71-4.025S29.159,19.3,25.34,19.3l1.193-2.792.082-2.958s3.071-1.315,1.865-2.793.435-2.136-7.287-.739a10.3,10.3,0,0,1-1.807-1.233s1.643-1.971-.9-1.643L21.276,4.6,21.6,2.628s2.135-1.479,1.478-1.89A8.869,8.869,0,0,0,21.193,0Z" transform="translate(377.618 142.915)"/>
      <path id="Fill-51" class="cls-3" d="M.736,7.241,6,1.978H9.431L12.749.261s3.89-1.373,12.928,2.174l.915,1.6,3.548.457s5.834,5.491,8.009,6.178,1.716,1.144,1.716,1.144l1.6,1.374,2.975,1.144,4,2.631s.344,3.2-5.491,3.547a39.456,39.456,0,0,0-4.462-2.4s-4.347,1.6-5.034.8a3.768,3.768,0,0,1-.229-4l-2.059-1.03a5.648,5.648,0,0,1-3.318-3.619,6.3,6.3,0,0,0-2.631,0S22.473,6.784,19.5,7.241s-2.975-.229-2.975-.229l-2.516-.8-.229-1.029H9.431L7.371,6.554,2.224,8.5S-1.552,8.5.736,7.241" transform="translate(229.755 291.058)"/>
      <path id="Fill-53" class="cls-3" d="M1.541,0s4,5.721.8,5.835C-.632,2.86-.632.343,1.541,0" transform="translate(261.899 281.595)"/>
      <path id="Fill-55" class="cls-3" d="M.355,0S3.329,2.288,2.414,2.975C.7,3.089-.675,0,.355,0" transform="translate(269.149 278.62)"/>
      <path id="Fill-57" class="cls-3" d="M.565.007s.572,1.944,0,1.6S-.35-.108.565.007" transform="translate(266.88 281.016)"/>
      <path id="Fill-59" class="cls-3" d="M6.351.348S11.728.12,12.757.92a7.077,7.077,0,0,0,2.289-.6s.915-.717,3.088,0l1.487,1.746,2.517.458S28.2,5.039,28.432,5.954s.342,4.119-1.831,3.2l-2.174-.914-2.059.114L21,9.32H16.19s-.115,1.9-2.746,1.783a59.92,59.92,0,0,1-7.093-1.03S-1.886,9.272.4,8.128A29.069,29.069,0,0,1,3.38,6.755L8.3,6.526,8.41,4.353S4.635.378,6.351.348" transform="translate(274.823 309.047)"/>
      <path id="Fill-61" class="cls-3" d="M.42,1.369s3.088-3.432,5.606.572S-2.219,2.732.42,1.369" transform="translate(308.44 316.379)"/>
      <path id="Fill-63" class="cls-3" d="M51.277,0s-.707,4.244-3.536,4.244a9.077,9.077,0,0,1,0,3.359l-1.769,4.951s2.122,3.183,2.652,2.829,1.5-3.139,0-4.6a20.467,20.467,0,0,1,.708-3.08A6.468,6.468,0,0,1,54.46,4.244c1.592-2.653,1.592-3.36,1.592-3.36L58,3.713l4.068.708,2.651,3.285h8.665s5.834,4.522,10.255,0c7.249-.279,8.31,0,8.31,0s2.122.782-.708,2.726l1.414,1.592,1.769.53,3.712,2.122-.883,4.243h4.067a22.941,22.941,0,0,0,4.243,2.829c1.945,2.3,3.183,6.542,3.183,6.542l2.829.884,3.007,3.182s11.847,1.061,15.206,1.945a22.42,22.42,0,0,1,6.012,2.652s4.421,5.128,6.012,4.774a31.406,31.406,0,0,0,1.768,5.481s2.652,8.133,4.243,8.133a27.481,27.481,0,0,1,0,6.012l2.3,1.945v1.591h5.658a5.385,5.385,0,0,1,0,3.537c1.061-2.477-.707,1.944,2.3,0,3.007-.884,11.14,2.829,11.14,2.829s3.36-.707,5.481,6.189a9.55,9.55,0,0,1,8.488,0c2.829,1.414,1.238,2.475,13.084,2.651a114.039,114.039,0,0,1,9.372,7.073s2.476,3.713,9.9,4.774c3.183,6.366,2.83,1.945,3.713,7.25s-.353,17.151-7.6,22.455l-1.591,1.769s-3.006,8.663-6.9,9.548c.53,2.475-1.769,4.421-1.769,4.421l.354,7.249s3.006,6.189.707,7.6c-.177,3.36-.177,6.542-.177,6.542l-2.476,3.536.53,6.189s-3.359,7.427-4.243,7.25c.353,1.238-.531,5.481-.531,5.481s-5.3,4.068-3.89,5.128c-2.651,1.238-10.962,2.122-10.962,2.122l-7.072,3.713s-16.621,2.3-9.372,21.219c-.53,9.724-6.366,2.829-6.012,11.492a7.487,7.487,0,0,1-1.768,3.183h-1.769l-1.768,2.3-.883,4.243-4.421,9.194s0,4.243-5.3,7.072a17.294,17.294,0,0,0-4.951,0l-4.65-2.121-3.837-.177-1.769-1.238s.53,1.591,4.774,3.536a21.615,21.615,0,0,1,2.121,4.775l2.122,1.414-1.591,10.078-6.012,3.713-12.377.884,1.768,2.3-.177,3.537s3.713,4.421-3.006,5.659c-6.366-.708-7.957-1.415-7.957-1.415l2.3,5.129a17.568,17.568,0,0,0,4.421.707,4.028,4.028,0,0,1,1.414,3.183s.883,1.061-2.652,1.061H111.4l.354,1.945-.884,1.945s2.121,3.89,1.591,4.6-3.713,2.829-3.182,3.36c-1.769,1.414-4.244,1.414-3.36,4.243,1.944,2.122,5.481,5.128,8.31,5.481,2.476,1.945,3.36,4.774-1.414,9.372,0,1.944-1.414,0-1.238,4.243a3.665,3.665,0,0,1-1.768,2.476V333.3s4.42,5.3,5.658,6.012a9.769,9.769,0,0,1,2.122,4.42s7.957,7.427,16.443,10.255c-6.541.884-7.072,0-7.072,0s-10.962-1.238-11.493-.53c-.353-1.592-.707-3.007-.707-3.007L112.1,347.8l-2.653-1.768.884-2.122s0-2.3-5.658,2.652c-5.659.354-5.482,1.414-5.659.354l-.177-1.062-1.768-.883-4.6-5.3v-2.3l-9.371-15.03.531-3.006-4.6-10.079-1.945-10.078-1.061-1.415.354-4.95-3.006-5.835s-4.244,4.42-6.189-7.25S65.6,268.942,65.6,268.942L62.417,262.4l1.944-2.476-.707-8.311s4.067-12.907.177-17.681L61.886,228.1l.178-7.427-1.414-3.006.883-2.122s.708-13.792-1.238-14.5l1.238-1.945-2.122-28.291s.354-16.268-23.87-22.455l-7.957-9.2v-2.829s-8.841-19.45-12.731-19.98c-2.476-6.542-3.537-7.957-3.537-7.957s1.414-5.305-9.548-10.079l.53-2.652S1.414,90.178,0,90c1.238-2.652,2.122-4.243,2.122-4.243l3.537-3.537.53-2.475-2.476-.884-1.238-8.31,1.768-1.946V66.484l1.769-2.3-.177-3.713,4.243-1.237,1.769-2.652,2.476-5.659,2.121-.353s9.018-18.565,1.061-24.048c5.3-5.481,11.317-12.731,11.317-12.731l.53-4.42L35.364,5.3,41.2,4.421l4.951-3.36L47.034,0Z" transform="translate(236.48 349.687)"/>
      <path id="Fill-66" class="cls-3" d="M1.061,0H4.067s1.238,3.182,0,3.537A14.861,14.861,0,0,1,0,3.537Z" transform="translate(330.371 357.467)"/>
      <path id="Fill-68" class="cls-3" d="M.209.349,3.615,0s.393,2.8-2.009,3.145S.209.349.209.349" transform="translate(382.342 685.884)"/>
      <path id="Fill-70" class="cls-3" d="M1.646,0,5.665,1.529S1.69,5.155.6,3.975-.058.175,1.646,0" transform="translate(387.369 685.534)"/>
      <path id="Fill-72" class="cls-3" d="M.339,14.808S7.385,12.579,2.3,9.189c.179-4.014.356-4.46,1.159-4.46s4.995-.714,4.995-.714.356-5.44,8.028-3.656C21.12,1.608,20.853,2.946,21.031,5c-.981,2.052-1.07,1.96-2.854,2.408C18,8.833,17.731,11.6,17.731,11.6l-2.586,4.638H11.488l-7.849,4.1s-4.956-4.816-3.3-5.53" transform="translate(583.317 123.751)"/>
      <path id="Fill-74" class="cls-3" d="M6.192.136S16-.488,13.506.938A16.892,16.892,0,0,0,9.582,3.971H16.9s2.585,3.479,1.338,3.746-3.746,3.122-3.121,4.014,4.459,4.905,4.459,4.905v2.141s4.281,2.051,4.281,3.033v2.051l.714.446.535,2.5s7.225,1.873,5.441,3.745-2.5,3.122-4.192,4.192c.981.714,4.549.892,3.033,2.319a9.252,9.252,0,0,1-3.39,1.962s-8.473,1.07-9.454,1.605H10.027l-4.816,2.23S-5.938,45,7.53,36.259l2.23-.624-1.516-.8-4.1-.178s-3.3-1.249,2.5-3.479l.535-.714-2.141-2.14s.446-1.608,4.817-2.232l1.516-.266.981-2.676-2.5-3.121.713-1.427-.891-.268s-3.3.981-4.1-.356L3.7,17.8,2.982,15.92s1.962-.443-1.695-1.335L.93,12.98s2.854-2.408,2.051-2.408h-.8s-.906-.357-1.3-2.855L.038,6.736S-.5,5.309,2.447,4.952l.268-1.695Z" transform="translate(601.366 107.831)"/>
      <path id="Fill-76" class="cls-3" d="M526.7,385.341a1.343,1.343,0,0,1-.207-.017l-3.3-.522-.008,0c-.749-.464-7.352-4.555-8.5-5.378-1.2-.862-1.561-4.653-1.564-4.691l-2.952-3.3c-.013-.052-1.339-5.39-3.141-10.6a50.059,50.059,0,0,0-3.048-7.286c-1.2-2.2-2.291-3.312-3.252-3.312a1.9,1.9,0,0,0-1.5,1.047c-.687-10.132-.695-11.107-.695-11.116a127.281,127.281,0,0,0-.521-13.027,49.2,49.2,0,0,0-1.677-9.4c-.918-2.971-2.107-4.719-3.534-5.195l-4.343-10.422-.695,4.169c-.061.024-6.02,2.411-6.292,3.442a.224.224,0,0,0,.039.207c-2.06-.515-2.083-1.382-2.083-1.391l-4.69-1.39a25.72,25.72,0,0,0,.738-7.49A17.268,17.268,0,0,0,474,293.315a12.311,12.311,0,0,0-4.825-5.431c-5.322-5.323-5.384-6.244-5.384-6.253l-4.343-7.468-.08.026c-1.923.61-8.313,2.625-9.82,2.927-1.727.346-9.475,2.754-9.553,2.778.036.169.828,4.121-1.135,6.568a6.032,6.032,0,0,1-4.983,2c-.374,0-.77-.019-1.178-.057l-5.21,7.121a11.976,11.976,0,0,1-1.563,3.084,9.1,9.1,0,0,1-5.732,3.864,3.857,3.857,0,0,1-.591,3.021c-.73.8-2.049.8-3.577.8a3.194,3.194,0,0,1-1.824,2.845,6.132,6.132,0,0,1-1.824.63l0,.012a54.684,54.684,0,0,1,1.385,8.454,26.744,26.744,0,0,1-.217,6.774,8.243,8.243,0,0,1-2.562,5.08l1.562,7.295a7.025,7.025,0,0,0-2.518,1.172,5.091,5.091,0,0,0-1.585,1.905,5.616,5.616,0,0,0-.413,3.175l-2.431,1.39a10.426,10.426,0,0,1-1.258,1.89,4.626,4.626,0,0,1-3.28,1.891c-1.334,0-2.652-.927-3.916-2.757-1.548-2.241-3.028-5.858-4.4-10.751l-3.474-5.385-4.69-13.027a37.561,37.561,0,0,1-2.844-4.168c-1.248-2.139-2.641-5.141-2.192-7.294a31.476,31.476,0,0,1-3.127-6.948l-.869-6.948-1.737-3.647c0-.059.342-5.911-.868-7.122a35.558,35.558,0,0,1,0-4.515c0-.008-.306-.869-.673-.869-.483,0-.85,1.5-1.063,4.342l-5.906,3.474c-.067-.07-6.794-7.131-9.553-8.51l4.168-2.258-.024-.008c-1.135-.475-6.856-2.923-7.965-4.508a30.984,30.984,0,0,0-3.253-3.208c-2.518-2.307-5.651-5.178-5.431-6.171a33.785,33.785,0,0,1-4,.232,31.548,31.548,0,0,1-3.988-.232,6.516,6.516,0,0,1-2,.921,24.775,24.775,0,0,1-7.41.921c-6.3,0-14.354-1.379-23.938-4.1-2.177-4.239-3.375-6.574-5.667-6.574-1.1,0-2.454.528-4.407,1.711l-6.252-.695-10.421-5.732-3.475-5.731a39.446,39.446,0,0,0-3.4-3.156c-1.755-1.44-4.236-3.156-6.093-3.156a2.183,2.183,0,0,0-1.741.767c-1.053,1.236-1.248,3.978-.579,8.151l2.259,3.993,6.773,5.906.868,6.253,3.475-4.342.008,0a9.817,9.817,0,0,1,1.838,1.646,3.6,3.6,0,0,1,.934,3.734l-1.216,2.779,1.735,2.432a14.493,14.493,0,0,0,3.709.438,15.657,15.657,0,0,0,7.859-2.071c3.286-1.917,5.881-5.107,7.712-9.483a24.6,24.6,0,0,0,3.626,8.489,44.309,44.309,0,0,0,2.974,4.19l5.558,1.215,5.732,7.99-4,9.726-1.91.348-.869,6.252c-.116.122-2.859,2.978-4.593,2.979a1.385,1.385,0,0,1-.27-.026,9.286,9.286,0,0,1-1.817,2.966,3.943,3.943,0,0,1-2.922,1.173,6.9,6.9,0,0,1-1.341-.143,6.254,6.254,0,0,1-3.055,4.048A5.5,5.5,0,0,1,290.5,303h-.053l-8.684,3.126-.174,3.822a1.5,1.5,0,0,1-.306,1.2,6.511,6.511,0,0,1-3.216,2.088,37.393,37.393,0,0,1-9.332,1.749l-2.778,3.822-4.864.174a3.061,3.061,0,0,1-1.3,1.846c-1.109.852-3.411,1.886-8.076,1.975l-.9.48c-2.574,1.384-4.435,2.384-6.191,2.384a6.205,6.205,0,0,1-4.2-2l.346-3.822-4.342-10.42a6.3,6.3,0,0,0,.9-4.4c-.4-2.631-2.279-5.183-5.593-7.587a48.29,48.29,0,0,1-2.317-4.416c-1.838-3.827-3.424-7.129-7.583-8.263a50.541,50.541,0,0,1-2.937-8.477c-1.363-4.879-2.54-9.093-6.442-11.323-3.415-5.634-13.964-20.693-14.07-20.843l-.607-6.079c-.016-.091-1.579-9.13-3.214-10.335a7.748,7.748,0,0,1,0-2.6,32.532,32.532,0,0,0,2.433-7.036c.419-2.765.516-3.612.52-3.646.029-.037,2.86-3.669,2.345-5.472s-.178-9.906-.175-9.987l-1.561.608c-.1,0-2.453-.016-3.214-.608l-.324.127c-1.241.483-4.148,1.615-4.54,2.478l-5.644.347a3.939,3.939,0,0,0-1.335-1.791c-1-.822-2.937-1.811-6.481-1.857-.518,1.68-1.484,2.5-2.954,2.5s-3.416-.84-5.817-2.5a3.04,3.04,0,0,0-1.213-.193,10.35,10.35,0,0,0-1.827.193l-3.647-.955-1.13-4.635c-.332-.092-3.228-.934-3.334-2.234-.056-.689.685-1.388,2.2-2.076a21.49,21.49,0,0,1-2.207-4.17l.644-.433-1.65-.955a3.154,3.154,0,0,1,.131-2.753c.729-1.149,2.405-1.749,4.982-1.783,5.739-.076,6.691-.57,6.833-.779.029-.042.019-.067.019-.067a6.5,6.5,0,0,1,1.021-1.744,4.466,4.466,0,0,1,3.483-1.744c.126,0,.252.005.377.015,1.02.08,1.946.121,2.752.121a10.319,10.319,0,0,0,2.037-.136,18.063,18.063,0,0,1,3.4-1.976,26.4,26.4,0,0,1,9.457-2.327l2.817-.563,1.784,1.219,2.441.188s.134.384,1.4,1.08a41.918,41.918,0,0,0,8.367,3.052c1.387-.028,2.547-.042,3.449-.042,1.514,0,1.8.04,1.809.042a24.511,24.511,0,0,0,3.881-.506c1.813-.4,4.057-1.2,4.448-2.736.5-1.978-2.109-4.678-7.766-8.024-2.5-1.944-14.432-9.78-14.551-9.858.011-.076.292-1.8,1.731-1.8a3.054,3.054,0,0,1,1.368.394l.093-2.066,1.127-2.065c-.127-.086-1.213-.86-1.182-1.8.019-.579.448-1.111,1.276-1.579l1.877-.939-3.286.845a1.056,1.056,0,0,1-.24.768c-.386.518-1.391,1.179-3.982,1.391l-3.85.94-3.473,1.6,2.252,2.628h.019c.05,0,.2,0,.417,0,1.174,0,5.029.093,5.366,1.289.164.584-.524,1.352-2.047,2.284h-2.722l-2.817.281c-.07.108-1.746,2.624-3.344,2.624a1.457,1.457,0,0,1-.5-.089c-1.761-.648-1.971-3.539-1.973-3.568h0c-.308-.1-3.018-1.026-3.338-2.137a.806.806,0,0,1,.2-.772c1.253-1.486,2.2-1.5,2.207-1.5l-3.943-.187-2.63-2.441-4.882.375-.281,1.5-2.723,2.159-.563,3.944-2.348.657v.005a12.73,12.73,0,0,1-.235,2.775,10.1,10.1,0,0,1-2.487,5.1l-.47,2.253c-.012,0-1.115.474-1.156,1.1-.02.3.211.6.686.872l1.785,1.033-.189,1.409a.27.27,0,0,0-.171.223c-.052.379.463,1.4,4.489,4l-1.5,1.6L162,176.388l-.939,1.22a8.994,8.994,0,0,1-3.667.686,12.773,12.773,0,0,1-3.468-.5l-4.319-1.22c-.023,0-2.315.34-2.613,1.045a.448.448,0,0,0,.079.456c-.742.836-3.446.846-3.473.846a3.772,3.772,0,0,0,1.032,3.567c-.093,2.135-.094,2.81-.094,2.817l2.159,3.473-.562,3.38a.116.116,0,0,1-.008.1c-.038.058-.132.088-.28.088-.488,0-1.778-.326-5.157-1.882l2.535,2.629.187,2.253.094,3.662H143.5c-.438-.021-2.633-.154-2.8-.751-.461-.186-3.909-.561-3.943-.564l-1.877-6.1c-.28-.35-6.849-8.577-6.665-9.859-2.134-1.855-2.159-2.434-2.159-2.44,0-.07.356-6.965-1.128-8.356-1.3-1.221-8.243-7.409-9.763-7.98s-6.95-3.208-7.322-5.257c-1.291-1.106-5.4-3.915-5.445-3.943v-1.22l-2.159-.375-1.408.844-2.63.188.657,1.784a3.577,3.577,0,0,0-.626,2.272,1.819,1.819,0,0,0,.814,1.2,38.312,38.312,0,0,1,4.506,4.131l.845,2.817,5.445,4.412,3.756.657.47,1.971.007,0c.28.115,2.809,1.162,5.322,2.523,2.45,1.326,5.407,3.238,5.58,4.816a1.474,1.474,0,0,1-.77,1.391l-2.91-1.032-2.442-.469a1.508,1.508,0,0,0-.9-.458c-.41,0-.929.372-1.073,2.147l1.6,3.568-1.221,2.348-.375,2.066c-.117.1-2.866,2.346-4.694,2.346a7.653,7.653,0,0,0-1.595,1.69v2.911a1.391,1.391,0,0,1-.308.962,1.355,1.355,0,0,1-1.052.389,7.732,7.732,0,0,1-3.335-1.163c-.994-.544-1.944-1.048-2.782-1.492l-.033-.018c-2.9-1.54-4.823-2.557-4.976-3.291a.418.418,0,0,1,.092-.364c.572-.714,2.91-1.364,4.906-1.364a5.8,5.8,0,0,1,1.385.144,6.417,6.417,0,0,0,1.543.169,12.164,12.164,0,0,0,2.775-.357l3.567-.657c.014-.067,1.4-6.856,0-7.511s-4.2-3.538-4.224-3.567c-.034-.014-3.5-1.441-5.163-3.661a9.72,9.72,0,0,1-4.507-1.877c-.079-.055-7.893-5.559-8.355-6.947a16.611,16.611,0,0,0-2.2-3.86c-1.065-1.4-2.733-3.073-4.632-3.073-1.357,0-2.658.848-3.868,2.519H75.163l-3.756,3.38a36.54,36.54,0,0,0-8.832-1.426c-2.965,0-4.858.733-5.626,2.177v5.727c-.189.168-4.6,4.069-7.417,5.07l-2.159.282-6.384,8.261.751,3.379L39.3,191.316v2.628l-6.948,4.6-9.67.846c-.035.023-3.562,2.336-5.456,2.336a1.387,1.387,0,0,1-.741-.177,10.24,10.24,0,0,1-1.617-1.626c-1.429-1.618-3.385-3.833-5.311-3.833a2.509,2.509,0,0,0-1.334.39l-2.911.093-2.97-.788v-6.774L0,186.926c.036-.063,3.651-6.4,4.038-9.248s0-3.769,0-3.778c-.006-.045-.55-4.457.174-5.992a2.677,2.677,0,0,0,0-2.6c.015-.015,3.48-3.392,4.126-4.039a2.128,2.128,0,0,1,1.37-.289,18.545,18.545,0,0,1,2.8.289l22.927,1.3a19.636,19.636,0,0,0,2.249-4.128,16.292,16.292,0,0,0,1.1-4.211,11.339,11.339,0,0,0-.433-4.8c-1.4-4.316-5.578-7.566-12.428-9.658a29.67,29.67,0,0,1-2.606-3.777l.006,0a22.027,22.027,0,0,1,7.818-1.585c.3,0,.608.009.9.025l.123.025a14.422,14.422,0,0,0,2.739.343c1.158,0,1.907-.276,2.226-.821.354-.606.176-1.548-.53-2.8a2.56,2.56,0,0,1,2.262-1.823c.079.033,1.916.8,2.177,1.492a.4.4,0,0,1-.009.331l4.039-.131v-1.172a9.8,9.8,0,0,0,2.735-.847,5.2,5.2,0,0,0,3.126-3.973,23.149,23.149,0,0,1,4.589-2.952c3.4-1.852,6.924-3.767,7.527-7.469a20.493,20.493,0,0,1,1.121-2.813,9.822,9.822,0,0,1-.34,1.379h1.823l4.039-2.474h3.648a2.41,2.41,0,0,1,2.342-1.927,5.1,5.1,0,0,1,2.217.624l1.823-1.3v-3.257l-1.172-2.735-1.694-2.215L77.9,97.825c.01-.049,1.059-4.951,2.6-5.08l1.563-.131c.139-.114,3.409-2.768,4.805-2.768a.579.579,0,0,1,.53.248c.283.45.021,1.517-.776,3.172a28.837,28.837,0,0,1-.391,5.079l-2.083,1.823a5.666,5.666,0,0,0,.521,2.557,6.275,6.275,0,0,0,4.819,3.435l.652,1.434,2.605-1.173,2.084-.391a1.946,1.946,0,0,1,1.787-1.407c1.4,0,3.25,1.394,5.508,4.142,4.409-1.426,17.068-4.657,17.2-4.69l1.434,1.172,3.516-.39c.119-.14,2.909-3.387,4.169-3.387l-.024-.2a21.351,21.351,0,0,1,.043-7.154,6.278,6.278,0,0,1,5.713-5.283l3.647,2.867h1.955V87.664c-.1-.108-2.456-2.686-1.667-4.885.549-1.53,2.468-2.516,5.705-2.931l6.643,1.173,3.257.13a1.551,1.551,0,0,1,.027-1.388c.45-.791,1.667-1.245,3.62-1.348L154.5,76.721c-.125.009-12.569.948-13.494,2.162a.225.225,0,0,0-.052.183c-1.537.256-7.883.388-7.947.39l-1.564-1.693a5.421,5.421,0,0,1-1.823-.375,2.706,2.706,0,0,1-1.823-2.622v-3l-2.216-2.084.131-4.821,6.9-4.689,5.863-5.6-.13-1.3-7.034-.781-4.037,3,.521,2.084c-.085.094-2.218,2.363-14.46,9.248-.517,3.881-.65,5.2-.652,5.212l.782,2.735c.258.124,6.245,3.025,5.991,3.908a16.145,16.145,0,0,1-1.562,2.866l-.652,1.823-5.6,3.257-.912,5.341-2.215,6.384-5.08.652a2.208,2.208,0,0,1-.283,1.853c-.572.793-1.751,1.2-3.5,1.2-.361,0-.753-.018-1.164-.052a20.762,20.762,0,0,1-3.257-4.039l.651-3.256c-.326-.419-7.942-10.227-7.816-12.506l-.781.13a6.024,6.024,0,0,1-2.866,1.434c-1.41.127-4.141,3.1-4.169,3.126a8.667,8.667,0,0,1-4.934,1.63,8.919,8.919,0,0,1-6.268-2.833l-.261-4.138-2.345-5.733.131-7.033L74.9,64.607l5.6-3.387,3.257.392,3.126-3.778L90.014,56.4l.391-1.434,3.517-2.475.391-2.345,2.215-1.172a5.253,5.253,0,0,1,.863-1.922,5.173,5.173,0,0,1,4.087-2.117,16.553,16.553,0,0,0,1.563-3l1.563-.781a3.381,3.381,0,0,1,.742-1.565,4.964,4.964,0,0,1,4.067-1.565c.086,0,.177,0,.271,0,1.556-2.275,3.66-4.579,4.669-4.579a.545.545,0,0,1,.15.02l.782-1.824h0l0,0a12.645,12.645,0,0,1,3.2-.692,1.128,1.128,0,0,1,.869.256.518.518,0,0,1,.095.438l1.563.652,1.3-1.346h4.3c.271-.344,2.673-3.343,3.909-3.343h11.333a1.518,1.518,0,0,1,1.12-.406,3.374,3.374,0,0,1,1.486.406l1.434-.261,3.256.391c.069,0,6.9.287,8.172,2.371a1.422,1.422,0,0,1,.034,1.408l3.128.521c.077.019,7.834,1.936,15.767,4.373,4.675,1.436,8.515,2.773,11.414,3.975,3.622,1.5,5.774,2.794,6.395,3.841a1.081,1.081,0,0,1,.163.838,18.861,18.861,0,0,1-5.341,4.3l-12.637.259-6.383-1.562,4.169,2.736-.912,1.953,3,2.085,1.042,2.214,6.512,1.433-.012-.01c-.522-.519-3.1-3.17-2.611-4.386.163-.4.654-.608,1.458-.608a17.8,17.8,0,0,1,4.945,1.094l4.949,1.434-1.563-1.954a1.241,1.241,0,0,1-.326-1.161c.2-.725,1.258-1.768,5.146-2.617l2.476-2.215,6.122-1.433-2.345-1.823c.013-.032,1.227-3.2.25-4.694a1.817,1.817,0,0,0-1.553-.777V38.293l9.249-.261c.117.049,2.859,1.223,2.777,2.488-.047.715-.981,1.324-2.777,1.811l-1.173.261c.035.026,3.807,2.736,6.022,2.736a1.54,1.54,0,0,0,1.273-.521c.921-3.291,1.975-3.781,5.732-4.3l2.6-1.042,2.736-.261c.178-.117,4.4-2.863,7.514-2.863a3.074,3.074,0,0,1,2.386.91l3.387.521,12.506-2.346a16.315,16.315,0,0,0,4.269,1.4c.3,0,.486-.078.552-.231.385-.9-1.8-2.717-1.824-2.735a2.188,2.188,0,0,1,.894-.976,7.958,7.958,0,0,1,4.412-.976,39.868,39.868,0,0,1,11.369,2.212l13.418,4.429c-.039-.037-4.03-3.892-6.2-3.892a1.367,1.367,0,0,0-.573.114c-1.547-2.449-3.756-5.183-3.778-5.21-.038-.014-.94-.356-1.013-1.158-.066-.725.553-1.994,3.879-3.924l-.261-3.777a18.268,18.268,0,0,1,7.748-2.207,6.84,6.84,0,0,1,6.191,3.249l-.783,3.127a13.083,13.083,0,0,1,3.746,2.247,12.148,12.148,0,0,1,4.332,8.3c.138.138.324.308.539.5l.009.009c1.329,1.215,3.8,3.476,3.512,5.883-.17,1.405-1.273,2.672-3.278,3.766a6.821,6.821,0,0,1-1.695,1.954,22.2,22.2,0,0,0,5.077.692c2.152,0,3.642-.489,4.429-1.453a3.644,3.644,0,0,0,.525-3.148V41.809c-.1-.1-2.543-2.367-2.234-3.921A1.626,1.626,0,0,1,307.3,36.73l-3.777-.261L299.615,32.3l.13-2.475c-.171-.1-4.145-2.52-4.526-4.826a2,2,0,0,1,.488-1.687l2.214-.651,0-.006c-.143-.35-.832-2.133-.354-2.856a.712.712,0,0,1,.638-.3c.926,0,2.628,1.021,5.059,3.035l2.216.131,2.989-1.3,7.562.13-.009,0c-.32-.241-3.113-2.4-2.547-4.177.507-1.588,3.471-2.417,8.809-2.462l8.467-.391-.006,0c-.266-.158-1.588-1.009-1.451-2.263a3.47,3.47,0,0,1,1.77-2.25,23.989,23.989,0,0,1,6.331-2.65l7.164-.521L365.919,3.9l0,0a2.364,2.364,0,0,1-.463-2.243C365.972.557,367.824,0,370.958,0a40.334,40.334,0,0,1,4.21.255l8.989,1.954,5.992,1.954c.154-.007,1.552-.067,3.557-.067a69.228,69.228,0,0,1,10.431.691c4.136.675,6.433,1.813,6.825,3.38.575,2.3-2.965,5.509-10.521,9.544l9.248-1.172a6.9,6.9,0,0,1,5.059-1.814,12.87,12.87,0,0,1,4.191.772c12.122.765,31.88,2.449,32.174,2.474l0,0c-.162-.192-.955-1.185-.634-1.9.233-.522.99-.786,2.249-.786a30.535,30.535,0,0,1,7.119,1.263c2.847.647,11.894.78,11.985.781.061.023,6.04,2.3,6.666,3.983a.672.672,0,0,1-.023.575c2.288,1.654,10.314,5.678,10.681,5.862a.06.06,0,0,1-.007-.011c-.26-.473-1.531-2.878-.972-3.842a.9.9,0,0,1,.848-.4,5.951,5.951,0,0,1,2.347.74L497.75,25.4l6.512-2.084,7.159.521-.006,0c-.375-.158-2.243-1-2.132-1.981.113-1.006,2.193-1.828,6.183-2.446,6.508.712,14.607,1.592,18.856,2.053l.293.032,11.2,1.173,13.287,4.168,9.9.261,8.858-.131c.356.053,3.543.532,6.9,1.318,3.239.758,7.269,1.957,8.077,3.371l4.168.652c.263.007,26.367.675,30.352,2.475-.1-.422-.211-.808-.312-1.148-.261-.882-.449-1.519-.128-1.949.357-.478,1.372-.682,3.393-.682,1.294,0,3.088.083,5.645.261l26.08,4.144,19.527,3.459,14.444,5.7a66.865,66.865,0,0,1,8.9.738,45.526,45.526,0,0,1,7.578,1.751A19.61,19.61,0,0,1,719,50.456l-1.424,1.627,2.441,5.289-5.086,1.22L704.15,55.542,698.862,53.3h-6.51v0a5.162,5.162,0,0,1-.473,1.728,2.9,2.9,0,0,1-2.727,1.733c-.083,0-.17,0-.258-.008l.814,1.831,7.933,3.865c.069.017,6.969,1.739,6.841,3.167-.075.838-2.514,1.416-7.248,1.715l-2.645-.2-6.1,4.271a12.02,12.02,0,0,1-1.034,3.622,7,7,0,0,1-1.89,2.49,5.2,5.2,0,0,1-3.336,1.132,10.652,10.652,0,0,1-4.724-1.344h-3.46c-.014.289-.194,2.8-2.019,2.8-1.12,0-2.63-.943-4.49-2.8a1.766,1.766,0,0,1-.282,1.483,1.886,1.886,0,0,1-1.457.541,4.083,4.083,0,0,1-1.719-.4c-1.418.406-.821,2.623-.815,2.645l1.22,4.475,5.086,2.441,3.459,2.238,3.458,4.069-.407,3.09,6.306,4.844-1.22,2.847h-.081c-.364,0-2.2.049-2.533,1.022-.324.946.829,2.45,3.427,4.47a3.119,3.119,0,0,1-.524,2.23,1.149,1.149,0,0,1-.87.338,4.032,4.032,0,0,1-1.418-.363l-.25-.1a2.763,2.763,0,0,0-.792-.259.157.157,0,0,0-.152.072c-.153.281.492,1.471,2.379,4.393l-.611,6.305-7.73-5.288-5.9-3.866a52.818,52.818,0,0,0-3.789-5.059c-2.065-2.436-5.165-5.582-8.212-6.738l-4.883-6.1-.407-3.662-2.237-3.459a2.969,2.969,0,0,1,2.363-1.543c3.092-2.235,3.3-2.947,3.3-2.954l-1.736-2.432,1.216-6.08c.028-.009,2.688-.885,2.837-2.341.084-.821-.637-1.669-2.142-2.522l-.695-1.39-1.737-4a3.818,3.818,0,0,0-1.087-.192.914.914,0,0,0-.885.395c-.284.531.087,1.573,1.1,3.1l-1.39,2.432-1.911,2.953-3.3-.869-2.953-3.127c-.046,0-4.916-.293-8.353-.293a22.235,22.235,0,0,0-2.763.119v3.821a3.061,3.061,0,0,0-.6,2.507c.308,1.218,1.5,2.244,3.549,3.05.216,1.658.161,2.462-.2,2.868-.332.378-.923.406-1.787.406H628.8c-.321,0-.749,0-1.222.029l-1.911,1.042-7.121-.7a.513.513,0,0,0,.065-.514c-.232-.632-1.723-1.835-9.1-2.786-1.2,1.889-1.9,1.911-1.911,1.911l-4.343-.695-4,1.042H585.549l.174,3.127-1.91,1.042v2.256l-2.258,4v4l-3.821,5.9,7.122,1.042,2.431,4.342,2.084-.347,3.127,1.042-.174-2.606h6.6l7.99,4.342,1.39,2.431a29.075,29.075,0,0,1,2.8,3.127c1.208,1.585,2.517,3.775,1.888,5.211,2.2,3.383,7.42,9.968,7.641,10.246l.175,6.253c-.028.091-2.771,9.045-1.736,10.943a21.559,21.559,0,0,0-.606,2.911c-.9,5.235-2.581,14.978-8.749,14.978a7.57,7.57,0,0,1-2.629-.52,12.364,12.364,0,0,0-4.169-1.562l-1.911,2.258a20.2,20.2,0,0,0-.63,3.126c-.178,1.545-.184,3.613.8,4.69a16.856,16.856,0,0,1-2.273,3.11c-1.71,2.034-3.479,4.138-2.927,5.9.359,1.145,1.662,2.005,3.983,2.63a90.691,90.691,0,0,1,8.087,9.008c2.163,2.8,4.694,6.573,4.468,8.681a1.58,1.58,0,0,1-.745,1.244c-.524.324-1.122.751-1.756,1.2-1.956,1.394-4.39,3.128-6.438,3.128-2.21,0-3.564-1.984-4.138-6.068l-3.126-5.558c.011-.029,1.045-2.844-.16-4.576a3.689,3.689,0,0,0-3.243-1.332c-.078,0-.161,0-.245,0-4.967-.856-6.929-2.072-6.948-2.084v-5.906a11.716,11.716,0,0,0-6.255-1.855c-3.465,0-6.678,1.618-9.55,4.808L568.7,185.06l-1.391-2.084c0-.042.317-4.181-.818-5.407a.983.983,0,0,0-.741-.342c-.882,0-2.111,1.116-3.652,3.317l-2.084.869.174,2.952c-.3.2-2.92,1.914-4.922,1.914a2.552,2.552,0,0,1-.983-.177l1.389,2.432,6.427,1.911a8.5,8.5,0,0,0,.626,2.235,3.279,3.279,0,0,0,2.893,2.235,6.541,6.541,0,0,0,3.776-1.691l4.863,1.042c.061,0,6.09.168,6.226,1.312.081.69-1.955,1.593-6.052,2.682l-1.735,3.3-3.3,2.606.174,3.3h.005a16.688,16.688,0,0,1,3.816,1.5,11.249,11.249,0,0,1,5.385,5.8l3.3,5.557a32.952,32.952,0,0,1,3.365,2.888c1.446,1.446,3,3.415,2.193,4.581a29.888,29.888,0,0,0-2.432,4.168l.017,0a8.565,8.565,0,0,1,1.272-.095A4.774,4.774,0,0,1,589.913,233a3.418,3.418,0,0,1,.847,2.6,46.2,46.2,0,0,1-.695,7.122l-1.39,3.3-3.3,7.3v3.126l-3.126,4.169-.521,2.779-6.253,5.21-9.032,5.037c-.054.113-1.344,2.779-2.856,2.779-.9,0-1.688-.935-2.353-2.779-1.027,2.4-2.591,2.776-2.606,2.779l-4.69,1.736-5.73,1.042v.009c.009.464.06,4.557-.862,5.5a.588.588,0,0,1-.426.2c-.836,0-2.04-1.921-3.576-5.712l-5.559-1.39-3.473,1.737v1.737a19.139,19.139,0,0,0-2.7,2.59,11.568,11.568,0,0,0-2.991,6.247,7.48,7.48,0,0,0,2.394,5.927c6.82,6.99,8.667,8.669,8.684,8.684l6.427,9.205.695,4.343,2.433,6.6-.522,4.342a7.911,7.911,0,0,1-1.39,3.061,17.475,17.475,0,0,1-7.643,5.8l-1.911-.694-1.041,3.647-3.474,3.3c-.022.037-2.25,3.721-3.449,3.721a.6.6,0,0,1-.546-.421c-.861-1.894-1.212-7.929-1.216-7.99-.008-.011-.83-1.178-1.792-1.178a1.5,1.5,0,0,0-1.16.656,23.08,23.08,0,0,0-4.69-3.125l-.174-2.953-6.427-7.122-4.863-.174-.869-4.342-3.126.348.346,6.774c-.034.124-3.4,12.407-2.469,13.625a.225.225,0,0,0,.184.1l.028,0a4.749,4.749,0,0,1,.527-.028,8.519,8.519,0,0,1,2.773.549l1.217,5.285a34.636,34.636,0,0,0,1.629,3.686c.876,1.682,2.172,3.686,3.373,3.686a1.107,1.107,0,0,0,.555-.152c2.577,3.435,3.294,3.475,3.3,3.475a10.716,10.716,0,0,1,2.063.89c.931.534,2.022,1.416,1.932,2.583l3.474,4.864.348,7.3c.044.091,1.085,2.253,2,4.663.831,2.2,1.7,5.021,1.11,5.961A.708.708,0,0,1,526.7,385.341ZM257.137,144.862a11.011,11.011,0,0,0-5.59,1.862,16.092,16.092,0,0,0-2.432,1.861l-5.153,3.358-1.911,4.4,3.82,3.7v2.663l.348,1.159,6.485,7.642a40.382,40.382,0,0,1,4.4,5.79c1.724.844,2.557,1.624,2.475,2.317-.121,1.019-2.222,1.5-2.243,1.5l-.115,4.4-1.506,2.663,2.2,5.095,4.053.579a8.829,8.829,0,0,0,3.412,3.786,8.128,8.128,0,0,0,4.111,1.039c3.556,0,7.094-1.935,7.993-2.972a17.707,17.707,0,0,1-1.158-6.6c0-2.747-3.209-4.613-3.242-4.631l-.348-1.273c-.361-.191-.663-.349-.915-.482-1.294-.678-1.294-.678-1.372-.988a6.329,6.329,0,0,0-1.533-2.468,4.078,4.078,0,0,1,4.291-3.533,8.945,8.945,0,0,1,3.12.638l-2.663-4.516-1.969-.81c-.216.5-1.8.61-3.09.61-.636,0-1.138-.027-1.193-.03l-1.043-4.748-4.4-1.852a31.137,31.137,0,0,0-3.127-4.053c-1.594,0-3.914-2.867-3.937-2.9l.231-1.39,2.433-.579a4.512,4.512,0,0,1,1.5-3.01,2.722,2.722,0,0,1,1.158-.579l6.136-.116-.927-1.852-.462-2.548v-2.894c0-.672-.349-.772-.558-.772-.408,0-.925.375-.925.605,0,.076.056.167.324.167.252,0,.415.068.415.174,0,.184-.5.443-1.6.443a14.039,14.039,0,0,1-3.68-.618A6.621,6.621,0,0,0,257.137,144.862Z" transform="translate(579.557 22.15)"/>
      <path id="Fill-78" class="cls-3" d="M.246,1.621,3.835,0s0,5.674-1.042,5.905S-.8,4.747.246,1.621" transform="translate(659.483 188.336)"/>
      <path id="Fill-80" class="cls-3" d="M3.177,0,5.095,3.474v7.411L1.853,12.969,0,2.547Z" transform="translate(658.223 195.631)"/>
      <path id="Fill-82" class="cls-3" d="M1.463.007s4.053.811.463,2.547S.726-.2,1.463.007" transform="translate(633.139 203.498)"/>
      <path id="Fill-84" class="cls-3" d="M58.36,7.708l3.358,3.59h6.832s1.042-1.158,3.126,0H75.96s3.59-4.4,5.326-2.895l2.2-3.011L87.423,3.54h5.442S101.9,1.224,104.1,1.571a10.127,10.127,0,0,1,3.359,1.042s4.168-.187,4.053-1.078c1.853-.543,10.291,0,10.291,0s3.488-2.164,5.572-1.354,1.505,1.505,1.505,1.505l2.084-.232s2.2.232,1.042,2.663L130.846,6.55l1.494,3.011a9.276,9.276,0,0,1-3.347,6.369l.347,2.432,1.389.695s7.758,5.558,9.495,4.979a25.716,25.716,0,0,1,5.674-.579s5.442-.579,7.295,7.063c4.4.695,4.979.811,4.979.811a21.041,21.041,0,0,1,8.684,4.516l4.4-.463s2.316-4.168,0-5.442c1.273-4.284,2.894-5.211,2.894-5.211l3.706-.811s2.663-2.084,8.336.695l1.505,1.853,2.317.579s7.642,2.316,6.137,2.663a16.032,16.032,0,0,1,4.4.347l12.158,3.474s1.505.464,8.684-3.59l6.369,2.084,8.684,1.187,3.213,10.334s-2.634,4.691-2.055,6.195a17.153,17.153,0,0,1-4.284-2.315s-7.294-11.927-1.042,1.158S239.662,61.9,239.662,61.9l5.125,13.779s8.569-2.2,9.494,23.737l4.054,2.663s3.473.695,4.632,9.148l2.895,5.441,5.79,2.779s1.042-1.736,3.59,3.705l3.358,3.475,3.358,3.242v1.042l2.084,2.316-.347,3.937,4.632,4.632s6.254-.232,5.79-1.853l1.737.232s4.4,1.5,6.368-2.432l2.779.463,1.969-.579,3.821-.463,2.431-1.274,1.621-.232s4.4-4.053,4.98.116V143.3l-.579,4.517s-11.58,24.779-12.274,26.4c-1.621,1.505-8.454,13.2-15.864,14.879-4.516,3.995-13.2,14.533-13.548,16.5l-.347,1.968s-4.863.926-6.833,5.211-3.01,6.369-3.01,6.369a73.486,73.486,0,0,1-3.59,7.179l.232,4.284s3.474,2.432,2.779,3.358-1.968,3.243-1.968,3.243,1.042,4.052.347,5.21c.346,1.737,1.042,6.021,1.042,6.021s5.442,4.632,4.516,6.022a10.229,10.229,0,0,0-1.042,4.167l1.042,18.179s-.811,8.338-17.253,16.1l-4.284,5.326s-5.791,4.516-6.833,6.021c.463,2.432,1.042,7.874,2.9,10.191-.117,3.589-.347,7.757-.347,7.757s.463,7.526-11.348,10.538l-1.737,1.388.346,6.022-2.895,9.263s-9.147,7.526-10.19,13.779c-3.59,3.126-7.758,7.642-7.758,7.642l-6.948,5.674s-5.789.347-5.094,1.505l-3.358.116-2.895,1.274H181.91s-1.5,2.547-4.979,1.042a17.206,17.206,0,0,0-4.4,2.085l-5.905-2.085-2.2-1.62.231-2.317-2.895-4.632,2.2-1.505.348-3.474a20.8,20.8,0,0,1-4.98-12.737l-2.2-3.821s-8.105-4.284-8.105-19.684l-1.389-3.821s-.347-6.138,1.274-9.612l-3.937-4.168s-8.337-18.411-9.842-19.916c.347-9.495.347-10.422.347-10.422s4.053-12.273,3.937-14.011c1.968-3.473,5.558-5.557,5.674-8.452s.116-4.98.116-4.98l-3.821-8.915,1.853-4.169-5.211-11.695-.232-1.505s-1.505-2.547-.695-3.011a4.043,4.043,0,0,0-1.158-2.316v-1.389s-13.779-15.516-13.2-18.527,1.389-5.674,1.389-5.674,1.505-5.061.116-7.22a59.277,59.277,0,0,0,2.432-8.759l-1.968-5.1-2.2-.231-1.737-2.548-11.926,1.158s-1.389-9.611-9.843-10.884c-8.105.579-9.262.348-9.262.348L88.7,165.881H87.307L85.571,167.5l-3.358.231-10.769,5.212-3.821-1.738s-1.853,1.738-6.369-.811l-2.663.463-4.168.927s-7.642,4.284-10.19,3.589-12.042-9.147-12.042-9.147-4.748-1.042-5.1-5.442c-5.905-2.663-6.484-3.242-6.484-3.242l-2.084-3.937v-3.358l-6.484-8.105-3.126-3.127-1.389-2.431-2.432-.347s-3.011-3.59-3.011-4.98a28.106,28.106,0,0,1,1.274-5.21L0,120.258l3.705-7.874s3.937-12.969,2.2-14.59a22.14,22.14,0,0,1-.463-4.747L4.053,87.952l-1.505-.116.695-6.716,2.663-3.126s1.158-6.947,7.295-9.958c.811-8.105.811-8.684.811-8.684l6.137-3.474s.7-7.759,4.863-7.759H29.18l8.684-10.073-.233-6.6,2.78-3.59.116-3.126s5.211-1.505,5.905-4.747a48.648,48.648,0,0,0,4.979-2.432l1.737-3.59s2.895-3.705,5.211-6.253" transform="translate(537.683 216.639)"/>
      <path id="Fill-86" class="cls-3" d="M7.642,21.946l7.51-1.878s8.45-3.755,9.2-11.078L27.17,6.737S29.8-7.908,33.178,5.987L34.868,18l-2.253.752L32.427,24.2,30.55,26.64l-.188,4.694L19.847,61.377l-3.568,7.135L10.834,70.39s-1.5,2.817-4.695,0L2.948,67.573,1.257,57.809S-2.31,52.74,2.573,48.984c2.44-5.82,2.44-6.571,2.44-6.571s.564-12.393-.751-13.332c1.691-1.878,3.38-7.135,3.38-7.135" transform="translate(817.736 478.687)"/>
      <path id="Fill-88" class="cls-3" d="M0,0,5.211,6.426l3.3,1.216s4.691,7.295,6.426,7.643c1.737,3.125,3.647,6.6,3.647,6.6l6.427,3.648h-3.3l.695,5.384L31.09,39.6H28.833l.346,2.605s-2.257.521-4.167-2.084S20.5,33.175,20.5,33.175s-1.388-3.3-3.126-4.168a8.026,8.026,0,0,1-.695-3.474l-7.642-10.6L2.779,9.205,0,4.864Z" transform="translate(1189.422 129.397)"/>
      <path id="Fill-90" class="cls-3" d="M0,0,16.327,6.774l2.606-1.389,1.388,3.3s5.559,4.168,0,4.342c-3.3,1.216-3.647,2.432-3.647,2.432l.174,1.911-6.6-2.258H5.905s4.169,5.905-.347,4.863a19.281,19.281,0,0,1-2.953-3.647L0,14.242l1.563-4.193,2.432.893L3.474,6.774Z" transform="translate(1217.907 174.731)"/>
      <path id="Fill-92" class="cls-3" d="M25.706,0,30.4,3.474l3.995,6.947.695,2.953s2.084,2.259,0,3.822l.869,1.911.057,4.342L38.6,26.575s.136,8.511-1.428,6.6l-1.563-1.911-1.562,2.19H32.153L29.875,35.78l-5.212-1.738s-1.736.175,0,2.433l-1.562,3.3v1.737a5.323,5.323,0,0,1-4.691-3.821,5.523,5.523,0,0,0-4.167-2.432s-6.775,0-6.775,1.737L6.6,38.733H0L3.821,32.48,6.253,30.57h5.038l4.515-1.737,1.737,1.389.868-2.605.889-5.733,2.063,1.738L27.2,18.411V10.942L24.49,6.6,23.8,1.563Z" transform="translate(1202.102 195.573)"/>
      <path id="Fill-94" class="cls-3" d="M3.473,1.563,6.078,0,8.336,1.563V4.168l-2.431.695L4.167,7.121,0,5.211,1.215,1.737Z" transform="translate(1209.571 232.916)"/>
      <path id="Fill-96" class="cls-3" d="M3.821,0,8.337,1.65,11.29,4.429V8.771L8.511,12.94l-3.3-3.126L4.863,6.469,0,2.518Z" transform="translate(1198.281 236.477)"/>
      <path id="Fill-98" class="cls-3" d="M1.216,2.007s4.343-4.516,5.905,0L6.253,5.828,6.079,10,5.037,15.207s-2.605.868-3.821-2.779L0,8.781Z" transform="translate(1169.1 281.105)"/>
      <path id="Fill-100" class="cls-3" d="M8.59.232,6.854,7.874,1.817,8.916S-2.7.753,2.51.232s6.08,0,6.08,0" transform="translate(1121.257 308.934)"/>
      <path id="Fill-102" class="cls-3" d="M1.216,0H7.642L9.38,4.863l1.562,3.647-1.911,3.3s-3.3,7.295.868,9.9l4.343.174,5.383,1.738,1.217,4.863L16.5,26.748l-3.474-.521L9.554,23.1l-4.168.346S4.517,20.5,2.433,20.67C.868,18.584,0,17.2,0,17.2V10.942l1.911.868Z" transform="translate(1175.006 317.155)"/>
      <path id="Fill-104" class="cls-3" d="M0,0S4.689,8.684,5.384,5.732,3.473.347,0,0" transform="translate(1178.48 343.035)"/>
      <path id="Fill-106" class="cls-3" d="M0,0,3.821,2.605,0,6.079Z" transform="translate(1188.38 352.588)"/>
      <path id="Fill-108" class="cls-3" d="M5.558,0l.867,4.082L3.646,8.771,0,6.687,3.212,2.171Z" transform="translate(1190.291 355.628)"/>
      <path id="Fill-110" class="cls-3" d="M0,0V4.516l2.779,4.69s1.736-2.779,0-4.6A15.751,15.751,0,0,1,0,0" transform="translate(1198.975 352.588)"/>
      <path id="Fill-112" class="cls-3" d="M0,0,5.114,6.249V0Z" transform="translate(1197.412 349.379)"/>
      <path id="Fill-114" class="cls-3" d="M.071,12.711.766,8.543,3.979,7.5,6.325,5.59,9.45,7.5l2.78-4.69h2.257V.032s3.3-.694,4.342,4.342a85.7,85.7,0,0,1,1.39,9.9s-.7,1.564-2.78,0A62.011,62.011,0,0,1,16.4,21.918l-5.172-2.259L9.45,15.664s0-4.863-3.125-3.473a5.876,5.876,0,0,1-2.346-1.233s-4.6,5.922-3.908,1.753" transform="translate(1189.524 362.977)"/>
      <path id="Fill-116" class="cls-3" d="M8.164,0V3.56L0,13.634Z" transform="translate(1167.537 355.628)"/>
      <path id="Fill-118" class="cls-3" d="M0,0S10.248.52,12.332,4.863l2.084,4.342,9.553,8.858,4.342,1.042L32.653,22.6s3.3,1.719,3.995,3.8a3.228,3.228,0,0,0,2.605,2.258l-.695,5.212,3.995.694s1.563,9.379,5.732,7.99V55.407l-.694,4.168H46.027L42.553,60.79l-3.646-5.037-6.08-5.384-4.342-5.905s-6.6-9.9-7.295-11.984-3.822-3.3-3.822-3.3,0-11.29-5.905-11.29L9.552,12.853,5.557,10.42,0,3.821Z" transform="translate(1065.582 384.894)"/>
      <path id="Fill-120" class="cls-3" d="M36.322,0l2.953,5.211,3.647.868,3.995,3.647-4.341,1.737,2.431,2.258-4.69,1.911v4.343l1.3,3.995V27.1l4.081,5.21-4.081.868L39.275,40.3s-5.558,2.952-5.384,4.689.695,4.691.695,4.691L32.849,56.1,29.9,57.838l-3.822,1.043s-2.605-4.863-4.168-3.474a8.783,8.783,0,0,1-2.78-2.258l-3.3,2.6H12.7l-.868-2.6L5.059,53.5,4.19,48.46l-.7-4.863-2.6-.348L.022,35.432s-.347-8.51,1.737-8.858,4.515,1.217,4.515,1.217,2.433,1.042,3.995-5.038A31.063,31.063,0,0,1,15.306,20.5s5.384-.868,6.253-5.905c3.821-4.168,6.079-5.383,6.079-5.383S36.843,1.042,36.322,0" transform="translate(1129.999 377.425)"/>
      <path id="Fill-122" class="cls-3" d="M28.833,0s2.335,6.6-3.87,7.469-6.465,0-6.465,0l-10.16.386s-2.259,6.561,2.084,7.777L13.2,14.07l3.995.52,4.515-1.042s1.564,2.259-2.257,2.953l-3.126,2.085L14.519,19.8l1.635,5.383,1.042,3.3,2.6,3.647-3.473,1.042-2.953,1.737L11.984,30.4l-1.562-2.084s-1.7-6.948-2.671-.521,0,3.474,0,3.474l-.434,5.211L6.223,39.428,2.779,38.386l1.564-7.121-.868-2.953L0,26.575.7,23.8l2.779-2.084V17.2L4.69,14.764l-.521-4.516L6.947,4.863l2.024-.52,2.144-2.519L14.632,3.3,23.97,4Z" transform="translate(1175.006 405.042)"/>
      <path id="Fill-124" class="cls-3" d="M2.605,2.656S8.859-2.052,6.6,3.68L1.043,9.065,0,.206s4.487-1.26,2.605,2.45" transform="translate(1216.17 404.836)"/>
      <path id="Fill-126" class="cls-3" d="M1.467,0s3.3,3.647,0,3.473S1.467,0,1.467,0" transform="translate(1215.398 416.158)"/>
      <path id="Fill-128" class="cls-3" d="M0,0H7.3L6.6,2.866S3.3.261,0,0" transform="translate(1203.144 424.756)"/>
      <path id="Fill-130" class="cls-3" d="M1.737,0,7.121.868l-.7,2.258H0Z" transform="translate(1209.744 431.617)"/>
      <path id="Fill-132" class="cls-3" d="M0,0S12.434.868,10.87,3.126s-4.342,0-4.342,0L0,2.065Z" transform="translate(1219.716 430.053)"/>
      <path id="Fill-134" class="cls-3" d="M0,0H2.605V4.168Z" transform="translate(1191.68 439.259)"/>
      <path id="Fill-136" class="cls-3" d="M2.954,0,8.859,1.563h3.995l1.911,2.605h7.99l1.737-2.084L38.733,4.168s.521,2.085-2.605,2.085L35.78,8.338h2.986l2.561,2.083s12,1.738,1.575,2.78H38.386a22.164,22.164,0,0,0-8.511,0,29.917,29.917,0,0,1-4.819-1.564L18.933,9.553l-6.427-.174L8.859,7.816,6.254,6.6,4.69,5.037,0,3.995Z" transform="translate(1112.13 446.554)"/>
      <path id="Fill-138" class="cls-3" d="M.849,0l2.6,1.911s-.694,2.6-2.6,2.432S.849,0,.849,0" transform="translate(1161.131 457.844)"/>
      <path id="Fill-140" class="cls-3" d="M2.085.026s6.425,1.928,3.82,2.44A20.3,20.3,0,0,1,0,2.465S1.094-.293,2.085.026" transform="translate(1164.584 459.729)"/>
      <path id="Fill-142" class="cls-3" d="M1.664,0h4.59s1.388,2.99-.7,3.231S0,2.71,0,1.615,1.664,0,1.664,0" transform="translate(1169.448 457.844)"/>
      <path id="Fill-144" class="cls-3" d="M2.626,0,7.838,1.638l3.228,1.638s-9.829-.2-10.871,0S2.626,0,2.626,0" transform="translate(1178.459 457.844)"/>
      <path id="Fill-146" class="cls-3" d="M0,0H5.037L7.3,3.127,3.453,2.433,0,1.563Z" transform="translate(1175.006 464.443)"/>
      <path id="Fill-148" class="cls-3" d="M1.057,5.731,6.443,3.709,9.742,0l8.076.769L7.657,5.731,2.273,10.42s-4.168.348-1.216-4.69" transform="translate(1195.486 458.712)"/>
      <path id="Fill-150" class="cls-3" d="M.8,0,3.656,1.217l-1.424,2S-.584,3.214.11,1.607Z" transform="translate(1216.06 421.542)"/>
      <path id="Fill-152" class="cls-3" d="M1.695,0l7.9,8.841.589,6.424S5.29,21.337,3.639,19.45.045,11.494.045,11.494-.427,1.18,1.695,0" transform="translate(991.57 364.599)"/>
      <path id="Fill-154" class="cls-3" d="M0,1.855S4.708,2.114,5.977.842,9.789.115,9.789.115,14.69.3,15.96,2.839a14.168,14.168,0,0,1,1.272,5.566s2.54,8.955,7.8,2.239l1.271-1.816,2.541-1.856,4.538-1.606L47.362,9.839S60.793,14.885,61.883,15.4s8.168,8.164,8.168,8.164v2.084l3.993,1.042L78.4,28.977l1.271,2.9-3.629,1.634,2.541,5.264,3.993,5.99L85.3,43.344l.907,3.316,1.816,1.563,4.9,3.132s-2.36,3.215-5.083,1.762a19.961,19.961,0,0,0-3.994-1.762H79.853s-6.534-2.751-6.716-5.214-2.9-6.082-2.9-6.082-6.171-1.282-6.171-2.551a39.246,39.246,0,0,0-4.356,3.421S57.346,51,44.1,43.344l-2.179-2.932-3.993-.352s-3.449,4.022-6.9,1.643l1.452-3.65,2.359-2.9.908-.182L33.93,29.522s1.452-2.66-8.531-8.046L17.957,19.9s-4.538-5.339-5.264-2.942l-.726,2.4a3.158,3.158,0,0,1-2.9-2.4,12.258,12.258,0,0,0-2.9-4.69s8.712-2.149,8.532-2.432,0-2.764-5.81-1.433L6.341,5.744,1.259,3.759Z" transform="translate(1230.723 417.783)"/>
      <path id="Fill-156" class="cls-3" d="M0,7.39H9.257L11.98,4.356,14.7,2.178V0l3.085,1.089-1.27,3.449L13.977,7.39l-2.9,2.23-7.624.727Z" transform="translate(1313.661 437.14)"/>
      <path id="Fill-158" class="cls-3" d="M2.471,0S-.616,3.743.111,4.651,3.2,3.925,3.56,3.017,2.471,0,2.471,0" transform="translate(1245.665 444.469)"/>
      <path id="Fill-160" class="cls-3" d="M0,0,2.541,7.072l2.54.824V5.174L.727,0Z" transform="translate(1342.522 442.313)"/>
      <path id="Fill-162" class="cls-3" d="M0,0S5.264.441,3.63,2.257A3,3,0,0,1,0,2.983Z" transform="translate(1365.574 463.926)"/>
      <path id="Fill-164" class="cls-3" d="M0,.484S5.627,5.022,5.809,4.3A3.782,3.782,0,0,0,3.994.484,4.57,4.57,0,0,0,0,.484" transform="translate(1359.765 455.17)"/>
      <path id="Fill-166" class="cls-3" d="M151.675,0s4.4,14.345,3.667,17.572l2.64,1.173,3.374,3.667,1.027,6.6v7.774l1.026,6.6,3.814,2.493,4.987,4.694V53.51l1.908,2.2v4.547l4.108,1.613v5.135l3.08,4.254,3.813,5.721s1.761,1.026,2.347-.734a6.892,6.892,0,0,0-1.613,3.227l-.88,4.107-.879,3.667.44,1.614.146,2.934-6.16,12.616a9,9,0,0,0-1.467,3.813c-1.174,2.054-5.135,5.574-5.135,5.574s-13.495,10.855-14.815,15.549a28.759,28.759,0,0,1-4.695,3.667l-.733,2.934-5.135,6.454-9.534,2.348s-5.867,4.694-10.122,5.28a14.246,14.246,0,0,1-3.814-2.935v-1.759l-6.748,3.813s-9.387-2.054-13.348-3.52l-.88-3.961s1.761-8.509,0-8.949l-1.761-.44V129.5l-3.08.88-2.787-.147,2.934-4.548s5.575-3.667,4.988-4.987a15,15,0,0,0-4.548,2.641l-6.161,4.4s-2.934,2.053-3.227-2.493l-.293-4.548-1.026-1.467v-2.639a8.335,8.335,0,0,0-4.841-2.348c-2.934-.293-3.08-1.76-3.08-1.76s-5.134-2.787-10.268-.587-5.72,2.053-5.72,2.053l-10.71,1.467s-4.987,3.374-7.187,3.52-4.108.148-4.108.148-.879,4.254-4.253,4.84a49.589,49.589,0,0,1-9.242.147H22.736a14.808,14.808,0,0,0-7.921,3.521l-3.227,3.08s-8.362.734-8.949-2.2S0,125.829,0,125.829v-3.522s7.334-6.453,6.894-10.267a25.6,25.6,0,0,0-1.32-6.014l.439-11.442L4.694,91.8l.146-3.227L3.226,85.635l.148-5.721s1.32-1.321,1.907-.734a25.8,25.8,0,0,1,1.907,2.641V79.475L6.013,75.016s-1.32-1.849,3.08-7.716l.293-5.574,1.467-1.613,1.32.733,2.935-2.787L20.242,54.1a14.036,14.036,0,0,1,8.215-1.613L30.8,50.138l4.108-.147s.44-2.788,5.574-1.614a33.1,33.1,0,0,1,4.987-1.761s5.428-7.041,6.6-7.187l.587-4.694,4.107-4.4,2.64,3.96s2.787.293,2.2-1.466-.88-2.934-.88-2.934,1.815-1.614,3.475-1.321a16.111,16.111,0,0,0,0-4.547l3.713-.734,1.467-2.934s3.1-.734,3.6-2.347a10.114,10.114,0,0,0,3.585-.734s1.027-2.347,2.934-.293a15.085,15.085,0,0,0,3.227,2.788v2.346l6.895-.146-1.174-2.348s2.641-4.107,2.787-4.548,2.493-.879,2.493-.879V11.265s2.054-3.227,3.961-3.08,8.949.44,7.041-2.787L102.827,2.17l3.08,1.026,10.415,3.521h2.934s-.586,2.054,1.027,1.321L121.9,7.3s4.84-.734,2.2,2.64S121.6,13.9,121.6,13.9l-2.348,1.614V18.6l-2.2,2.2,2.787,2.934,3.814,4.547,5.868,3.814,4.252,3.374,4.254.293a12.266,12.266,0,0,0,3.521-6.308,63.659,63.659,0,0,1,3.08-8.948l2.2-7.481Z" transform="translate(1131.283 471.278)"/>
      <path id="Fill-168" class="cls-3" d="M5.575,0,9.388,1.76,18.336.88S15.4,11.295,7.775,13.5l-2.64,2.053-3.961-.734L0,10.415,1.907,7.774V2.933Z" transform="translate(1240.859 630.111)"/>
      <path id="Fill-170" class="cls-3" d="M.013,28.178l7.335-5.134,7.921-4.84,7.188-3.08S38.006,9.4,37.859,5.294l3.227-.586S47.1-3.947,48.127,2.213L51.5,1.187s-.44,4.694-2.787,5.721S38.006,16.59,38.006,16.59L26.711,18.936S16.443,28.765,10.869,29.645s-6.454,0-6.454,0-4.695.88-4.4-1.467" transform="translate(1318.737 629.95)"/>
      <path id="Fill-172" class="cls-3" d="M0,35.929s5.867-6.308,3.226-7.775L.587,26.688a6.208,6.208,0,0,1,4.987-2.347,41.77,41.77,0,0,0,4.4-5.722L11.588,2.044s-.44-3.522,1.466-1.321,3.667,4.548,3.667,4.548-.587,3.813-1.907,5.721L17.6,12.459v3.815l2.787,1.691s10.414-3.6,2.494,3.3L19.949,23.9s-6.414,1.028-7.021,3.522-5.886,6.747-5.886,6.747S1.613,36.955,0,35.929" transform="translate(1374.493 596.969)"/>
    </g>
    <g id="Pulse" transform="translate(188.188 142.628)">
      <ellipse id="Oval_5" data-name="Oval 5" class="cls-4" cx="75.385" cy="75.345" rx="75.385" ry="75.345" transform="translate(0.872 0.885)"/>
      <ellipse id="Oval_5-2" data-name="Oval 5" class="cls-5" cx="17.205" cy="17.196" rx="17.205" ry="17.196" transform="translate(59.052 59.034)"/>
      <ellipse id="Oval_5-3" data-name="Oval 5" class="cls-6" cx="4.528" cy="4.525" rx="4.528" ry="4.525" transform="translate(71.733 71.705)"/>
    </g>
    <g id="Pulse-2" data-name="Pulse" transform="translate(81.368 211.682)">
      <ellipse id="Oval_5-4" data-name="Oval 5" class="cls-6" cx="4.528" cy="4.525" rx="4.528" ry="4.525" transform="translate(0.263 9.826)"/>
      <ellipse id="Oval_5-5" data-name="Oval 5" class="cls-6" cx="4.528" cy="4.525" rx="4.528" ry="4.525" transform="translate(84.957 59.797)"/>
      <ellipse id="Oval_5-6" data-name="Oval 5" class="cls-6" cx="4.528" cy="4.525" rx="4.528" ry="4.525" transform="translate(120.855 0)"/>
      <ellipse id="Oval_5-7" data-name="Oval 5" class="cls-6" cx="4.528" cy="4.525" rx="4.528" ry="4.525" transform="translate(167.521 191.351)"/>
      <ellipse id="Oval_5-8" data-name="Oval 5" class="cls-6" cx="4.528" cy="4.525" rx="4.528" ry="4.525" transform="translate(520.513 95.676)"/>
      <ellipse id="Oval_5-9" data-name="Oval 5" class="cls-6" cx="4.528" cy="4.525" rx="4.528" ry="4.525" transform="translate(662.906 1.196)"/>
      <ellipse id="Oval_5-10" data-name="Oval 5" class="cls-6" cx="4.528" cy="4.525" rx="4.528" ry="4.525" transform="translate(895.043 133.946)"/>
      <g id="Oval_5-11" data-name="Oval 5" class="cls-7" transform="translate(1141.538 10.764)">
        <ellipse class="cls-8" cx="4.528" cy="4.525" rx="4.528" ry="4.525"/>
        <ellipse class="cls-1" cx="4.528" cy="4.525" rx="5.724" ry="5.722"/>
      </g>
      <ellipse id="Oval_5-12" data-name="Oval 5" class="cls-6" cx="4.528" cy="4.525" rx="4.528" ry="4.525" transform="translate(704.786 295.399)"/>
    </g>
    <g id="Pulse-3" data-name="Pulse" transform="translate(618.633 105.243)">
      <ellipse id="Oval_5-13" data-name="Oval 5" class="cls-4" cx="50.256" cy="50.23" rx="50.256" ry="50.23" transform="translate(-16.752 -16.743)"/>
      <ellipse id="Oval_5-14" data-name="Oval 5" class="cls-5" cx="17.205" cy="17.196" rx="17.205" ry="17.196" transform="translate(16.299 16.291)"/>
      <ellipse id="Oval_5-15" data-name="Oval 5" class="cls-6" cx="4.528" cy="4.525" rx="4.528" ry="4.525" transform="translate(28.981 28.961)"/>
    </g>
    <g id="Pulse-4" data-name="Pulse" transform="translate(406.838 406.622)">
      <ellipse id="Oval_5-16" data-name="Oval 5" class="cls-4" cx="50.256" cy="50.23" rx="50.256" ry="50.23" transform="translate(-16.752 -16.743)"/>
      <ellipse id="Oval_5-17" data-name="Oval 5" class="cls-5" cx="17.205" cy="17.196" rx="17.205" ry="17.196" transform="translate(16.299 16.291)"/>
      <ellipse id="Oval_5-18" data-name="Oval 5" class="cls-6" cx="4.528" cy="4.525" rx="4.528" ry="4.525" transform="translate(28.981 28.961)"/>
    </g>
    <g id="Pulse-5" data-name="Pulse" transform="translate(1067.35 377.919)">
      <ellipse id="Oval_5-19" data-name="Oval 5" class="cls-4" cx="62.821" cy="62.787" rx="62.821" ry="62.787" transform="translate(-13.162 -13.155)"/>
      <ellipse id="Oval_5-20" data-name="Oval 5" class="cls-5" cx="17.205" cy="17.196" rx="17.205" ry="17.196" transform="translate(33.052 33.034)"/>
      <ellipse id="Oval_5-21" data-name="Oval 5" class="cls-6" cx="4.528" cy="4.525" rx="4.528" ry="4.525" transform="translate(45.733 45.705)"/>
    </g>
    <g id="Pulse-6" data-name="Pulse" transform="translate(813.675 278.655)">
      <ellipse id="Oval_5-22" data-name="Oval 5" class="cls-4" cx="62.821" cy="62.787" rx="62.821" ry="62.787" transform="translate(-13.162 -13.155)"/>
      <ellipse id="Oval_5-23" data-name="Oval 5" class="cls-5" cx="17.205" cy="17.196" rx="17.205" ry="17.196" transform="translate(33.052 33.034)"/>
      <ellipse id="Oval_5-24" data-name="Oval 5" class="cls-6" cx="4.528" cy="4.525" rx="4.528" ry="4.525" transform="translate(45.733 45.705)"/>
    </g>
  </g>
</svg>
