<svg id="Layer_1" data-name="Layer 1" xmlns="http://www.w3.org/2000/svg" viewBox="0 0 348.26 368.36"><defs><style>.cls-1,.cls-2{fill:none;stroke-linecap:round;stroke-linejoin:round;}.cls-1{stroke:#00a966;stroke-width:13.85px;}.cls-2{stroke:#000;stroke-width:12.07px;}</style></defs><path class="cls-1" d="M50.24,57.46V281.29a12,12,0,0,0,12,12h73.26a12,12,0,0,1,8.47,3.51l22.59,22.59a12,12,0,0,0,16.95,0L206,296.89a12,12,0,0,1,8.47-3.52h71.22a12,12,0,0,0,12-12L298,57.48a12,12,0,0,0-12-12H62.23A12,12,0,0,0,50.24,57.46Z"/><polyline class="cls-2" points="66.49 273.96 133.48 208.67 172.8 246.99 280.57 141.96"/><polyline class="cls-2" points="66.49 237.05 133.48 171.76 172.8 210.09 280.57 105.06"/><polyline class="cls-2" points="66.49 200.15 133.48 134.86 172.8 173.18 280.57 68.15"/><path class="cls-1" d="M50.24,57.46V281.29a12,12,0,0,0,12,12h73.26a12,12,0,0,1,8.47,3.51l22.59,22.59a12,12,0,0,0,16.95,0L206,296.89a12,12,0,0,1,8.47-3.52h71.22a12,12,0,0,0,12-12L298,57.48a12,12,0,0,0-12-12H62.23A12,12,0,0,0,50.24,57.46Z"/><polyline class="cls-2" points="66.49 273.96 133.48 208.67 172.8 246.99 280.57 141.96"/><polyline class="cls-2" points="66.49 237.05 133.48 171.76 172.8 210.09 280.57 105.06"/><polyline class="cls-2" points="66.49 200.15 133.48 134.86 172.8 173.18 280.57 68.15"/></svg>