<svg id="Layer_1" data-name="Layer 1" xmlns="http://www.w3.org/2000/svg" viewBox="0 0 348.26 368.36"><defs><style>.cls-1,.cls-3{fill:#fff;}.cls-2,.cls-4{fill:none;}.cls-2{stroke:#00a966;stroke-linecap:round;stroke-linejoin:round;stroke-width:13.85px;}.cls-3,.cls-4{stroke:#000;stroke-miterlimit:10;stroke-width:11px;}</style></defs><ellipse class="cls-1" cx="174.2" cy="236.43" rx="51.56" ry="30.6"/><path class="cls-2" d="M50.24,57.46V281.29a12,12,0,0,0,12,12h73.26a12,12,0,0,1,8.47,3.51l22.59,22.59a12,12,0,0,0,16.95,0L206,296.89a12,12,0,0,1,8.47-3.52h71.22a12,12,0,0,0,12-12L298,57.48a12,12,0,0,0-12-12H62.23A12,12,0,0,0,50.24,57.46Z"/><path class="cls-3" d="M202.22,162.79A28.14,28.14,0,0,1,174,191c-15.87,0-28.66-12.35-28.66-28.23s12.79-28.23,28.66-28.23A28.14,28.14,0,0,1,202.22,162.79Z"/><circle class="cls-4" cx="174.13" cy="176" r="86.52"/><path class="cls-4" d="M121.43,242.22c24.25-48.19,81.15-48.91,105.41,0"/></svg>