<?xml version="1.0" encoding="utf-8"?>
<!-- Generator: Adobe Illustrator 16.0.0, SVG Export Plug-In . SVG Version: 6.00 Build 0)  -->
<!DOCTYPE svg PUBLIC "-//W3C//DTD SVG 1.1//EN" "http://www.w3.org/Graphics/SVG/1.1/DTD/svg11.dtd">
<svg version="1.1" id="Layer_1" xmlns="http://www.w3.org/2000/svg" xmlns:xlink="http://www.w3.org/1999/xlink" x="0px" y="0px"
	 width="607.398px" height="98.021px" viewBox="3.602 349.721 607.398 98.021"
	 enable-background="new 3.602 349.721 607.398 98.021" xml:space="preserve">
<path fill="#FFFFFF" d="M102.268,374.622l-40.241-23.229c-3.754-2.229-8.447-2.229-12.202,0L9.702,374.622
	c-3.754,2.229-6.1,6.217-6.1,10.559v26.984c0,4.342,2.346,8.447,6.1,10.559l40.123,23.347c3.755,2.229,8.448,2.229,12.202,0
	l40.241-23.229c3.754-2.229,6.101-6.217,6.101-10.559v-26.983C108.368,380.839,106.022,376.733,102.268,374.622z M79.86,397.029
	c-1.291,6.688-2.464,12.554-6.688,12.554c-6.101,0-5.866-13.727-8.447-22.526c-2.933,10.911-2.112,29.799-8.8,29.799
	c-6.452,0-5.983-15.134-8.798-21.117c-2.347,3.988-2.699,13.844-8.447,13.844c-4.576,0-5.749-4.342-6.688-8.799
	c-0.586-3.168,4.107-4.106,4.693-0.939c0.821,4.107,1.408,4.811,1.76,4.928c2.347-2.346,2.581-14.313,8.799-14.313
	c5.983,0,5.866,12.553,8.447,20.178c3.05-10.558,2.111-29.916,8.799-29.916c6.335,0,5.866,15.017,8.682,22.995
	c0.704-1.877,1.408-5.396,1.877-7.508C75.753,393.04,80.446,393.979,79.86,397.029z"/>
<g>
	<path fill="#FFFFFF" d="M181.717,397.671c0,15.267-9.159,25.037-22.593,25.037c-3.664,0-7.328-0.814-10.789-2.85v17.099h-13.026
		v-56.18c5.088-4.275,13.434-7.328,22.187-7.328C172.558,373.45,181.717,382.202,181.717,397.671z M148.335,386.68v23.408
		c2.443,1.833,4.886,2.646,8.346,2.646c7.532,0,11.806-4.885,11.806-15.063c0-9.362-3.256-13.84-10.787-13.84
		C154.035,383.831,150.982,384.848,148.335,386.68z"/>
	<path fill="#FFFFFF" d="M194.948,369.786c-4.682,0-8.346-3.665-8.346-8.346c0-4.682,3.664-8.549,8.346-8.549
		c4.681,0,8.344,3.868,8.344,8.549C203.293,365.918,199.629,369.786,194.948,369.786z M201.462,421.894h-13.028v-45.594h13.028
		V421.894z"/>
	<path fill="#FFFFFF" d="M255.605,393.601v28.293h-13.028v-28.496c0-5.903-3.052-9.363-8.752-9.363c-3.46,0-6.514,1.221-9.567,3.053
		v34.806h-13.026v-41.116c6.717-4.885,14.859-7.328,23.815-7.328C249.906,373.45,255.605,382.406,255.605,393.601z"/>
	<path fill="#FFFFFF" d="M307.102,380.777v33.789c0,15.063-9.363,23.205-23.815,23.205c-5.089,0-9.771-0.814-13.23-2.647v-9.973
		c3.46,1.627,7.531,3.053,12.01,3.053c9.566,0,12.212-4.478,12.212-12.213v-0.61c-3.663,3.052-7.733,4.274-13.026,4.274
		c-11.602,0-20.355-8.55-20.355-22.391c0-13.027,9.364-23.611,25.037-23.611C294.482,373.45,301.199,376.096,307.102,380.777z
		 M294.278,405.814v-19.542c-2.035-1.832-4.681-2.849-8.345-2.849c-7.124,0-11.603,4.885-11.603,13.026
		c0,8.956,4.275,12.824,10.585,12.824C288.376,409.478,291.226,408.867,294.278,405.814z"/>
	<path fill="#FFFFFF" d="M360.432,398.079c0,14.044-8.549,24.629-23.816,24.629c-15.469,0-24.018-10.585-24.018-24.629
		c0-14.045,8.549-24.629,24.018-24.629C351.883,373.45,360.432,384.034,360.432,398.079z M336.615,412.53
		c7.125,0,10.586-5.088,10.586-14.451s-3.461-14.452-10.586-14.452c-7.326,0-10.787,5.089-10.787,14.452
		S329.289,412.53,336.615,412.53z"/>
	<path fill="#FFFFFF" d="M436.762,393.601v28.293h-13.027v-28.496c0-5.903-1.627-9.363-7.531-9.363c-3.256,0-5.699,1.018-8.346,2.85
		v35.01h-13.025V386.68c-1.426-1.425-4.275-2.646-7.531-2.646c-3.461,0-5.699,1.018-8.346,3.053v34.806h-13.027v-41.116
		c6.309-4.885,13.23-7.328,21.576-7.328c5.088,0,9.77,1.628,13.637,4.071c4.682-2.443,10.178-4.071,15.877-4.071
		C432.692,373.45,436.762,382.406,436.762,393.601z"/>
	<path fill="#FFFFFF" d="M487.649,395.025c0,2.443-0.203,3.665-0.406,5.903h-32.16c1.221,7.735,6.309,11.806,14.654,11.806
		c5.904,0,9.975-1.425,14.859-4.479v10.177c-4.07,2.851-9.16,4.275-16.08,4.275c-16.283,0-26.258-10.178-26.258-26.054
		c0-12.62,8.957-23.205,24.02-23.205C478.49,373.45,487.649,381.999,487.649,395.025z M455.082,392.99h21.371
		c-0.609-6.717-4.477-10.177-10.176-10.177C460.17,382.813,456.1,385.663,455.082,392.99z"/>
	<path fill="#FFFFFF" d="M525.713,386.07h-15.063v18.523c0,5.088,2.238,7.734,6.717,7.734c3.053,0,5.902-0.61,7.734-1.831v9.973
		c-2.238,1.222-6.514,2.239-11.195,2.239c-8.344,0-16.08-4.071-16.08-17.912V386.07h-7.734v-9.771h7.734v-12.62l13.027-3.256v15.876
		h15.063v9.771H525.713z"/>
	<path fill="#FFFFFF" d="M573.953,395.025c0,2.443-0.203,3.665-0.406,5.903h-32.162c1.223,7.735,6.311,11.806,14.656,11.806
		c5.904,0,9.975-1.425,14.859-4.479v10.177c-4.072,2.851-9.16,4.275-16.08,4.275c-16.285,0-26.258-10.178-26.258-26.054
		c0-12.62,8.957-23.205,24.018-23.205C564.793,373.45,573.953,381.999,573.953,395.025z M541.385,392.99h21.373
		c-0.611-6.717-4.479-10.177-10.178-10.177C546.475,382.813,542.405,385.663,541.385,392.99z"/>
	<path fill="#FFFFFF" d="M611,374.875v11.398c-2.443-1.018-5.09-1.832-8.346-1.832c-3.461,0-6.717,0.814-9.566,2.849v34.603h-13.029
		v-41.116c4.684-4.478,12.621-7.328,20.764-7.328C604.281,373.45,607.539,374.061,611,374.875z"/>
</g>
</svg>
