<svg width="22" height="14" viewBox="0 0 22 14" version="1.1" xmlns="http://www.w3.org/2000/svg" xmlns:xlink="http://www.w3.org/1999/xlink">
<title>Group</title>
<desc>Created using Figma</desc>
<g id="Canvas" transform="translate(-3993 -594)">
<g id="Group">
<g id="Stroke 3">
<use xlink:href="#path0_stroke" transform="translate(4008 596)" fill="#FFFFFF"/>
</g>
<g id="Stroke 3">
<use xlink:href="#path0_stroke" transform="matrix(-1 0 0 1 4000 596)" fill="#FFFFFF"/>
</g>
</g>
</g>
<defs>
<path id="path0_stroke" d="M 0.736511 -0.736628C 0.329682 -1.14339 -0.329865 -1.14334 -0.736628 -0.736511C -1.14339 -0.329682 -1.14334 0.329865 -0.736511 0.736628L 0.736511 -0.736628ZM 5 4.9992L 5.73663 5.73571C 5.93196 5.54035 6.04169 5.27539 6.04167 4.99912C 6.04164 4.72285 5.93188 4.45791 5.73651 4.26257L 5 4.9992ZM -0.736628 9.26349C -1.14339 9.67032 -1.14334 10.3299 -0.736511 10.7366C -0.329682 11.1434 0.329865 11.1433 0.736628 10.7365L -0.736628 9.26349ZM -0.736511 0.736628L 4.26349 5.73583L 5.73651 4.26257L 0.736511 -0.736628L -0.736511 0.736628ZM 4.26337 4.26269L -0.736628 9.26349L 0.736628 10.7365L 5.73663 5.73571L 4.26337 4.26269Z"/>
</defs>
</svg>
