<svg width="174" height="39" viewBox="0 0 174 39" fill="none" xmlns="http://www.w3.org/2000/svg">
<path d="M0.84375 14.1577H16.685H26.3191V4.56714L0.84375 14.1577Z" fill="#FF9D28"/>
<path d="M26.3203 4.56737V38.4384L38.3524 0.0334473L26.3203 4.56737Z" fill="#68C5ED"/>
<path d="M26.3178 14.158H16.6836L26.3178 38.4384V14.158Z" fill="#044D80"/>
<path d="M0.84375 14.158L19.1572 20.3881L16.685 14.158H0.84375Z" fill="#E54747"/>
<path d="M59.2 29.5192C59.0621 29.6579 58.8287 29.8392 58.4997 30.0419C58.1708 30.2553 57.7464 30.458 57.2265 30.6713C56.7066 30.8847 56.0594 31.0661 55.306 31.2154C54.5527 31.3648 53.6827 31.4394 52.7065 31.4394C50.8179 31.4394 49.1945 31.1301 47.8258 30.5327C46.457 29.9246 45.3217 29.0818 44.4198 27.9937C43.5286 26.9055 42.8707 25.6147 42.4463 24.1318C42.0325 22.649 41.8203 21.0168 41.8203 19.2352C41.8203 17.4536 42.0431 15.8107 42.4994 14.3066C42.9556 12.8024 43.6347 11.4902 44.5366 10.3914C45.449 9.29257 46.5737 8.42846 47.9425 7.80971C49.3006 7.19097 50.9028 6.88159 52.7383 6.88159C53.6508 6.88159 54.4678 6.96694 55.1999 7.12696C55.932 7.29765 56.5793 7.50034 57.1204 7.7137C57.6615 7.93773 58.1178 8.17243 58.4785 8.41779C58.8393 8.66316 59.1151 8.86585 59.2955 9.03654C59.5077 9.22856 59.6881 9.44192 59.8366 9.69796C59.9852 9.95399 60.0595 10.2314 60.0595 10.5407C60.0595 11.0101 59.8897 11.4795 59.5396 11.9489C59.1894 12.4183 58.8074 12.845 58.383 13.2504C58.1072 12.973 57.7889 12.685 57.4387 12.3863C57.0886 12.0983 56.696 11.8422 56.2716 11.6182C55.8366 11.3942 55.3485 11.2128 54.8074 11.0528C54.2556 10.9034 53.6508 10.8288 52.9718 10.8288C51.7834 10.8288 50.786 11.0741 49.9903 11.5435C49.1839 12.0236 48.5473 12.653 48.0486 13.4211C47.5499 14.1892 47.2104 15.0747 46.9982 16.0668C46.7859 17.0589 46.6798 18.0724 46.6798 19.0965C46.6798 20.1953 46.7859 21.2515 46.9982 22.2542C47.2104 23.257 47.5711 24.1532 48.0804 24.9213C48.5897 25.6894 49.2582 26.3081 50.0858 26.7775C50.9134 27.2469 51.9426 27.4816 53.1734 27.4816C53.8206 27.4816 54.4254 27.3962 54.9665 27.2362C55.5076 27.0762 55.9957 26.8735 56.4095 26.6388C56.8233 26.4041 57.1947 26.1588 57.513 25.9027C57.8313 25.6467 58.0859 25.4227 58.2982 25.2306C58.4361 25.3907 58.5952 25.5933 58.7862 25.828C58.9772 26.0627 59.147 26.3081 59.3061 26.5641C59.4653 26.8202 59.6032 27.0762 59.7199 27.3322C59.8367 27.5883 59.8897 27.823 59.8897 28.0363C59.8897 28.3457 59.8367 28.6017 59.7199 28.8044C59.6457 29.0285 59.4547 29.2632 59.2 29.5192ZM77.1845 26.8308C77.1845 28.6871 77.4498 30.0419 77.9909 30.8847C77.5665 31.0447 77.1739 31.1621 76.8132 31.2367C76.4524 31.3114 76.0704 31.3434 75.6673 31.3434C74.829 31.3434 74.1818 31.1834 73.7574 30.8527C73.3224 30.522 73.0465 30.0526 72.9298 29.4445C72.4099 29.9886 71.7414 30.4473 70.8926 30.8207C70.0544 31.1941 69.0252 31.3861 67.805 31.3861C67.1684 31.3861 66.5424 31.3008 65.9058 31.1194C65.2691 30.938 64.6962 30.6607 64.1869 30.2553C63.667 29.8606 63.2532 29.3272 62.9243 28.6551C62.5953 27.983 62.4362 27.1722 62.4362 26.2121C62.4362 25.0173 62.7227 24.0465 63.2956 23.289C63.8686 22.5423 64.5901 21.9449 65.4495 21.5075C66.3196 21.0701 67.2533 20.7714 68.2613 20.6114C69.2692 20.4514 70.1923 20.3447 71.0305 20.2913C71.3064 20.27 71.5823 20.2593 71.8582 20.2593H72.6115V19.6192C72.6115 18.7125 72.3674 18.0724 71.89 17.6883C71.4125 17.3043 70.6274 17.1123 69.5557 17.1123C68.5477 17.1123 67.6565 17.2723 66.8713 17.603C66.0861 17.9337 65.3222 18.3071 64.5689 18.7338C64.2399 18.3391 63.9747 17.891 63.7837 17.411C63.5821 16.9309 63.4866 16.5682 63.4866 16.3335C63.4866 16.0028 63.667 15.6827 64.0277 15.384C64.3885 15.0747 64.8872 14.7973 65.5238 14.5519C66.1604 14.3066 66.8819 14.1039 67.6989 13.9545C68.5159 13.8052 69.3859 13.7198 70.2984 13.7198C71.5611 13.7198 72.6327 13.8478 73.5134 14.1039C74.394 14.3599 75.1049 14.7653 75.6567 15.2987C76.2084 15.8428 76.601 16.5148 76.8344 17.3256C77.0678 18.1364 77.1845 19.0858 77.1845 20.1633V26.8308ZM72.6858 22.7343H72.1977C72.0385 22.7343 71.8688 22.745 71.7096 22.7663C71.126 22.809 70.5425 22.8837 69.9695 22.9797C69.3966 23.0757 68.8873 23.2357 68.4416 23.4704C67.996 23.7051 67.6352 24.0145 67.3488 24.3879C67.0729 24.7612 66.9243 25.252 66.9243 25.8387C66.9243 26.5001 67.1153 27.0549 67.4867 27.5136C67.8581 27.9723 68.4947 28.207 69.3859 28.207C69.8316 28.207 70.256 28.1537 70.6486 28.0257C71.0412 27.9083 71.4019 27.759 71.699 27.5669C72.0067 27.3749 72.2401 27.1722 72.4205 26.9482C72.6009 26.7242 72.6858 26.5215 72.6858 26.3294V22.7343ZM85.9168 15.7787C86.2882 15.3307 86.8718 14.8826 87.6675 14.4239C88.4633 13.9652 89.4607 13.7305 90.6809 13.7305C91.5403 13.7305 92.3679 13.8798 93.1531 14.1679C93.9382 14.4666 94.6279 14.936 95.2327 15.5974C95.8375 16.2588 96.3256 17.1229 96.6863 18.2111C97.0471 19.2885 97.2274 20.622 97.2274 22.2009C97.2274 24.0358 97.0152 25.5507 96.6014 26.7348C96.177 27.919 95.6359 28.8684 94.9781 29.5619C94.3096 30.2553 93.5669 30.746 92.7605 31.0234C91.9435 31.3008 91.1265 31.4501 90.3095 31.4501C89.6305 31.4501 89.0469 31.3754 88.5376 31.2154C88.0389 31.0661 87.6145 30.8954 87.2643 30.7033C86.9142 30.5113 86.649 30.33 86.458 30.1379C86.267 29.9459 86.1503 29.8179 86.1078 29.7539V38.4377H81.3332V14.2319C81.4499 14.2105 81.5878 14.1892 81.7576 14.1572C81.8955 14.1359 82.0653 14.1145 82.2563 14.1039C82.4473 14.0932 82.6701 14.0825 82.9247 14.0825C83.6993 14.0825 84.3677 14.2105 84.9089 14.4666C85.4394 14.7333 85.7789 15.1707 85.9168 15.7787ZM92.2406 22.3076C92.2406 21.6035 92.1875 20.9421 92.0708 20.334C91.9541 19.7259 91.7631 19.1925 91.4979 18.7445C91.2326 18.2964 90.8719 17.955 90.4156 17.699C89.9594 17.4536 89.4076 17.3256 88.7604 17.3256C87.7843 17.3256 87.1052 17.5176 86.7232 17.891C86.3413 18.2644 86.1503 18.6805 86.1503 19.1285V26.6068C86.3413 26.7988 86.6702 27.0229 87.1476 27.2789C87.6251 27.5349 88.1768 27.663 88.8028 27.663C89.9912 27.663 90.8613 27.1936 91.4236 26.2548C91.9647 25.3266 92.2406 24.0038 92.2406 22.3076ZM100.909 28.3884C100.75 27.919 100.644 27.4283 100.591 26.9055C100.548 26.3935 100.517 25.8707 100.517 25.348V8.97253C100.676 8.95119 100.856 8.92986 101.047 8.89785C101.206 8.87652 101.387 8.85518 101.578 8.84451C101.769 8.83384 101.949 8.82318 102.14 8.82318C102.511 8.82318 102.893 8.85518 103.265 8.92986C103.636 9.00453 103.976 9.14322 104.283 9.35658C104.591 9.56994 104.835 9.85798 105.015 10.2207C105.206 10.5834 105.291 11.0635 105.291 11.6502V14.1572H110.204V17.7203H105.291V25.2413C105.291 26.8842 105.96 27.7056 107.297 27.7056C107.626 27.7056 107.933 27.6523 108.23 27.5456C108.527 27.4389 108.782 27.3216 109.016 27.1936C109.249 27.0655 109.451 26.9269 109.631 26.7882C109.811 26.6495 109.928 26.5428 110.002 26.4681C110.352 26.9909 110.618 27.4389 110.809 27.8123C111 28.1964 111.085 28.5484 111.085 28.8791C111.085 29.1885 110.957 29.4872 110.713 29.7859C110.469 30.0846 110.119 30.3513 109.673 30.6073C109.228 30.8527 108.687 31.0554 108.061 31.2154C107.424 31.3648 106.734 31.4501 105.992 31.4501C104.538 31.4501 103.413 31.1727 102.607 30.6073C101.8 30.0419 101.238 29.3058 100.909 28.3884ZM122.3 27.9297C122.883 27.9297 123.403 27.8656 123.849 27.7376C124.294 27.6096 124.698 27.4496 125.048 27.2576C125.398 27.0655 125.706 26.8628 125.96 26.6388C126.215 26.4148 126.448 26.2121 126.66 26.0201C126.947 26.3721 127.233 26.8308 127.541 27.3749C127.849 27.9297 127.997 28.3777 127.997 28.7298C127.997 29.2525 127.7 29.7219 127.117 30.1379C126.629 30.5113 125.928 30.842 125.026 31.1087C124.125 31.3754 123.064 31.5141 121.854 31.5141C120.751 31.5141 119.668 31.3754 118.607 31.0874C117.546 30.81 116.591 30.3086 115.764 29.6045C114.936 28.9004 114.257 27.951 113.748 26.7668C113.228 25.5827 112.973 24.0785 112.973 22.2649C112.973 20.7821 113.207 19.5019 113.652 18.4351C114.108 17.3683 114.713 16.4722 115.477 15.7681C116.241 15.064 117.101 14.5413 118.056 14.2105C119.01 13.8798 119.997 13.7198 121.005 13.7198C122.31 13.7198 123.424 13.9225 124.337 14.3386C125.249 14.7546 125.992 15.2987 126.565 15.9921C127.138 16.6855 127.552 17.4856 127.806 18.3711C128.061 19.2672 128.188 20.206 128.188 21.1981V21.6888C128.188 21.8809 128.178 22.0729 128.167 22.2863C128.157 22.4996 128.146 22.7023 128.135 22.905C128.125 23.1077 128.104 23.2677 128.082 23.3851H117.727C117.822 24.6759 118.215 25.7534 118.926 26.6175C119.658 27.4923 120.772 27.9297 122.3 27.9297ZM123.902 20.7607C123.902 19.6299 123.679 18.7125 123.244 18.0084C122.809 17.3043 122.024 16.9522 120.899 16.9522C119.934 16.9522 119.159 17.2829 118.586 17.955C118.013 18.6271 117.727 19.5659 117.727 20.7607H123.902ZM136.528 15.8748C136.666 15.6614 136.857 15.4267 137.09 15.1707C137.324 14.9146 137.61 14.6799 137.95 14.4666C138.289 14.2532 138.661 14.0825 139.075 13.9438C139.488 13.8052 139.923 13.7305 140.39 13.7305C140.666 13.7305 140.974 13.7518 141.282 13.8052C141.6 13.8478 141.886 13.9438 142.162 14.0719C142.427 14.1999 142.65 14.3706 142.809 14.5946C142.969 14.8186 143.053 15.0853 143.053 15.416C143.053 15.9281 142.926 16.5148 142.671 17.1869C142.417 17.8483 142.152 18.4244 141.897 18.8938C141.494 18.5631 141.101 18.3071 140.709 18.1364C140.305 17.955 139.839 17.8697 139.308 17.8697C138.587 17.8697 137.971 18.083 137.483 18.5098C136.995 18.9365 136.74 19.4379 136.74 20.0353V31.4608H131.966V14.2319C132.082 14.2105 132.22 14.1892 132.39 14.1572C132.528 14.1359 132.698 14.1145 132.878 14.1039C133.069 14.0932 133.292 14.0825 133.547 14.0825C134.3 14.0825 134.947 14.2319 135.499 14.5199C136.04 14.8186 136.39 15.2667 136.528 15.8748ZM150.099 15.8748C150.237 15.6614 150.428 15.4267 150.661 15.1707C150.894 14.9146 151.181 14.6799 151.52 14.4666C151.86 14.2532 152.231 14.0825 152.645 13.9438C153.059 13.8052 153.494 13.7305 153.961 13.7305C154.237 13.7305 154.544 13.7518 154.852 13.8052C155.17 13.8478 155.457 13.9438 155.733 14.0719C155.998 14.1999 156.221 14.3706 156.38 14.5946C156.539 14.8186 156.624 15.0853 156.624 15.416C156.624 15.9281 156.497 16.5148 156.242 17.1869C155.987 17.8483 155.722 18.4244 155.468 18.8938C155.064 18.5631 154.672 18.3071 154.279 18.1364C153.876 17.955 153.409 17.8697 152.879 17.8697C152.157 17.8697 151.542 18.083 151.054 18.5098C150.566 18.9365 150.322 19.4379 150.322 20.0353V31.4608H145.547V14.2319C145.664 14.2105 145.802 14.1892 145.971 14.1572C146.109 14.1359 146.279 14.1145 146.459 14.1039C146.65 14.0932 146.873 14.0825 147.128 14.0825C147.881 14.0825 148.528 14.2319 149.08 14.5199C149.611 14.8186 149.961 15.2667 150.099 15.8748ZM172.879 26.8308C172.879 28.6871 173.144 30.0419 173.685 30.8847C173.261 31.0447 172.868 31.1621 172.508 31.2367C172.147 31.3114 171.765 31.3434 171.362 31.3434C170.524 31.3434 169.876 31.1834 169.452 30.8527C169.017 30.522 168.741 30.0526 168.624 29.4445C168.104 29.9886 167.436 30.4473 166.587 30.8207C165.749 31.1941 164.72 31.3861 163.5 31.3861C162.863 31.3861 162.237 31.3008 161.6 31.1194C160.964 30.938 160.391 30.6607 159.881 30.2553C159.362 29.8606 158.948 29.3272 158.619 28.6551C158.29 27.983 158.131 27.1722 158.131 26.2121C158.131 25.0173 158.417 24.0465 158.99 23.289C159.563 22.5423 160.285 21.9449 161.144 21.5075C162.014 21.0701 162.948 20.7714 163.956 20.6114C164.964 20.4514 165.887 20.3447 166.725 20.2913C167.001 20.27 167.277 20.2593 167.553 20.2593H168.306V19.6192C168.306 18.7125 168.062 18.0724 167.585 17.6883C167.107 17.3043 166.322 17.1123 165.25 17.1123C164.242 17.1123 163.351 17.2723 162.566 17.603C161.781 17.9337 161.017 18.3071 160.263 18.7338C159.934 18.3391 159.669 17.891 159.478 17.411C159.277 16.9309 159.181 16.5682 159.181 16.3335C159.181 16.0028 159.362 15.6827 159.722 15.384C160.083 15.0747 160.582 14.7973 161.218 14.5519C161.855 14.3066 162.576 14.1039 163.393 13.9545C164.21 13.8052 165.08 13.7198 165.993 13.7198C167.256 13.7198 168.327 13.8478 169.208 14.1039C170.089 14.3599 170.799 14.7653 171.351 15.2987C171.903 15.8428 172.296 16.5148 172.529 17.3256C172.762 18.1364 172.879 19.0858 172.879 20.1633V26.8308ZM168.391 22.7343H167.903C167.744 22.7343 167.574 22.745 167.415 22.7663C166.831 22.809 166.248 22.8837 165.675 22.9797C165.102 23.0757 164.592 23.2357 164.147 23.4704C163.701 23.7051 163.34 24.0145 163.054 24.3879C162.778 24.7612 162.63 25.252 162.63 25.8387C162.63 26.5001 162.82 27.0549 163.192 27.5136C163.563 27.9723 164.2 28.207 165.091 28.207C165.537 28.207 165.961 28.1537 166.354 28.0257C166.746 27.9083 167.107 27.759 167.404 27.5669C167.712 27.3749 167.945 27.1722 168.126 26.9482C168.306 26.7242 168.391 26.5215 168.391 26.3294V22.7343Z" fill="#044D80"/>
</svg>
