<svg width="60" height="60" viewBox="0 0 60 60" fill="none" xmlns="http://www.w3.org/2000/svg">
<path d="M30 5C43.8 5 55 16.2 55 30C55 43.8 43.8 55 30 55C16.2 55 5 43.8 5 30C5 16.2 16.2 5 30 5ZM30.975 29.6C30.975 37.3 32.65 39.025 37.125 41.675C37.425 41.85 37.75 41.925 38.075 41.925C38.725 41.925 39.35 41.6 39.7 41C40.225 40.1 39.925 38.95 39.05 38.425C36.025 36.625 34.975 35.975 34.775 31.45H39.525C42.25 31.45 44.375 29.325 44.375 26.6V22.9C44.375 20.175 42.25 18.05 39.525 18.05H35.8C33.125 18.05 30.95 20.225 30.95 22.9V29.6H30.975ZM15.625 29.6C15.625 37.3 17.3 39.025 21.775 41.675C22.075 41.85 22.4 41.925 22.725 41.925C23.375 41.925 24 41.6 24.35 41C24.875 40.1 24.575 38.95 23.7 38.425C20.675 36.625 19.625 35.975 19.425 31.45H24.2C26.925 31.45 29.05 29.325 29.05 26.6V22.9C29.05 20.175 26.925 18.05 24.2 18.05H20.475C17.8 18.05 15.625 20.225 15.625 22.9V29.6Z" fill="#00AA66"/>
</svg>
