<svg id="Layer_1" data-name="Layer 1" xmlns="http://www.w3.org/2000/svg" viewBox="0 0 348.26 368.36"><defs><style>.cls-1,.cls-3{fill:none;stroke-linecap:round;stroke-linejoin:round;}.cls-1{stroke:#00a966;stroke-width:13.85px;}.cls-2{fill:#fff;}.cls-3{stroke:#000;stroke-width:12.07px;}</style></defs><path class="cls-1" d="M50.24,57.46V281.29a12,12,0,0,0,12,12h73.26a12,12,0,0,1,8.47,3.51l22.59,22.59a12,12,0,0,0,16.95,0L206,296.89a12,12,0,0,1,8.47-3.52h71.22a12,12,0,0,0,12-12L298,57.48a12,12,0,0,0-12-12H62.23A12,12,0,0,0,50.24,57.46Z"/><path class="cls-2" d="M172.92,255.76a6.12,6.12,0,0,1-2.06-.36c-72-26.21-70.89-84.89-69.93-132.07,0-1.55,0-3,.1-4.44s.09-2.57.09-3.79a6,6,0,0,1,5.73-6c25.41-1.3,45.14-8.79,62.11-23.59a6.05,6.05,0,0,1,7.93,0c17.25,15,37,22.48,62,23.39a6,6,0,0,1,5.82,6c0,2.68,0,5.2.18,7.9,0,.09,0,.18,0,.28,1,47.27,2.14,106.1-69.93,132.32A6.14,6.14,0,0,1,172.92,255.76Z"/><path d="M172.92,90c18.13,15.81,39.35,23.91,65.77,24.87,0,2.7,0,5.41.2,8.3,1,47.83,1.93,101.83-66,126.53C105,225,106,171,107,123.39c0-2.89.2-5.59.2-8.29,26.42-1.35,47.63-9.26,65.76-25.07m0-12.07a12.08,12.08,0,0,0-7.93,3c-15.89,13.86-34.46,20.89-58.45,22.12a12.05,12.05,0,0,0-11.45,12c0,1.11,0,2.31-.09,3.58,0,1.45-.1,2.95-.11,4.59-.48,24-1,51.3,7.88,76,10.55,29.27,32.15,49.49,66,61.81a12,12,0,0,0,8.25,0c33.89-12.33,55.49-32.55,66-61.84C252,174.48,251.44,147.11,251,123c0-.19,0-.38,0-.56-.17-2.5-.17-4.92-.17-7.5a12.07,12.07,0,0,0-11.63-12.06C215.53,102,197,95,180.86,80.93a12.08,12.08,0,0,0-7.94-3Z"/><polyline class="cls-3" points="154.27 172.03 165.11 182.88 198.07 149.92"/></svg>