<svg width="240" height="60" viewBox="0 0 240 60" fill="none" xmlns="http://www.w3.org/2000/svg">
<path d="M161.184 44.4986V29.5787L163.443 29.6387L165.682 29.6987L165.742 31.0586L165.802 32.4386L166.361 31.6586C167.261 30.4187 168.24 29.7987 170.04 29.3587C174.018 28.3987 178.096 29.6787 180.315 32.5786C182.674 35.6986 183.274 40.6986 181.835 45.7986C181.775 46.0786 181.455 46.6986 181.135 47.1986C180.835 47.6985 180.495 48.2785 180.395 48.4985C180.055 49.2185 178.176 50.6785 176.837 51.2385C173.738 52.5585 169.52 51.9785 167.221 49.8785C166.661 49.3985 166.161 48.9985 166.101 48.9985C166.041 48.9985 165.981 51.3385 165.981 54.1985V59.3985H163.583H161.184V44.4986ZM174.058 47.6385C174.738 47.3985 175.297 46.9986 175.977 46.2386C176.777 45.3386 177.017 44.8986 177.376 43.5386C178.516 39.3186 177.037 34.7186 174.118 33.3386C173.318 32.9586 170.36 32.8586 169.48 33.1986C167.941 33.7786 166.501 35.7786 165.981 38.0586C165.482 40.2186 165.882 43.2586 166.901 45.0586C167.501 46.1586 168.96 47.4985 169.74 47.6785C171.799 48.1985 172.399 48.1985 174.058 47.6385Z" fill="#141E25"/>
<path d="M11.5692 54.0585C11.7091 53.4385 12.1289 52.0785 12.5087 51.0185C12.8886 49.9585 13.5283 48.0185 13.9481 46.6985C14.3679 45.3785 15.0076 43.4386 15.3475 42.3986C15.7073 41.3586 16.0672 40.2386 16.1471 39.8986C16.2071 39.5786 16.567 38.4386 16.9468 37.3986C17.3266 36.3586 17.6865 35.2186 17.7464 34.8786C17.8864 34.1786 17.7265 34.0186 15.5474 32.4986C14.9077 32.0586 13.6283 31.1186 12.6687 30.4186C10.9694 29.1586 7.47096 26.6387 3.59266 23.8387C2.47316 23.0387 1.29368 22.1587 0.993808 21.8987L0.414062 21.3987L11.2893 21.3587L22.1445 21.2987L23.5839 16.8987C24.3835 14.4787 25.7229 10.3788 26.5626 7.79878C29.1014 -0.0611664 28.8815 0.51883 29.1614 1.03883C29.3813 1.49882 29.6412 2.27882 30.9606 6.39879C31.3605 7.65878 32.0002 9.55877 32.36 10.5988C32.7199 11.6388 33.0797 12.7788 33.1397 13.0987C33.2196 13.4387 33.5795 14.5587 33.9393 15.5987C34.2992 16.6387 34.739 18.0387 34.9389 18.6987C35.1388 19.3587 35.4387 20.2387 35.5986 20.6587L35.8785 21.3987H46.6937H57.509L56.9292 21.8987C56.5894 22.1787 56.0496 22.5987 55.6898 22.8387C55.3499 23.0987 54.5103 23.6787 53.8706 24.1387C53.2108 24.5987 52.5311 25.1187 52.3712 25.2987C52.1913 25.4587 51.9714 25.5987 51.8914 25.5987C51.7915 25.5987 51.3517 25.9187 50.9119 26.2987C50.492 26.6787 50.0322 26.9987 49.9123 26.9987C49.7924 26.9987 49.5325 27.1787 49.3326 27.3987C49.1526 27.5987 48.373 28.1987 47.6133 28.7186C46.8536 29.2186 46.2339 29.7186 46.2339 29.8186C46.2339 29.9186 46.094 29.9986 45.934 29.9986C45.7741 29.9986 45.3543 30.2586 44.9945 30.5586C44.6346 30.8786 43.4152 31.7786 42.2956 32.5786C41.1561 33.3586 40.2366 34.0586 40.2366 34.0986C40.2366 34.2386 40.7963 36.2986 41.0962 37.1986C41.2561 37.6986 41.536 38.6786 41.7359 39.3986C41.9158 40.1186 42.3956 41.6986 42.8154 42.8986C43.2152 44.1186 43.8949 46.1785 44.3148 47.4985C44.7346 48.8185 45.4143 50.8985 45.8341 52.0985C46.5338 54.1585 46.7337 55.0185 46.4538 54.9785C46.3938 54.9785 45.8941 54.6185 45.3343 54.1985C44.7945 53.7585 43.0353 52.4785 41.436 51.3585C39.8367 50.2385 38.4573 49.2185 38.3374 49.0985C38.2374 48.9785 37.1979 48.1985 36.0384 47.3985C34.8789 46.5785 33.8394 45.8185 33.7194 45.6985C33.5995 45.5985 32.8598 45.0585 32.0601 44.4985C31.2605 43.9586 30.221 43.1986 29.7412 42.8386C28.8815 42.2186 28.8416 42.1986 28.5017 42.5586C28.3018 42.7586 27.2023 43.5786 26.0428 44.3985C24.8833 45.1985 23.8638 45.9785 23.7838 46.1185C23.7038 46.2785 23.4839 46.3985 23.344 46.3985C23.1841 46.3985 22.8842 46.5585 22.6843 46.7585C22.5044 46.9385 21.7047 47.5385 20.945 48.0785C20.1654 48.6385 19.5257 49.1585 19.4857 49.2385C19.4457 49.3185 19.3058 49.3985 19.1858 49.3985C19.0459 49.3985 18.706 49.6185 18.4062 49.8985C18.1063 50.1785 17.6065 50.5585 17.2866 50.7385C16.6469 51.1385 14.4079 52.7985 13.6882 53.3985C13.4283 53.6185 13.1485 53.7985 13.0685 53.7985C12.9885 53.7985 12.5487 54.1185 12.1089 54.4985L11.3093 55.1785L11.5692 54.0585Z" fill="#094709"/>
<path d="M107.506 51.7202C105.307 51.1402 104.168 50.3802 103.248 48.8402C102.289 47.2002 102.189 46.1402 102.069 37.5603L101.969 29.6003H104.488H106.987L107.047 37.4603C107.107 44.9203 107.126 45.3403 107.526 46.2002C108.106 47.4402 109.326 48.0602 111.185 48.0402C113.244 48.0202 114.623 47.2802 115.663 45.6003C116.083 44.9203 116.103 44.7003 116.163 37.2603L116.223 29.6003H118.721H121.2V40.5003V51.4002H118.801H116.402V50.0202V48.6402L115.363 49.6802C113.904 51.1402 112.224 51.8602 110.105 51.9402C109.226 51.9602 108.066 51.8802 107.506 51.7202Z" fill="#141E25"/>
<path d="M131.996 51.8785C131.716 51.8185 130.696 51.5385 129.717 51.2385C128.038 50.7385 127.838 50.6385 126.578 49.3585C125.159 47.9385 124.879 47.3785 124.659 45.4585L124.539 44.3985H126.938H129.357L129.577 45.2785C130.057 47.1785 131.636 48.0585 134.495 48.0385C137.973 48.0185 139.832 46.2785 138.593 44.2385C138.033 43.3385 136.474 42.6585 133.495 42.0585C128.957 41.1385 126.978 40.2185 125.759 38.4385C125.179 37.6186 125.099 37.3186 125.039 35.9386C124.999 35.0986 125.019 34.0786 125.079 33.6986C125.299 32.5386 126.918 30.8586 128.757 29.9186C129.757 29.4186 133.155 28.9386 134.895 29.0786C138.893 29.3986 140.972 30.4986 142.251 32.9386C142.631 33.6986 143.011 34.6386 143.091 35.0586L143.231 35.7986H140.732H138.253L137.773 34.8586C137.014 33.4186 136.054 32.9986 133.515 32.9986C131.256 32.9986 130.357 33.3386 129.997 34.3186C129.737 34.9786 129.937 36.0786 130.376 36.4786C130.916 36.9586 133.115 37.7186 135.394 38.1985C139.433 39.0185 141.252 39.7785 142.471 41.1185C144.45 43.2785 144.23 47.1785 142.031 49.2585C140.732 50.4585 140.012 50.8385 137.693 51.5185C136.674 51.8185 132.915 52.0585 131.996 51.8785Z" fill="#141E25"/>
<path d="M211.761 51.5974C208.282 50.6574 206.263 48.9774 204.864 45.8774L204.064 44.0974L204.004 41.0175C203.924 37.5775 204.044 36.8775 205.124 34.6375C206.523 31.7575 208.742 30.0375 211.921 29.3775C214.06 28.9175 215.239 28.8975 217.378 29.3175C221.697 30.1375 224.695 33.1575 225.455 37.4575C226.195 41.6174 225.455 45.4574 223.396 48.1774C222.956 48.7374 222.156 49.4374 220.657 50.5574C220.557 50.6374 219.697 50.9574 218.778 51.2774C216.519 52.0574 213.92 52.1774 211.761 51.5974ZM216.979 47.6774C218.498 47.1974 219.957 45.4374 220.477 43.4774C221.177 40.7375 220.937 37.8375 219.837 35.8775C219.278 34.8975 217.958 33.6575 217.039 33.2775C216.219 32.9375 213.12 32.8975 212.501 33.2175C211.361 33.8175 210.202 35.0375 209.542 36.3175L208.862 37.6775L208.882 40.4775C208.882 43.1774 208.902 43.3574 209.442 44.3974C210.282 46.0174 211.061 46.9174 212.041 47.3974C213.72 48.1974 215.059 48.2774 216.979 47.6774Z" fill="#141E25"/>
<path d="M152.789 51.4783C150.99 51.1183 150.11 50.5783 148.95 49.1383C148.93 49.1183 148.87 45.5384 148.81 41.1984L148.691 33.2984L146.851 33.2384L144.992 33.1784V31.3984V29.5984H146.891H148.791V26.3985V23.1985H151.189H153.588V26.3985V29.5984H155.787H157.986V31.3984V33.1984H155.787H153.568L153.628 39.9784C153.708 48.1383 153.508 47.5983 156.227 47.5983H157.986V49.3783C157.986 50.3783 157.906 51.2183 157.807 51.2783C157.567 51.4383 153.388 51.5983 152.789 51.4783Z" fill="#141E25"/>
<path d="M234.549 51.3983C232.71 50.9983 231.65 50.2783 231.091 49.0183C230.931 48.6583 230.811 46.0383 230.751 40.8984L230.651 33.2984L228.912 33.2384L227.152 33.1784V31.3984V29.5984H228.952H230.751V26.3985V23.1985H233.25H235.749V26.3985V29.5984H237.848H239.947V31.3984V33.1984H237.848H235.749V39.9584V46.7383L236.208 47.1583C236.608 47.5383 236.908 47.5983 238.307 47.5983H239.947V49.3783C239.947 50.3783 239.867 51.2183 239.767 51.2783C239.427 51.4983 235.449 51.5783 234.549 51.3983Z" fill="#141E25"/>
<path d="M72.7824 38.66L72.7224 25.9001L67.9845 25.8401L63.2266 25.8001V23.6001V21.4001H75.4212H87.6158V23.6001V25.8001H82.818H78.0201V38.6V51.4H75.4212H72.8223L72.7824 38.66Z" fill="#141E25"/>
<path d="M86.4141 40.4997V29.5998H88.7131H91.012V31.5598V33.4998L91.5918 32.4998C92.7113 30.5198 95.3501 29.0198 97.6491 28.9998C99.2284 28.9998 99.2085 28.9598 99.2085 31.4998V33.7598L97.7491 33.6598C96.5296 33.5598 96.1298 33.6198 95.2102 33.9998C93.8108 34.5998 92.9112 35.4198 92.2115 36.7997C91.3319 38.5597 91.212 39.5597 91.212 45.6997V51.3996H88.813H86.4141V40.4997Z" fill="#141E25"/>
<path d="M186.172 40.4998V29.5798L188.631 29.6398L191.07 29.6998V40.4998V51.2997L188.631 51.3597L186.172 51.4197V40.4998Z" fill="#141E25"/>
<path d="M195.367 36.4001V21.4001H197.766H200.165V36.4001V51.4H197.766H195.367V36.4001Z" fill="#141E25"/>
<path d="M186.172 23.6001V21.4001H188.671H191.19L191.13 23.5601L191.07 25.7001L188.631 25.7601L186.172 25.8201V23.6001Z" fill="white"/>
<path d="M11.5692 54.0585C11.7091 53.4385 12.1289 52.0785 12.5087 51.0185C12.8886 49.9585 13.5283 48.0185 13.9481 46.6985C14.3679 45.3785 15.0076 43.4386 15.3475 42.3986C15.7073 41.3586 16.0672 40.2386 16.1471 39.8986C16.2071 39.5786 16.567 38.4386 16.9468 37.3986C17.3266 36.3586 17.6865 35.2186 17.7464 34.8786C17.8864 34.1786 17.7265 34.0186 15.5474 32.4986C14.9077 32.0586 13.6283 31.1186 12.6687 30.4186C10.9694 29.1586 7.47096 26.6387 3.59267 23.8387C2.47316 23.0387 1.29368 22.1587 0.993808 21.8987L0.414062 21.3987L11.2893 21.3587L22.1445 21.2987L23.5839 16.8987C24.3835 14.4787 25.7229 10.3788 26.5626 7.79878C29.1015 -0.0611666 28.8815 0.51883 29.1614 1.03883C29.3813 1.49882 29.6412 2.27882 30.9606 6.39879C31.3605 7.65878 32.0002 9.55877 32.36 10.5988C32.7199 11.6388 33.0797 12.7788 33.1397 13.0988C33.2196 13.4387 33.5795 14.5587 33.9393 15.5987C34.2992 16.6387 34.739 18.0387 34.9389 18.6987C35.1388 19.3587 35.4387 20.2387 35.5986 20.6587L35.8785 21.3987H46.6937H57.509L56.9292 21.8987C56.5894 22.1787 56.0496 22.5987 55.6898 22.8387C55.3499 23.0987 54.5103 23.6787 53.8706 24.1387C53.2109 24.5987 52.5312 25.1187 52.3712 25.2987C52.1913 25.4587 51.9714 25.5987 51.8914 25.5987C51.7915 25.5987 51.3517 25.9187 50.9119 26.2987C50.492 26.6787 50.0322 26.9987 49.9123 26.9987C49.7924 26.9987 49.5325 27.1787 49.3326 27.3987C49.1526 27.5987 48.373 28.1987 47.6133 28.7187C46.8536 29.2186 46.2339 29.7186 46.2339 29.8186C46.2339 29.9186 46.094 29.9986 45.9341 29.9986C45.7741 29.9986 45.3543 30.2586 44.9945 30.5586C43.4951 31.8586 40.1766 34.0386 40.0566 33.8386C39.9767 33.6986 39.257 34.0786 38.1375 34.8986C36.6181 35.9986 32.5399 38.9586 29.8011 40.9586C29.3813 41.2586 29.0615 41.5586 29.0415 41.6186C29.0415 41.7586 32.34 40.9986 35.4387 40.1386C39.5569 39.0186 41.3361 38.6186 41.476 38.7586C41.556 38.8386 41.7759 39.4786 41.9558 40.1986C42.1357 40.9186 42.5755 42.3186 42.9154 43.2986C43.2752 44.2985 43.8949 46.1785 44.3148 47.4985C44.7346 48.8185 45.4143 50.8985 45.8341 52.0985C46.5338 54.1585 46.7337 55.0185 46.4538 54.9785C46.3938 54.9785 45.8941 54.6185 45.3343 54.1985C44.7946 53.7585 43.0353 52.4785 41.436 51.3585C39.8367 50.2385 38.4573 49.2185 38.3374 49.0985C38.2374 48.9785 37.1979 48.1985 36.0384 47.3985C34.8789 46.5785 33.8394 45.8185 33.7194 45.6985C33.5995 45.5985 32.8598 45.0585 32.0602 44.4986C31.2605 43.9586 30.221 43.1986 29.7412 42.8386C28.8815 42.2186 28.8416 42.1986 28.5017 42.5586C28.3018 42.7586 27.2023 43.5786 26.0428 44.3986C24.8833 45.1985 23.8638 45.9785 23.7838 46.1185C23.7038 46.2785 23.4839 46.3985 23.344 46.3985C23.1841 46.3985 22.8842 46.5585 22.6843 46.7585C22.5044 46.9385 21.7047 47.5385 20.945 48.0785C20.1654 48.6385 19.5257 49.1585 19.4857 49.2385C19.4457 49.3185 19.3058 49.3985 19.1858 49.3985C19.0459 49.3985 18.706 49.6185 18.4062 49.8985C18.1063 50.1785 17.6065 50.5585 17.2866 50.7385C16.6469 51.1385 14.4079 52.7985 13.6882 53.3985C13.4283 53.6185 13.1485 53.7985 13.0685 53.7985C12.9885 53.7985 12.5487 54.1185 12.1089 54.4985L11.3093 55.1785L11.5692 54.0585Z" fill="#21A66F"/>
</svg>
