<svg width="45" height="45" viewBox="0 0 45 45" fill="none" xmlns="http://www.w3.org/2000/svg">
<path d="M0.453125 22.5995V0.399658H22.5434H44.6337V22.5995V44.7994H22.5434H0.453125V22.5995Z" fill="#21A66F"/>
<path d="M13.1481 36.5808C13.2281 36.2008 13.5879 35.0408 13.9477 34.0008C15.687 28.9608 16.5866 26.0608 16.4267 25.9208C16.3867 25.9008 15.2872 25.1008 13.9877 24.1808C12.6883 23.2609 11.109 22.1209 10.4893 21.6609C9.86954 21.2009 8.83 20.4809 8.21027 20.0609C7.57055 19.6409 7.05078 19.2409 7.05078 19.1609C7.05078 19.0609 9.74959 19.0009 13.0282 19.0009H19.0055L19.1455 18.3609C19.2254 18.0009 19.8851 15.8609 20.6448 13.6009C21.3845 11.3409 22.0642 9.20095 22.1641 8.84096C22.544 7.42097 22.504 7.30097 25.4827 16.4409L26.3223 19.0009L32.3197 19.0409L38.337 19.1009L37.1575 19.8809C36.4978 20.3209 35.8381 20.8009 35.6582 20.9809C35.4783 21.1609 34.2188 22.0809 32.8594 23.0009C31.5 23.9408 30.0607 24.9808 29.6608 25.3008C29.261 25.6408 28.2215 26.4008 27.3419 27.0008C26.4622 27.6008 25.4227 28.3208 25.0429 28.6408C24.663 28.9408 24.1233 29.3808 23.8434 29.5808C23.3436 29.9808 23.3436 29.9808 24.743 29.6208C28.4614 28.6408 29.4609 28.4408 29.5209 28.6808C29.6608 29.1608 31.1402 33.7808 31.68 35.3808C31.9998 36.3008 32.1997 37.1007 32.1597 37.1408C32.0398 37.2808 29.5209 35.5808 28.1415 34.4408C27.7017 34.1008 26.2623 33.0408 24.9629 32.1208L22.564 30.4208L20.9647 31.5608C20.0651 32.1808 19.2654 32.7808 19.1455 32.9208C19.0455 33.0408 17.866 33.8808 16.5466 34.8008C15.2272 35.7208 13.8878 36.6408 13.5679 36.8608L13.0082 37.2607L13.1481 36.5808Z" fill="#FCFEFD"/>
</svg>
