<svg width="331" height="18" viewBox="0 0 331 18" fill="none" xmlns="http://www.w3.org/2000/svg">
<g opacity="0.7">
<path d="M305.358 13.4861C304.736 13.5694 304.17 13.5694 303.547 13.6943L303.547 13.7359C303.264 13.5694 302.925 13.4861 302.528 13.4445C301.509 13.3613 300.434 13.278 299.415 13.1948C299.302 13.1948 299.245 13.2364 299.302 13.3196C299.302 13.3613 299.358 13.4029 299.358 13.4029C299.925 13.5694 300.547 13.7359 301.17 13.8607C301.34 13.9024 301.509 13.944 301.679 13.944C302.755 13.8607 303.83 14.1937 304.906 14.277C305.132 14.277 305.358 14.3602 305.585 14.3602C306.774 14.3186 307.906 14.5267 309.094 14.6932C309.434 14.7348 309.717 14.7765 310.057 14.7765C311.075 14.7348 312.038 14.9013 313 15.1095C313 15.1095 313.057 15.1511 313.057 15.1927C312.434 15.3176 311.811 15.2343 311.189 15.1511C309.943 14.943 308.698 14.9013 307.396 14.8597C307.057 14.8597 306.774 14.8597 306.434 14.8181C305.415 14.61 304.396 14.5684 303.321 14.5267C303.208 14.5267 303.151 14.5684 303.151 14.61C303.151 14.6516 303.208 14.6932 303.208 14.6932C303.887 14.9013 304.566 15.0678 305.302 15.0262C305.698 15.0262 306.094 15.0262 306.547 15.0262C307 15.0262 307.453 15.1095 307.736 15.4008C308.019 15.6922 308.302 15.6922 308.642 15.6089C309.094 15.4841 309.547 15.4841 309.943 15.4008C310.283 15.3592 310.679 15.3592 311.019 15.4841C311.358 15.6089 311.698 15.6089 312.094 15.6089C312.264 15.6089 312.434 15.6506 312.547 15.7754C312.604 15.8587 312.717 15.9419 312.774 15.9836C313.34 16.1917 313.906 16.3998 314.585 16.3998C315.094 16.3998 315.547 16.483 316.057 16.5663C316.906 16.6912 317.755 16.816 318.604 16.8577C319.283 16.8993 319.962 17.0242 320.585 17.1074C320.868 17.149 321.094 17.1907 321.377 17.1907C323.019 17.2323 324.604 17.6069 326.189 17.6901C326.245 17.6901 326.302 17.815 326.302 17.8566C326.302 17.8983 326.189 17.9399 326.132 17.9815C326.075 17.9815 325.962 18.0231 325.849 17.9815C325.34 17.9399 324.83 17.9399 324.377 17.8983C323.302 17.815 322.226 17.6901 321.151 17.6069C320.132 17.5236 319.057 17.4404 318.038 17.3155C317.415 17.2739 316.792 17.2323 316.17 17.1907C315.943 17.1907 315.717 17.1907 315.491 17.1074C314.811 16.9409 314.075 16.9409 313.34 16.9409C311.868 16.9409 310.453 16.816 308.981 16.7328C308.755 16.7328 308.528 16.6912 308.302 16.6912C307.849 16.6912 307.396 16.6495 306.943 16.5663C306.377 16.4414 305.811 16.3998 305.189 16.3582C304.226 16.3166 303.321 16.2749 302.358 16.1917C301.453 16.1084 300.547 15.9836 299.698 15.9003C298.906 15.8171 298.057 15.7754 297.264 15.7338C296.528 15.6922 295.849 15.6506 295.113 15.5673C294.434 15.4841 293.755 15.4425 293.075 15.4008C290.925 15.2343 288.774 15.1095 286.566 14.943C285.604 14.8597 284.698 14.7765 283.736 14.6932C282.377 14.61 281.019 14.5267 279.66 14.4019C277.962 14.277 276.264 14.1521 274.509 14.1105C273.491 14.1105 272.528 13.9856 271.566 13.8607C271.057 13.8191 270.604 13.7775 270.094 13.7359C269.132 13.6942 268.226 13.6526 267.264 13.5694C266.925 13.5694 266.642 13.5278 266.302 13.5278C265.509 13.5694 264.66 13.4861 263.868 13.4029C263.132 13.3196 262.453 13.3196 261.717 13.278C260.472 13.2364 259.17 13.1531 257.925 13.1115C257.585 13.1115 257.189 13.1115 256.849 13.0699C255.66 12.945 254.415 12.9034 253.17 12.9034C252.774 12.9034 252.377 12.8618 251.925 12.8618C250.736 12.7785 249.604 12.6953 248.415 12.6953C248.019 12.6953 247.623 12.6953 247.17 12.6537C246.094 12.5288 245.019 12.5704 243.943 12.5288C242.925 12.4872 241.962 12.4455 240.943 12.4039C240.208 12.3623 239.472 12.3623 238.792 12.3207C237.774 12.279 236.811 12.2374 235.792 12.1958C235.509 12.1958 235.226 12.1542 235 12.1542C233.585 12.2374 232.17 12.1125 230.811 12.1125C230.019 12.1125 229.17 12.0293 228.377 12.0293C226.906 11.9877 225.377 11.946 223.906 11.9044C222.887 11.8628 221.925 11.8628 220.906 11.8212C220.34 11.7796 219.717 11.7796 219.151 11.8212C218.868 11.8628 218.585 11.8628 218.358 11.8212C217.792 11.7379 217.17 11.7379 216.604 11.7379C215.358 11.6963 214.057 11.6547 212.811 11.6547C212.585 11.6547 212.358 11.6131 212.132 11.6131C211 11.6963 209.868 11.6131 208.736 11.6131C207.434 11.6131 206.132 11.6547 204.774 11.6547C203.925 11.6547 203.075 11.6131 202.17 11.6131C201.83 11.6131 201.434 11.5714 201.094 11.6131C200.302 11.6963 199.566 11.6547 198.774 11.6131C197.755 11.5714 196.792 11.4882 195.774 11.6131C195.66 11.6131 195.491 11.6131 195.377 11.6131C193.453 11.4882 191.472 11.6131 189.547 11.5714C187.736 11.5298 185.925 11.5298 184.113 11.5298C182.868 11.5298 181.566 11.6131 180.321 11.5298C178 11.6131 175.679 11.5298 173.415 11.6547C171.943 11.7379 170.415 11.6963 168.943 11.6963C168.377 11.6963 167.755 11.6963 167.189 11.6963C165.717 11.6963 164.189 11.7379 162.717 11.7795C161.585 11.7795 160.453 11.7795 159.321 11.8212C157.283 11.9044 155.245 11.9044 153.208 11.9044C152.642 11.9044 152.019 11.9044 151.453 11.946C149.472 11.9877 147.491 12.0293 145.453 11.9877C145.113 11.9877 144.717 11.9877 144.377 12.0293C142.509 12.1542 140.585 12.1542 138.66 12.1958C137.189 12.2374 135.774 12.2374 134.302 12.279C133.679 12.279 133.057 12.3207 132.434 12.1125C132.264 12.0709 132.038 12.0709 131.925 12.1125C131.245 12.3623 130.509 12.3623 129.774 12.3623C128.075 12.4039 126.434 12.4039 124.736 12.4455C123.887 12.4455 123.038 12.4872 122.189 12.5288C121.906 12.5288 121.623 12.5288 121.396 12.5704C120.83 12.5704 120.434 12.4455 120.377 11.9877C120.377 11.9877 120.208 11.946 120.151 11.946C120.094 11.946 120.094 11.9877 120.038 12.0293C119.925 12.4872 119.528 12.612 118.962 12.612C117.717 12.612 116.528 12.6536 115.283 12.6953C112.679 12.7785 110.132 12.8618 107.528 12.8618C106.736 12.8618 105.887 12.945 105.094 12.945C103.34 12.9866 101.585 13.0283 99.7736 13.0699C99.4906 13.0699 99.2076 13.0699 98.9811 13.1115C97.3962 13.2364 95.8113 13.2364 94.2264 13.2364C92.3585 13.278 90.4906 13.3613 88.6792 13.4029C88.0566 13.4029 87.434 13.4445 86.7547 13.4445C84.8302 13.4861 82.8491 13.5277 80.9245 13.611C80.3585 13.611 79.7359 13.6942 79.1698 13.7359C77.7547 13.8191 76.3396 13.7359 74.9811 13.7775C74.4151 13.8191 73.9057 13.8191 73.3396 13.7359C73.1132 13.6942 72.8868 13.6942 72.6604 13.7359C71.3019 13.8607 69.9434 13.7359 68.5849 13.7775C67.283 13.8191 65.9811 13.7775 64.6226 13.8191C63.3208 13.8191 62.0189 13.8607 60.6604 13.9024C60.2641 13.9024 59.8113 13.9024 59.4717 13.9856C58.9623 14.0689 58.5095 14.1937 58 14.1105C57.4906 14.0689 57.0378 14.1521 56.5283 14.0272C56.3019 13.944 55.9623 13.9856 55.7359 14.0272C54.3774 14.2354 52.9623 14.1937 51.5472 14.1937C49.8491 14.1937 48.2075 14.1937 46.5094 14.1937C45.3774 14.1937 44.2453 14.1937 43.1132 14.1937C41.4717 14.1521 39.8302 14.2354 38.2453 14.1105C38.0755 14.1105 37.9057 14.1105 37.6793 14.1105C36.3208 14.277 34.9622 14.1105 33.6038 14.0689C33.2641 14.0689 32.8679 14.0272 32.5283 14.0272C31.3396 14.0689 30.151 14.0272 29.0189 14.0272C28.6227 14.0272 28.2264 14.0272 27.7736 14.0272C27.3774 14.0272 26.9811 14.0272 26.5283 14.0272C25.5094 13.944 24.434 13.944 23.4151 13.944C22.4528 13.9024 21.4906 13.9024 20.5849 13.8607C19.0566 13.8191 17.5283 13.7359 16 13.6942C13.9623 13.611 11.9245 13.5694 9.88681 13.4445C8.2453 13.3613 6.54721 13.1948 4.9057 13.0699C4.28306 13.0283 3.66036 12.8618 3.03772 12.7785C2.24527 12.6536 1.62266 12.3623 0.94342 12.0709C0.603797 11.946 0.377373 11.6963 0.320769 11.4466C0.207562 11.1136 0.0943533 10.7806 0.0377495 10.4892C-0.0188542 9.86485 -0.0754504 9.24049 0.37738 8.65775C0.433984 8.53288 0.490576 8.40801 0.54718 8.28314C0.773595 7.74203 1.16981 7.36741 1.84906 7.07605C2.24529 6.90955 2.64151 6.78468 3.15094 6.8263C3.71698 6.8263 4.33966 6.86793 4.9057 6.86793C5.18872 6.86793 5.4717 6.86793 5.69812 6.8263C6.32076 6.65981 6.9434 6.70143 7.56604 6.74306C7.90566 6.78468 8.30189 6.78468 8.64151 6.78468C8.98113 6.78468 9.37739 6.78468 9.71701 6.65981C10.2264 6.45169 10.7359 6.41007 11.3019 6.45169C13.0566 6.49331 14.8113 6.45169 16.6226 6.53494C17.6981 6.57656 18.7736 6.53494 19.8491 6.57656C20.4151 6.57656 21.0378 6.61819 21.6038 6.61819C22.3962 6.61819 23.1321 6.65981 23.9245 6.65981C25.6226 6.70143 27.3774 6.61819 29.0755 6.78468C29.1321 6.78468 29.1887 6.78468 29.1887 6.78468C29.4151 6.78468 29.5849 6.70143 29.6415 6.49331C29.6415 6.32682 29.8113 6.28519 29.9811 6.24357C30.0943 6.24357 30.2642 6.20195 30.3774 6.24357C31.3962 6.32682 32.4717 6.32682 33.4906 6.32682C34.4529 6.32682 35.3585 6.45169 36.3208 6.36844C36.5472 6.36844 36.7736 6.36844 37 6.32682C37.5094 6.16032 38.0755 6.20195 38.5849 6.2852C38.9812 6.32682 39.3774 6.32682 39.7736 6.2852C40.2264 6.24357 40.6793 6.24357 41.1321 6.24357C41.3585 6.24357 41.5849 6.24357 41.8113 6.2852C42.5472 6.49331 43.283 6.45169 44.0755 6.45169C45.151 6.41007 46.2264 6.45169 47.3585 6.49331C47.4151 6.49331 47.4717 6.49331 47.4717 6.53494C47.5283 6.61819 47.4717 6.65981 47.3585 6.65981C47.2453 6.70143 47.0755 6.70143 46.9623 6.74306C46.9623 6.74306 46.9057 6.78468 46.9057 6.82631C46.9057 6.86793 46.9057 6.90955 46.9623 6.90955C47.0189 6.95118 47.1321 6.9928 47.1887 6.9928C47.5849 6.9928 47.9812 6.9928 48.3774 6.9928C48.5472 6.9928 48.717 6.90955 48.7736 6.78468C48.9434 6.41007 49.3396 6.2852 49.7925 6.24357C50.5283 6.20195 51.2076 6.1187 51.9434 6.20195C52.2264 6.24357 52.5095 6.24357 52.7359 6.20195C53.0755 6.16032 53.4717 6.16032 53.8113 6.24357C53.9811 6.2852 54.1509 6.2852 54.3773 6.24357C54.7736 6.20195 55.1698 6.16032 55.566 6.24357C55.7359 6.2852 55.9057 6.24357 56.0755 6.20195C56.3585 6.20195 56.6415 6.1187 56.868 6.16032C58.1132 6.2852 59.3019 6.1187 60.5472 6.16032C62.9245 6.20195 65.2453 6.03545 67.6226 6.1187C67.7359 6.1187 67.9057 6.1187 68.0189 6.1187C70.6792 5.9522 73.3396 5.99383 76 5.91058C76.6793 5.91058 77.3585 5.86896 78.0377 5.91058C78.6604 5.95221 79.283 5.91058 79.9057 5.82733C80.4151 5.78571 80.8679 5.74409 81.3774 5.74409C83.0189 5.70246 84.6604 5.66084 86.2453 5.57759C86.5849 5.57759 86.8679 5.57759 87.2075 5.57759C87.434 5.57759 87.6604 5.61921 87.8868 5.57759C89.1321 5.45272 90.434 5.49434 91.6793 5.49434C92.2453 5.49434 92.8679 5.49434 93.434 5.45272C94.1132 5.4111 94.7925 5.36947 95.4717 5.4111C95.6415 5.4111 95.8113 5.4111 96.0377 5.4111C96.717 5.36947 97.3962 5.32785 98.0755 5.32785C98.7547 5.28622 99.434 5.28622 100.113 5.16135C100.453 5.0781 100.849 5.03648 101.189 5.11973C101.925 5.2446 102.604 5.16135 103.34 5.16135C104.075 5.16135 104.811 5.16135 105.491 5.16135C106.736 5.11973 107.925 5.0781 109.17 5.0781C109.623 5.0781 110.075 5.03648 110.528 5.16135C110.585 5.16135 110.585 5.20298 110.585 5.2446C110.585 5.28622 110.585 5.32785 110.585 5.32785C110.528 5.36947 110.472 5.4111 110.359 5.45272C109.906 5.53597 109.453 5.53597 109 5.49434C107.981 5.45272 106.906 5.57759 105.887 5.4111C105.264 5.45272 104.642 5.53597 104.019 5.57759C103.679 5.61922 103.34 5.66084 103.057 5.61922C102.491 5.49434 101.981 5.57759 101.472 5.66084C101.189 5.70246 100.906 5.70246 100.679 5.70246C99.6604 5.70246 98.6981 5.74409 97.6792 5.74409C97.4528 5.74409 97.2264 5.70246 97 5.70246C96.434 5.66084 95.8113 5.66084 95.2453 5.74409C94.8491 5.82733 94.4528 5.82733 94.0566 5.82733C92.8113 5.74409 91.5094 5.86896 90.2642 5.86896C89.9811 5.86896 89.6981 5.91058 89.4717 5.95221C88.7924 6.1187 88.0566 6.1187 87.3208 6.1187C86.8113 6.1187 86.3019 6.1187 85.8491 6.1187C85.6792 6.1187 85.5094 6.16032 85.283 6.16032C85.3962 6.20195 85.4528 6.2852 85.5094 6.2852C86.4151 6.2852 87.3208 6.2852 88.2264 6.2852C88.8491 6.2852 89.4717 6.2852 90.2642 6.32682C89.5283 6.65981 88.9057 6.82631 88.2264 6.74306C87.6604 6.65981 87.0377 6.65981 86.4717 6.78468C86.0189 6.86793 85.566 6.82631 85.1132 6.78468C84.717 6.74306 84.3208 6.74306 83.9245 6.82631C83.4717 6.95118 83.0189 6.95118 82.5661 6.82631C81.9434 6.70143 81.3208 6.70143 80.6981 6.78468C80.0755 6.82631 79.4528 6.86793 78.8302 6.86793C78.0377 6.82631 77.1887 6.86793 76.3962 6.95118C75.434 7.03443 74.5283 7.11767 73.566 6.9928C73.3396 6.95118 73.1132 6.9928 72.8868 6.9928C71.8679 7.07605 70.7925 7.1593 69.7736 7.1593C69.434 7.1593 69.1509 7.20092 68.9245 7.40904C68.0755 7.36742 68.0755 7.36742 67.7359 7.49229C68.1321 7.57554 68.5283 7.53391 68.8679 7.40904C69.0943 7.49229 69.3774 7.57554 69.6604 7.57554C71.2453 7.49229 72.8302 7.57554 74.4151 7.57554C75.9434 7.57554 77.4717 7.53391 79 7.45066C79.566 7.40904 80.0755 7.40904 80.6415 7.40904C81.2076 7.40904 81.717 7.36742 82.283 7.36742C82.9623 7.32579 83.6415 7.28417 84.3208 7.32579C84.717 7.32579 85.1132 7.28417 85.566 7.28417C86.1321 7.28417 86.6415 7.20092 87.2075 7.28417C87.434 7.32579 87.6604 7.28417 87.8868 7.28417C88.7359 7.20092 89.5849 7.1593 90.434 7.20092C90.8868 7.20092 91.3396 7.20092 91.7925 7.20092C92.1887 7.20092 92.5849 7.20092 93.0377 7.20092C93.434 7.20092 93.717 7.36742 93.8868 7.61716C93.8868 7.65878 93.9434 7.65878 94 7.70041C94.0566 7.70041 94.1132 7.74203 94.1132 7.70041C94.5094 7.61716 94.8491 7.49229 95.2453 7.40904C95.3585 7.36742 95.3019 7.28417 95.2453 7.24255C95.1321 7.20092 95.0755 7.11767 95.1887 7.11767C95.6981 7.07605 96.2076 7.07605 96.6604 7.07605C97.283 7.07605 97.9057 7.07605 98.5283 6.9928C98.9811 6.95118 99.434 6.95118 99.8868 6.95118C100.17 6.95118 100.453 6.90955 100.623 6.78468C100.679 6.74306 100.736 6.65981 100.736 6.61819C100.736 6.57656 100.679 6.49332 100.623 6.45169C100.566 6.41007 100.453 6.41007 100.34 6.41007C100 6.41007 99.717 6.41007 99.3774 6.45169C98.6981 6.49332 98.0189 6.61819 97.3396 6.61819C96.717 6.65981 96.0944 6.61819 95.4717 6.57656C94.9057 6.53494 94.283 6.53494 93.717 6.61819C93.1509 6.70144 92.5283 6.65981 91.9623 6.61819C91.9057 6.61819 91.8491 6.57656 91.8491 6.53494C91.9057 6.49332 91.9057 6.41007 91.9623 6.41007C92.1887 6.36844 92.4151 6.32682 92.6415 6.32682C93.7736 6.2852 94.9057 6.2852 96.0377 6.2852C97.5094 6.2852 98.9245 6.24357 100.396 6.24357C101.245 6.24357 102.094 6.24357 102.943 6.07708C103.396 5.99383 103.736 6.20195 104.132 6.24357C104.245 6.24357 104.302 6.32682 104.245 6.41007C104.245 6.45169 104.189 6.49332 104.132 6.49332C103.962 6.53494 103.792 6.57656 103.623 6.57656C103.17 6.53494 102.717 6.45169 102.264 6.53494C102.151 6.53494 101.981 6.57656 101.925 6.70144C101.868 6.78468 102.038 6.86793 102.208 6.90956C102.321 6.90956 102.377 6.90956 102.491 6.90956C102.604 6.90956 102.66 6.90956 102.774 6.90956C104.019 6.90956 105.321 6.95118 106.566 6.95118C106.679 6.95118 106.736 6.95118 106.849 6.9928C106.906 7.03443 107.019 7.07605 107.019 7.11767C107.019 7.1593 106.962 7.24255 106.906 7.28417C106.849 7.36742 106.736 7.40904 106.566 7.53391C106.849 7.53391 107.019 7.53391 107.189 7.53391C107.415 7.57554 107.642 7.49229 107.755 7.36742C108.094 6.95118 108.66 6.82631 109.226 6.74306C109.962 6.65981 110.755 6.53494 111.491 6.70144C111.83 6.78468 112.226 6.74306 112.566 6.74306C113.302 6.74306 114.038 6.70144 114.717 6.65981C115.113 6.65981 115.509 6.70144 115.906 6.78468C116.358 6.90956 116.755 6.90956 117.208 6.74306C117.377 6.65981 117.66 6.61819 117.83 6.65981C118.283 6.70144 118.736 6.61819 119.189 6.53494C119.472 6.49332 119.811 6.49332 120.094 6.61819C119.868 6.86793 119.528 6.95118 119.189 6.9928C118.962 7.03443 118.736 7.03443 118.509 7.07605C118.453 7.07605 118.453 7.1593 118.396 7.20092C118.396 7.20092 118.453 7.24255 118.509 7.24255C119.075 7.32579 119.585 7.32579 120.094 7.20092C120.321 7.1593 120.434 6.95118 120.321 6.78468C120.264 6.70144 120.151 6.61819 120.094 6.53494C120.377 6.57656 120.717 6.61819 121 6.65981C121.17 6.70144 121.34 6.61819 121.453 6.53494C121.509 6.57656 121.566 6.61819 121.623 6.65981C121.962 6.86793 122.359 6.90956 122.755 6.74306C123.038 6.57657 123.377 6.49332 123.774 6.49332C124.792 6.41007 125.755 6.45169 126.774 6.45169C127.226 6.45169 127.453 6.53494 127.509 6.86793C127.509 6.95118 127.623 6.95118 127.736 6.90956C127.792 6.86793 127.906 6.82631 127.906 6.74306C128.132 6.36845 128.472 6.2852 128.981 6.2852C129.377 6.2852 129.66 6.41007 129.774 6.70144C129.83 6.82631 130 6.82631 130.113 6.74306C130.453 6.36845 130.906 6.24357 131.472 6.24357C132.208 6.24357 132.943 6.20195 133.623 6.20195C133.736 6.20195 133.906 6.20195 134.019 6.20195C134.302 6.24357 134.528 6.32682 134.642 6.53494C134.698 6.61819 134.755 6.70144 134.925 6.70144C135.094 6.70144 135.151 6.61819 135.208 6.53494C135.264 6.45169 135.264 6.32682 135.321 6.24357C135.377 6.16033 135.491 6.03545 135.604 6.03545C136.113 5.99383 136.679 5.91058 137.189 6.03545C137.925 6.20195 138.604 6.20195 139.34 6.03545C139.736 5.95221 140.132 5.91058 140.528 5.95221C141.264 5.99383 142 5.99383 142.679 5.99383C143.132 5.99383 143.585 5.95221 144.038 5.91058C144.208 5.91058 144.321 5.78571 144.208 5.61922C144.208 5.53597 144.151 5.49435 144.094 5.45272C144.094 5.32785 144.094 5.2446 144.264 5.20298C144.434 5.16135 144.604 5.07811 144.774 5.07811C145.17 5.03648 145.566 5.07811 146.019 5.07811C146.245 5.07811 146.472 5.11973 146.698 5.07811C147.321 4.95323 147.887 5.03648 148.34 5.28623C148.17 5.32785 147.943 5.28623 147.66 5.28623C147.377 5.28623 147.094 5.28623 146.868 5.32785C146.585 5.32785 146.302 5.36947 146.075 5.36947C145.792 5.4111 145.623 5.53597 145.623 5.66084C145.623 5.78571 145.792 5.95221 146.075 5.95221C146.755 5.95221 147.434 5.95221 148.113 5.95221C148.17 5.95221 148.283 5.99383 148.34 6.03545L148.34 6.1187C148.057 6.16033 147.717 6.20195 147.434 6.24357C147.321 6.24357 147.208 6.32682 147.094 6.36845C147.094 6.36845 147.038 6.45169 147.094 6.45169C147.434 6.57657 147.774 6.65981 148.113 6.57656C148.623 6.49332 149.075 6.36845 149.585 6.36845C149.642 6.36845 149.698 6.2852 149.698 6.24357C149.698 6.1187 149.698 6.03545 149.868 6.03545C150.038 6.03545 150.208 6.03545 150.377 6.03545C150.434 6.03545 150.547 6.07708 150.604 6.16033C151 6.57657 151.509 6.70144 152.132 6.57657C152.415 6.53494 152.642 6.53494 152.925 6.49332C152.981 6.49332 153.038 6.36845 152.981 6.32682C152.981 6.24357 152.868 6.1187 152.925 6.03546C152.981 5.95221 153.151 5.91058 153.264 5.91058C153.774 5.82734 154.34 5.82734 154.849 5.91058C154.906 5.91058 154.962 6.03546 154.906 6.07708C154.849 6.1187 154.736 6.16033 154.679 6.20195C154.623 6.24357 154.566 6.32682 154.623 6.36845C154.623 6.41007 154.736 6.49332 154.792 6.49332C155.132 6.49332 155.528 6.45169 155.755 6.24357C155.981 6.03546 156.208 5.91058 156.547 5.91058C157.226 5.82734 157.906 5.78571 158.585 5.70246C159.038 5.66084 159.491 5.70246 159.887 5.82734C160.17 5.91058 160.283 5.99383 160.226 6.03546C160.113 6.16033 159.943 6.16033 159.774 6.20195C159.491 6.24357 159.208 6.24357 158.981 6.24357C158.925 6.24357 158.868 6.2852 158.755 6.32682C159.491 6.36845 160.226 6.45169 160.906 6.49332C161.245 6.49332 161.528 6.49332 161.868 6.45169C162.491 6.41007 163.113 6.36845 163.736 6.41007C164.019 6.45169 164.245 6.36845 164.528 6.36845C164.755 6.32682 164.811 6.24357 164.698 6.03546C164.642 5.95221 164.642 5.91058 164.755 5.86896C164.811 5.86896 164.925 5.82734 165.038 5.82734C165.491 5.86896 165.943 5.86896 166.396 5.82734C166.736 5.78571 167.132 5.82734 167.472 5.82734C167.868 5.82734 168.151 5.91058 168.377 6.16033C168.66 6.45169 169.057 6.32682 169.34 6.20195C169.509 6.1187 169.623 5.95221 169.792 5.82734C170.132 5.61922 170.528 5.49435 170.925 5.57759C171.604 5.74409 172.226 5.78571 172.906 5.74409C173.075 5.74409 173.245 5.78571 173.415 5.78571C173.585 5.78571 173.585 5.86896 173.528 5.99383C173.415 6.24358 173.472 6.36845 173.811 6.36845C174.717 6.36845 175.623 6.32682 176.528 6.32682C176.755 6.32682 177.038 6.2852 177.094 6.07708C177.208 5.82734 177.377 5.78571 177.717 5.78571C177.83 5.78571 178 5.78571 178.113 5.82734C178.226 5.82734 178.226 5.91058 178.226 5.99383C178.17 6.16033 178.396 6.24358 178.509 6.2852C178.906 6.41007 179.302 6.2852 179.642 6.1187C179.642 6.1187 179.585 5.99383 179.528 5.95221C179.472 5.86896 179.472 5.82734 179.585 5.78571C180.208 5.66084 180.83 5.74409 181.396 5.99383L181.396 5.95221C181.509 6.1187 181.679 6.24358 181.962 6.16033L181.906 6.20195C182.302 6.20195 182.698 6.1187 183.094 6.16033C183.491 6.20195 183.887 6.2852 184.283 6.32682C184.396 6.32682 184.623 6.24358 184.623 6.20195C184.623 6.16033 184.566 6.07708 184.509 6.07708C184.453 6.03546 184.34 6.03546 184.283 5.99383C184.283 5.99383 184.226 5.95221 184.226 5.91058C184.226 5.86896 184.283 5.82734 184.283 5.82734C184.906 5.78571 185.528 5.74409 186.151 5.70246C186.491 5.66084 186.774 5.78571 186.887 6.03546C186.943 6.20195 187.17 6.2852 187.396 6.32682C187.679 6.36845 187.962 6.36845 188.189 6.36845C189.377 6.36845 190.623 6.36845 191.811 6.36845C192.208 6.36845 192.604 6.32682 193 6.20195C193.057 6.20195 193.113 6.16033 193.113 6.16033C193.17 6.07708 193.113 6.03546 193 6.03546C192.491 5.99383 191.925 5.99383 191.415 5.95221C191.415 5.95221 191.358 5.91059 191.358 5.86896C191.358 5.82734 191.415 5.78571 191.415 5.78571C191.585 5.74409 191.755 5.70247 191.925 5.74409C192.434 5.82734 192.887 5.86896 193.396 5.78571C193.679 5.74409 194.019 5.82734 194.302 5.82734C194.585 5.82734 194.811 5.86896 195.094 5.91058C195.094 6.03546 195.038 6.1187 195.038 6.20195C195.094 6.2852 195.208 6.36845 195.321 6.36845C195.604 6.41007 195.943 6.4517 196.226 6.49332C196.283 6.49332 196.34 6.57657 196.396 6.57657C196.34 6.61819 196.226 6.61819 196.17 6.65981C196.057 6.70144 195.943 6.70144 195.774 6.74306C195.774 6.74306 195.774 6.78469 195.774 6.82631C195.774 6.86793 195.83 6.86793 195.887 6.86793C196.566 6.90956 197.245 6.74306 197.698 6.36845C197.925 6.36845 198.151 6.36845 198.321 6.36845C198.377 6.36845 198.377 6.2852 198.434 6.24358C198.377 6.20195 198.264 6.16033 198.208 6.16033C198.038 6.20195 197.811 6.32682 197.642 6.36845C197.528 6.2852 197.415 6.16033 197.302 6.07708C197.302 6.03546 197.245 5.99383 197.245 5.99383C197.302 5.95221 197.358 5.86896 197.415 5.86896C197.755 5.86896 198.038 5.82734 198.377 5.82734C198.717 5.82734 199 5.91058 199.226 6.1187C199.34 6.20195 199.453 6.16033 199.566 6.07708C199.679 5.99383 199.736 5.86896 199.849 5.86896C200.358 5.78571 200.811 5.70247 201.321 5.74409C202.453 5.91058 203.585 5.82734 204.717 5.78571C205 5.78571 205.226 5.70247 205.453 5.57759C205.679 5.45272 205.962 5.45272 206.189 5.57759C206.472 5.78571 206.811 5.82734 207.208 5.82734C207.604 5.82734 208 5.82734 208.453 5.82734C208.509 5.82734 208.623 5.86896 208.679 5.91058C208.736 5.95221 208.566 6.1187 208.453 6.1187C208.17 6.16033 207.943 6.16033 207.66 6.20195C207.547 6.20195 207.491 6.2852 207.547 6.36845C207.547 6.41007 207.604 6.41007 207.66 6.41007C208.509 6.32682 209.359 6.49332 210.208 6.32682C210.264 6.32682 210.321 6.2852 210.321 6.2852C210.264 6.24358 210.264 6.20195 210.208 6.1187C210.151 6.07708 210.094 6.03546 210.038 5.95221C210.038 5.95221 210.038 5.86896 210.094 5.86896C210.151 5.82734 210.264 5.82734 210.321 5.82734C210.887 5.82734 211.396 5.78571 211.962 5.82734C212.698 5.82734 213.434 5.86896 214.113 5.78571C214.396 5.74409 214.679 5.78571 214.906 5.78571C215.472 5.82734 215.981 5.86896 216.547 5.86896C216.774 5.86896 216.887 5.95221 216.83 6.03546C216.774 6.07708 216.717 6.1187 216.604 6.1187C215.811 6.16033 215.075 6.20195 214.283 6.1187C213.547 6.03546 212.811 6.07708 212.132 6.07708C212.075 6.07708 211.962 6.1187 211.962 6.20195C211.962 6.24358 212.019 6.32682 212.075 6.32682C212.358 6.36845 212.585 6.41007 212.868 6.4517C213.151 6.49332 213.491 6.57657 213.83 6.70144C213.887 6.70144 214 6.65981 214.113 6.61819C214.453 6.4517 214.849 6.36845 215.245 6.4517C215.981 6.57657 216.66 6.53494 217.396 6.53494C217.736 6.53494 218.019 6.53494 218.358 6.49332C218.811 6.41007 219.264 6.4517 219.717 6.53494C220.057 6.61819 220.396 6.65981 220.792 6.61819C221.019 6.61819 221.245 6.65982 221.472 6.65982C221.642 6.65982 221.811 6.70144 221.981 6.70144C223.566 6.53494 225.151 6.53494 226.736 6.61819C226.792 6.61819 226.849 6.61819 226.849 6.61819C226.906 6.57657 227.019 6.57657 227.075 6.53494C227.075 6.49332 227.019 6.41007 226.962 6.36845C226.736 6.20195 226.736 6.1187 226.962 6.03546C227.302 5.95221 227.642 5.86896 227.981 5.82734C228.377 5.74409 228.774 5.74409 229.113 5.99383C229.226 6.07708 229.34 6.1187 229.453 6.1187C229.906 6.07708 230.358 6.24358 230.755 6.2852C231.094 6.32682 231.491 6.36845 231.83 6.32682C232.34 6.24358 232.792 6.2852 233.302 6.32682C233.981 6.41007 234.66 6.36845 235.34 6.20195C235.566 6.1187 235.849 6.11871 236.132 6.07708C236.302 6.07708 236.528 6.07708 236.642 6.07708C237.094 6.16033 237.491 6.2852 237.943 6.11871C238 6.11871 238.057 6.11871 238.057 6.11871C239.075 6.41007 240.208 6.36845 241.226 6.61819C241.283 6.61819 241.283 6.74306 241.283 6.78469C241.283 6.78469 241.226 6.82631 241.17 6.82631C241.057 6.82631 241 6.82631 240.887 6.82631C240.434 6.70144 239.925 6.70144 239.415 6.74306C239.358 6.74306 239.245 6.78469 239.189 6.82631C239.132 6.82631 239.132 6.86794 239.132 6.90956C239.132 6.95118 239.132 6.99281 239.189 6.99281C239.245 7.03443 239.358 7.07605 239.415 7.07605C240.038 7.11768 240.66 7.11768 241.34 7.11768C242.132 7.11768 242.868 7.11768 243.66 7.24255C244.226 7.3258 244.849 7.36742 245.415 7.28417C245.472 7.28417 245.585 7.20093 245.585 7.1593C245.585 7.11768 245.472 7.03443 245.415 7.03443C245.189 6.99281 244.962 6.99281 244.736 6.95118C244.453 6.90956 244.283 6.74306 244.113 6.61819C244.849 6.70144 245.642 6.74306 246.377 6.74306C246.717 6.74306 247.113 6.78469 247.453 6.78469C248.075 6.82631 248.698 6.86794 249.321 6.86794C249.774 6.86794 250.226 6.95118 250.679 6.99281C250.792 6.99281 250.849 7.07605 250.792 7.11768C250.792 7.1593 250.736 7.1593 250.679 7.1593C250.283 7.1593 249.887 7.1593 249.491 7.1593C248.925 7.1593 248.415 7.11768 247.849 7.11768C247.792 7.11768 247.736 7.20093 247.736 7.24255L247.792 7.3258C248.189 7.45067 248.585 7.49229 248.981 7.53392C249.774 7.57554 250.623 7.57554 251.415 7.61716C251.642 7.61716 251.868 7.53392 251.981 7.40905C252.094 7.28417 252.151 7.20093 252.264 7.07605C252.321 7.03443 252.434 6.99281 252.491 6.99281C252.604 6.99281 252.774 6.99281 252.887 7.07605C253 7.1593 252.943 7.24255 252.887 7.3258C252.774 7.49229 252.83 7.57554 253 7.61716C253.113 7.65879 253.283 7.65879 253.396 7.65879C253.566 7.65879 253.792 7.61716 253.792 7.49229C253.849 7.24255 254.075 7.1593 254.358 7.1593C254.868 7.1593 255.377 7.07605 255.83 7.28417C255.887 7.28417 255.887 7.3258 255.887 7.36742C255.887 7.40905 255.887 7.45067 255.83 7.45067C255.604 7.49229 255.434 7.53392 255.208 7.57554C255.151 7.57554 255.094 7.61716 255.094 7.61716C255.151 7.65879 255.151 7.74204 255.208 7.74204C256 7.82528 256.792 7.90853 257.642 7.99178C257.755 7.99178 257.811 7.99178 257.925 7.99178C259.509 7.90853 261.094 8.07503 262.623 8.11665C262.736 8.11665 262.792 8.11665 262.906 8.11665C263.981 8.07503 264.943 8.24152 265.962 8.44964C266.245 8.49127 266.472 8.49127 266.755 8.49127C267.038 8.44964 267.321 8.40802 267.547 8.44964C268.623 8.61614 269.698 8.57451 270.774 8.65776C271.736 8.74101 272.642 8.69939 273.604 8.90751C273.83 8.94913 274.113 8.94913 274.396 8.94913C275.189 8.94913 275.925 8.94913 276.66 9.074C276.604 9.11562 276.491 9.15725 276.434 9.19887C276.377 9.19887 276.377 9.2405 276.377 9.28212C276.377 9.32374 276.434 9.36537 276.434 9.36537C276.547 9.40699 276.604 9.36537 276.604 9.28212C276.604 9.19887 276.604 9.15725 276.604 9.074C276.887 9.074 277.17 9.03238 277.396 9.03238C278.019 9.074 278.642 9.11563 279.264 9.19887C279.83 9.28212 280.453 9.32374 281.019 9.32374C281.585 9.32374 282.094 9.40699 282.491 9.73998C282.774 9.9481 283.17 9.9481 283.453 9.73998C283.736 9.53186 283.962 9.49024 284.302 9.53186C284.528 9.57349 284.755 9.57349 284.981 9.65674C285.717 9.82323 286.453 9.9481 287.245 9.9481C287.415 9.9481 287.585 9.98973 287.755 10.0313C287.868 10.073 287.981 10.1978 287.868 10.2811C287.811 10.3227 287.755 10.406 287.698 10.406C287.132 10.406 286.509 10.3643 285.943 10.3643C285.887 10.3643 285.774 10.406 285.717 10.406L285.66 10.4892C285.774 10.6557 285.943 10.8222 286.226 10.9055C286.679 11.0303 287.189 11.1136 287.698 11.1136C287.698 11.1968 287.755 11.3217 287.755 11.4049C287.811 11.6547 287.981 11.8212 288.321 11.9044C288.604 11.946 288.943 12.0293 289.17 12.1542C289.34 12.2374 289.623 12.279 289.792 12.2374C290.585 12.0709 291.377 12.1542 292.17 12.3623C292.283 12.4039 292.453 12.4455 292.566 12.4039C293.528 12.3623 294.434 12.6537 295.34 12.7785C295.736 12.8618 296.132 12.9034 296.528 12.8618C297.377 12.7785 298.226 12.8201 299.075 12.945C299.358 12.9866 299.698 12.9866 300.038 12.9866C300.264 13.0283 300.491 13.0283 300.66 13.1115C301.057 13.278 301.396 13.3196 301.849 13.3196C302.755 13.4029 303.66 13.4861 304.566 13.5694C304.849 13.611 305.075 13.6526 305.302 13.7775C305.358 13.8191 305.358 13.9024 305.358 13.944C305.358 13.944 305.302 13.9856 305.245 13.9856C306.094 13.7359 305.698 13.6526 305.358 13.4861ZM227.642 7.61716L227.642 7.57554C227.642 7.57554 227.642 7.65879 227.642 7.61716C227.698 7.61716 227.698 7.57554 227.755 7.57554L227.755 7.61716C227.698 7.61716 227.698 7.61716 227.642 7.61716ZM124.962 6.36844C124.962 6.41007 124.962 6.41007 124.962 6.45169C124.962 6.49332 124.962 6.49332 124.962 6.53494C124.962 6.45169 124.962 6.41007 124.962 6.36844ZM150.208 7.1593C150.208 7.20092 150.264 7.20092 150.264 7.24255C150.208 7.20092 150.208 7.20092 150.208 7.1593ZM298.736 14.1105C298.792 14.1521 298.849 14.1937 298.906 14.2354C298.906 14.2354 298.962 14.277 299.019 14.277C299.075 14.277 299.075 14.2354 299.132 14.2354C299.075 14.1937 299.075 14.1521 299.019 14.1105C298.906 14.1105 298.792 14.1521 298.736 14.1105ZM104.472 8.36639C104.585 8.36639 104.698 8.36639 104.811 8.36639C104.868 8.36639 104.925 8.36639 104.925 8.32477C104.925 8.32477 104.981 8.28314 104.981 8.24152C104.925 8.24152 104.811 8.15827 104.755 8.1999C104.642 8.24152 104.528 8.28314 104.472 8.36639ZM143.585 5.95221C143.755 6.1187 144.038 6.16033 144.321 6.16033C144.434 6.16033 144.604 6.16033 144.604 6.03545C144.66 5.95221 144.491 5.86896 144.321 5.86896C144.094 5.91058 143.811 5.95221 143.585 5.95221ZM281.245 9.86485C281.472 10.0313 281.698 10.1562 282.038 10.1562C282.321 10.1562 282.547 10.1562 282.83 10.1562C282.943 10.1562 283 10.1146 282.887 9.98973C282.377 9.9481 281.811 9.90648 281.245 9.86485C281.132 9.86485 281.075 9.86485 280.962 9.86485C280.906 9.86485 280.849 9.86485 280.849 9.86485L280.792 9.90648C280.849 9.90648 280.962 9.9481 281.019 9.90648C281.075 9.90648 281.189 9.86485 281.245 9.86485ZM280.17 10.406C280.226 10.4892 280.283 10.5725 280.396 10.6557C280.509 10.739 280.679 10.8638 280.849 10.8638C281.528 10.9471 282.151 11.0303 282.83 10.9471C282.887 10.9471 282.943 10.8638 282.943 10.7806C282.943 10.739 282.83 10.6557 282.774 10.6557C282.66 10.6557 282.491 10.6557 282.377 10.6557C281.642 10.739 280.962 10.6557 280.17 10.406C279.774 10.406 279.377 10.4476 278.981 10.4476C278.868 10.4476 278.811 10.4476 278.698 10.4476C278.642 10.4892 278.585 10.5308 278.585 10.5725C278.642 10.6141 278.698 10.6557 278.811 10.6557C279.264 10.739 279.717 10.5725 280.17 10.406ZM215.472 7.86691C215.981 8.15827 216.547 8.11665 217.17 8.11665C217.226 8.0334 217.17 7.99178 217.057 7.95015C216.887 7.86691 216.774 7.78366 216.83 7.61716C216.887 7.49229 217.057 7.40904 217.226 7.36742C217.34 7.3258 217.509 7.3258 217.623 7.3258C217.792 7.3258 217.962 7.3258 218.189 7.3258C218.415 7.3258 218.528 7.20093 218.415 7.1593C218.358 7.11768 218.245 7.07605 218.189 7.07605C217.566 7.1593 216.943 7.1593 216.321 7.1593C216.038 7.1593 215.981 7.24255 216.094 7.45067C216.208 7.65879 216.151 7.78366 215.868 7.82528C215.755 7.86691 215.585 7.86691 215.472 7.86691C215.415 7.86691 215.415 7.86691 215.358 7.86691C215.415 7.86691 215.472 7.86691 215.472 7.86691ZM276.66 10.1562C276.264 10.2395 275.925 10.3227 275.528 10.4476L275.528 10.5308C275.981 10.6973 276.434 10.739 276.943 10.6973C277 10.6973 277 10.6557 277.057 10.6141C277.057 10.5725 277.113 10.5308 277.057 10.5308C276.887 10.3643 276.774 10.2395 276.66 10.1562C277.17 9.9481 277.736 9.90648 278.358 9.9481C278.642 9.9481 278.868 9.98973 279.151 9.98973C279.208 9.98973 279.264 9.90648 279.321 9.86485C279.321 9.86485 279.264 9.82323 279.264 9.78161C278.925 9.65673 278.642 9.53186 278.302 9.40699C277.679 9.61511 277 9.57349 276.321 9.57349C276.038 9.57349 275.811 9.53186 275.528 9.53186C275.472 9.53186 275.358 9.57349 275.302 9.61511C275.302 9.61511 275.245 9.65673 275.245 9.69836C275.245 9.73998 275.302 9.78161 275.302 9.78161C275.528 9.82323 275.755 9.82323 275.981 9.82323C276.208 9.78161 276.491 9.90648 276.66 10.1562ZM285.038 10.2395C285.038 10.3643 284.981 10.4892 284.981 10.6141C284.925 10.739 284.868 10.8638 284.642 10.9055C284.528 10.9471 284.358 10.9887 284.472 11.1136C285.547 11.3217 286.679 11.4049 287.811 11.3217C287.925 11.3217 287.981 11.2384 287.981 11.1968C287.981 11.1552 287.868 11.0719 287.811 11.0719C287.698 11.0303 287.528 11.0303 287.415 11.0303C287.019 11.1136 286.623 11.0303 286.226 10.9055C286 10.8222 285.887 10.6973 285.83 10.5308C285.774 10.2811 285.604 10.1978 285.264 10.1978C285.208 10.2395 285.094 10.2395 285.038 10.2395ZM60.3208 6.74306C59.3019 7.07605 59.1321 7.11767 58.2264 7.1593C57.3208 7.1593 56.4151 7.20092 55.5094 7.20092C54.6604 7.20092 53.8113 7.20092 52.9623 7.20092C52.9057 7.20092 52.8491 7.24254 52.8491 7.24254C52.7925 7.28417 52.8491 7.36742 52.9623 7.36742C53.5849 7.36742 54.2076 7.32579 54.8302 7.36742C56.3585 7.36742 57.8868 7.40904 59.4151 7.36742C59.8679 7.36742 60.3208 7.32579 60.7736 7.36742C62.0189 7.45066 63.3208 7.36742 64.566 7.32579C65.0189 7.32579 65.4717 7.24254 65.8679 7.1593C65.8679 7.1593 65.9245 7.11767 65.9245 7.07605C65.9245 7.03443 65.8679 7.03443 65.8679 6.9928C65.2453 6.95118 64.6226 6.90955 64 6.86793C63.3774 6.86793 62.7547 6.95118 62.1321 6.86793C61.5094 6.9928 60.8868 6.90955 60.3208 6.74306ZM47.1321 7.1593C46.1132 7.1593 45.0378 7.1593 44.0189 7.1593C43.9057 7.1593 43.7359 7.20092 43.6226 7.20092C43.6226 7.20092 43.5661 7.24254 43.5661 7.28417C43.5661 7.32579 43.566 7.36742 43.6226 7.36742C43.7925 7.40904 43.9623 7.45066 44.1321 7.45066C45.3774 7.45066 46.5661 7.49229 47.8113 7.49229C48.6038 7.49229 49.4528 7.45066 50.2453 7.45066C50.3585 7.45066 50.4717 7.40904 50.5849 7.36742C50.5849 7.36742 50.6415 7.28417 50.5849 7.28417C50.4717 7.24254 50.3585 7.1593 50.2453 7.1593C49.2264 7.1593 48.1509 7.1593 47.1321 7.1593ZM52.566 6.57656C53.5283 6.53494 54.3208 6.65981 55.1132 6.61819C55.566 6.61819 56.0189 6.61819 56.4717 6.61819C57.717 6.61819 59.0189 6.57656 60.2642 6.57656C60.434 6.57656 60.5472 6.45169 60.4906 6.41007C60.434 6.36844 60.3774 6.2852 60.3208 6.2852C59.6981 6.20195 59.0755 6.16032 58.4528 6.20195C57.717 6.2852 56.9245 6.36844 56.1887 6.24357C56.0755 6.24357 56.0189 6.24357 55.9057 6.24357C55.1698 6.36844 54.3774 6.32682 53.5849 6.32682C53.3019 6.32682 52.9623 6.32682 52.566 6.57656ZM291.151 12.8201C291.434 12.8201 291.774 12.8618 292.057 12.8618C293.189 12.945 294.321 13.0283 295.396 13.278C296.019 13.4445 296.642 13.4029 297.264 13.2364C297.321 13.2364 297.377 13.1948 297.321 13.1531C297.321 13.1115 297.321 13.0283 297.264 12.9866C296.925 12.8618 296.472 12.8201 296.075 12.7785C294.66 12.7369 293.189 12.6537 291.774 12.612C291.604 12.612 291.434 12.612 291.264 12.6537C291.151 12.6953 291.094 12.7369 291.151 12.8201ZM69.2642 6.2852C69.7736 6.32682 70.0566 6.36844 70.3396 6.36844C71.9245 6.36844 73.5094 6.32682 75.0377 6.32682C75.2075 6.32682 75.3774 6.32682 75.5472 6.2852C75.6038 6.2852 75.717 6.24357 75.7736 6.20195C75.7736 6.20195 75.8302 6.1187 75.7736 6.1187C75.6604 6.07708 75.5472 5.99383 75.434 5.99383C74.0755 6.07708 72.7736 5.91058 71.4151 6.03545C70.7359 5.99383 70.1132 6.07708 69.2642 6.2852ZM77.8113 6.1187C78.2642 6.24357 78.717 6.24357 79.1698 6.20195C80.5849 6.16032 82.0566 6.1187 83.4717 6.07708C83.5849 6.07708 83.7547 6.03545 83.8679 6.03545C83.9811 6.03545 84.0377 5.95221 83.9811 5.91058C83.9811 5.86896 83.9245 5.86896 83.8679 5.86896C82.9057 5.86896 82 5.91058 81.0377 5.78571C80.7547 5.74409 80.4151 5.74409 80.0755 5.74409C79.283 5.74409 78.8868 5.78571 77.8113 6.1187ZM256.226 9.15725C256 9.15725 255.774 9.15725 255.547 9.15725C255.491 9.15725 255.377 9.2405 255.377 9.28212C255.377 9.32374 255.434 9.40699 255.491 9.40699C256.226 9.57349 256.962 9.61511 257.755 9.57349C258.094 9.57349 258.377 9.53186 258.717 9.53186C259.34 9.57349 259.962 9.61511 260.585 9.65673C260.925 9.65673 261.321 9.65673 261.66 9.65673C261.717 9.65673 261.774 9.61511 261.774 9.61511C261.774 9.57349 261.717 9.49024 261.66 9.44862C261.434 9.32374 261.151 9.32374 260.868 9.32374C260.189 9.32374 259.509 9.28212 258.83 9.32374C258.151 9.36537 257.528 9.15725 256.849 9.11562C256.679 9.15725 256.453 9.15725 256.226 9.15725ZM269.981 9.9481C269.811 9.9481 269.698 9.9481 269.528 9.98973C269.472 9.98973 269.415 10.0313 269.302 10.073C269.358 10.1146 269.415 10.1562 269.528 10.1978C269.698 10.2395 269.868 10.2811 270.038 10.2811C271.17 10.3643 272.302 10.406 273.434 10.4476C273.491 10.4476 273.547 10.4476 273.547 10.406C273.604 10.406 273.604 10.3643 273.604 10.3227C273.604 10.2811 273.604 10.2395 273.547 10.2395C273.038 10.1978 272.472 10.1146 271.962 10.073C271.34 10.0313 270.66 9.98973 269.981 9.9481ZM203.189 5.53597C202.849 5.53597 202.453 5.57759 202.113 5.57759C202.057 5.57759 201.943 5.66084 201.943 5.70247C201.943 5.74409 202 5.86896 202.057 5.86896C202.849 5.99383 203.642 6.03546 204.434 5.95221C204.491 5.95221 204.604 5.86896 204.604 5.82734C204.604 5.78571 204.547 5.70247 204.491 5.66084C204.094 5.53597 203.642 5.53597 203.189 5.53597ZM296.415 14.1937C296.528 14.1937 296.585 14.1937 296.642 14.1937C296.698 14.1521 296.755 14.1105 296.811 14.0689C296.755 14.0272 296.698 13.944 296.642 13.944C296.132 13.9024 295.566 13.8191 295.057 13.7775C294.604 13.7775 294.151 13.7359 293.755 13.6526C293.415 13.611 293.075 13.611 292.679 13.5694C292.679 13.5694 292.623 13.611 292.623 13.6526C292.623 13.6942 292.679 13.7359 292.679 13.7359C292.792 13.7775 292.962 13.7775 293.075 13.8191C293.925 13.8607 294.774 13.944 295.566 14.1105C295.849 14.1521 296.189 14.1521 296.415 14.1937ZM199.736 7.86691L199.792 7.90853C200.868 7.95015 201.943 7.99178 203.019 7.99178C203.642 7.99178 204.264 7.95015 205 7.90853C202.849 7.65879 202.623 7.74203 199.736 7.86691ZM65.0755 6.2852C64.0566 6.03545 63.151 6.16032 62.2453 6.32682C62.1887 6.32682 62.1887 6.36844 62.1887 6.41007C62.1887 6.45169 62.1887 6.49332 62.2453 6.49332C62.4151 6.53494 62.5849 6.57656 62.7547 6.57656C63.5472 6.57656 64.283 6.45169 65.0755 6.2852ZM134.755 7.61716C134.528 7.53391 134.302 7.45067 134.019 7.36742C133.792 7.28417 133.566 7.32579 133.396 7.40904C133.226 7.49229 133.17 7.65879 133.283 7.74203C133.453 7.8669 133.566 7.99178 133.509 8.15827C133.509 8.28314 133.792 8.36639 133.906 8.32477C134.189 8.15827 134.415 7.99178 134.698 7.82528C134.698 7.74203 134.698 7.70041 134.755 7.61716ZM271.849 9.57349C271.792 9.57349 272.019 9.57349 272.245 9.53186C272.302 9.53186 272.415 9.44862 272.415 9.40699C272.415 9.36537 272.415 9.28212 272.358 9.2405C272.189 9.11562 271.962 8.99075 271.792 9.074C271.226 9.19887 270.66 9.15725 270.094 9.2405C270.038 9.2405 270.038 9.28212 270.038 9.32374C270.038 9.36537 270.094 9.40699 270.094 9.40699C270.491 9.57349 271 9.57349 271.849 9.57349ZM273.264 11.6131C273.547 11.5714 273.83 11.5714 274.057 11.5298C274.113 11.5298 274.113 11.4882 274.113 11.4466C274.113 11.4049 274.057 11.2801 274 11.2801C273.434 11.2384 272.868 11.1552 272.302 11.1136C272.075 11.1136 271.849 11.1552 271.623 11.1552C271.509 11.1552 271.453 11.1968 271.453 11.2801C271.453 11.3217 271.566 11.4049 271.623 11.4049C272.245 11.5298 272.755 11.5714 273.264 11.6131ZM161.019 7.45067C161.245 7.45067 161.472 7.40904 161.698 7.36742C161.755 7.36742 161.868 7.28417 161.868 7.24255C161.925 7.1593 161.868 7.03443 161.811 6.95118C161.472 6.61819 160.623 6.78468 160.509 7.20092C160.509 7.24255 160.566 7.3258 160.623 7.36742C160.792 7.40904 160.906 7.40904 161.019 7.45067ZM261.491 8.74101C261.774 8.78263 262 8.65776 262 8.53289C262 8.40802 262 8.28315 261.943 8.15828C261.774 7.95016 261.377 7.90853 261.151 8.0334C260.981 8.11665 260.981 8.40802 261.208 8.57451C261.264 8.65776 261.434 8.69939 261.491 8.74101ZM140.811 8.36639C140.981 8.36639 141.321 8.32477 141.604 8.28314C141.66 8.28314 141.774 8.24152 141.83 8.1999C141.83 8.1999 141.83 8.15827 141.83 8.11665C141.83 8.07502 141.774 8.07502 141.717 8.0334C141.321 7.95015 140.925 7.90853 140.528 8.0334C140.415 8.07502 140.302 8.15827 140.245 8.1999C140.189 8.24152 140.358 8.36639 140.528 8.36639C140.585 8.36639 140.642 8.36639 140.811 8.36639ZM43 6.32682C42.7736 6.36844 42.5472 6.36844 42.3208 6.36844C42.2076 6.36844 42.151 6.41007 42.151 6.49331C42.151 6.53494 42.2076 6.53494 42.2642 6.53494C42.6604 6.57656 43.0566 6.61819 43.4528 6.65981C43.5661 6.65981 43.7359 6.65981 43.8491 6.61819C43.9057 6.61819 43.9623 6.53494 44.0755 6.49331C44.0189 6.45169 43.9623 6.36844 43.9057 6.36844C43.6227 6.36844 43.3397 6.36844 43 6.32682ZM148.34 6.74306C148.509 6.74306 148.623 6.74306 148.679 6.70144C148.736 6.65981 148.792 6.61819 148.792 6.53494L148.736 6.45169C148.453 6.32682 148 6.36845 147.774 6.53494L147.774 6.61819C147.943 6.70144 148.17 6.70144 148.34 6.74306ZM212.925 8.07503C213.094 8.0334 213.151 8.0334 213.264 8.0334C213.321 7.99178 213.377 7.95015 213.377 7.86691C213.377 7.86691 213.321 7.82528 213.321 7.78366C213.038 7.70041 212.755 7.70041 212.415 7.74204C212.302 7.74204 212.245 7.82528 212.302 7.86691C212.302 7.90853 212.358 7.90853 212.358 7.95015C212.585 8.0334 212.755 8.0334 212.925 8.07503ZM176.868 7.11768C176.811 7.07605 176.811 7.03443 176.811 7.03443C176.358 6.95118 175.849 6.95118 175.34 6.9928C175.226 6.9928 175.17 7.03443 175.226 7.11768C175.226 7.1593 175.283 7.1593 175.34 7.1593C175.849 7.28417 176.359 7.24255 176.868 7.11768ZM126.717 8.32477C126.547 8.32477 126.377 8.36639 126.264 8.36639C126.208 8.36639 126.151 8.40802 126.151 8.40802C126.094 8.44964 126.094 8.53289 126.208 8.57451C126.321 8.61613 126.434 8.69938 126.547 8.74101C126.774 8.82425 127.057 8.78263 127.226 8.57451C127.283 8.53289 127.226 8.40802 127.17 8.40802C127 8.36639 126.83 8.36639 126.717 8.32477ZM159.321 8.24152C159.604 8.24152 159.774 8.11665 159.83 7.95015C159.83 7.90853 159.774 7.82528 159.717 7.78366C159.491 7.70041 159.264 7.74203 159.094 7.82528C158.981 7.8669 158.981 8.0334 159.038 8.07502C159.151 8.15827 159.264 8.1999 159.321 8.24152ZM196.849 7.07605C196.792 7.03443 196.736 6.90956 196.736 6.90956C196.453 6.90956 196.226 6.95118 195.943 6.95118C195.887 6.95118 195.887 6.99281 195.887 7.03443C195.887 7.07605 195.887 7.11768 195.887 7.11768C196.17 7.3258 196.396 7.3258 196.736 7.20092C196.736 7.20092 196.792 7.11768 196.849 7.07605ZM230.868 6.41007C231.094 6.36845 231.264 6.36845 231.434 6.32682C231.547 6.32682 231.604 6.24358 231.547 6.16033C231.547 6.11871 231.491 6.11871 231.434 6.07708C231.094 5.99383 230.755 5.99383 230.415 6.16033L230.415 6.24358C230.585 6.32682 230.755 6.36845 230.868 6.41007ZM180.321 7.86691C180.887 7.90853 181.17 7.95015 181.453 7.99178C181.509 7.99178 181.566 7.95015 181.566 7.95015C181.566 7.86691 181.509 7.82528 181.453 7.82528C181.113 7.78366 180.774 7.74203 180.321 7.86691ZM228.887 8.40802C229.113 8.40802 229.226 8.40802 229.283 8.40802C229.34 8.40802 229.453 8.32477 229.509 8.28315C229.566 8.24152 229.396 8.11665 229.226 8.11665C228.943 8.11665 228.717 8.15827 228.434 8.15827C228.377 8.15827 228.321 8.1999 228.321 8.1999C228.377 8.24152 228.377 8.32477 228.491 8.32477C228.66 8.40802 228.83 8.40802 228.887 8.40802ZM185.359 6.24358C185.359 6.2852 185.358 6.2852 185.302 6.32682C185.472 6.32682 185.642 6.36845 185.811 6.32682C185.981 6.32682 186.151 6.36845 186.264 6.24358C185.981 6.24358 185.642 6.24358 185.359 6.24358ZM96.8302 8.65776C96.8302 8.61613 96.8302 8.57451 96.7736 8.57451C96.6038 8.44964 96.3774 8.44964 96.2076 8.57451C96.151 8.61613 96.151 8.69938 96.151 8.74101C96.3208 8.94912 96.6604 8.94912 96.7736 8.74101C96.8302 8.74101 96.8302 8.69938 96.8302 8.65776ZM213.83 7.07605C213.83 6.95118 213.774 6.82631 213.66 6.86793C213.604 6.86793 213.491 6.90956 213.434 6.95118C213.377 6.99281 213.321 7.07605 213.321 7.11768C213.264 7.20093 213.377 7.3258 213.491 7.3258C213.717 7.28417 213.83 7.24255 213.83 7.07605ZM187.396 7.03443C187.34 6.99281 187.283 6.90956 187.226 6.90956C187.057 6.90956 186.887 6.95118 186.717 6.95118C186.66 6.95118 186.604 6.9928 186.604 6.9928C186.604 7.03443 186.66 7.11768 186.66 7.1593C186.83 7.28417 187.057 7.28417 187.226 7.1593C187.34 7.1593 187.34 7.07605 187.396 7.03443ZM51.0944 6.45169C50.6981 6.41007 50.6981 6.41007 50.3585 6.49331C50.5849 6.49332 50.8113 6.57656 51.0944 6.45169ZM155.132 8.0334C155.132 7.99178 155.132 7.95015 155.075 7.90853C154.962 7.82528 154.849 7.78366 154.736 7.86691C154.679 7.90853 154.623 7.95015 154.623 8.0334C154.623 8.07502 154.736 8.15827 154.792 8.15827C154.906 8.11665 155.019 8.07502 155.132 8.0334ZM261.434 10.9471C261.491 10.9471 261.547 10.9055 261.547 10.9055C261.547 10.8638 261.547 10.8222 261.547 10.8222C261.377 10.7806 261.264 10.6973 261.094 10.6557C261.038 10.6557 260.981 10.6557 260.981 10.6557C260.981 10.6973 260.981 10.7806 260.981 10.8222C261.094 10.9471 261.264 10.9887 261.434 10.9471ZM188.981 7.86691C189.208 7.86691 189.321 7.82528 189.321 7.74203C189.321 7.65879 189.264 7.61716 189.151 7.61716C189.038 7.61716 188.925 7.65879 188.868 7.74203C188.868 7.82528 188.925 7.86691 188.981 7.86691ZM169.736 7.07605C169.679 7.03443 169.566 6.95118 169.509 6.90956C169.396 6.86793 169.283 6.95118 169.17 7.03443C169.113 7.11768 169.17 7.24255 169.283 7.28417C169.509 7.3258 169.679 7.24255 169.736 7.07605ZM111.604 8.57451C111.66 8.57451 111.717 8.57451 111.717 8.57451C111.887 8.53289 112 8.40801 112.057 8.28314C112.057 8.24152 112 8.15827 111.943 8.11665L111.83 8.11665C111.604 8.1999 111.491 8.28314 111.547 8.49126C111.547 8.49126 111.604 8.53289 111.604 8.57451ZM166.792 9.9481C166.792 9.86485 166.736 9.82323 166.623 9.82323C166.509 9.82323 166.453 9.86485 166.453 9.9481C166.453 10.0313 166.509 10.073 166.623 10.073C166.736 10.073 166.792 10.0313 166.792 9.9481ZM290.472 13.5694C290.528 13.5694 290.642 13.5694 290.698 13.5694C290.755 13.5694 290.811 13.4861 290.811 13.4445L290.755 13.4029C290.585 13.4029 290.415 13.3613 290.245 13.4029C290.189 13.4029 290.132 13.4861 290.075 13.5278C290.132 13.5278 290.132 13.5694 290.189 13.5694C290.302 13.5694 290.358 13.5694 290.472 13.5694ZM235.962 6.24358C235.849 6.24358 235.679 6.36845 235.736 6.41007C235.792 6.4517 235.849 6.49332 235.962 6.49332C236.019 6.49332 236.075 6.49332 236.075 6.49332C236.132 6.4517 236.245 6.41007 236.245 6.36845C236.245 6.32682 236.189 6.2852 236.075 6.24358C236.075 6.24358 236.019 6.24358 235.962 6.24358ZM193.623 7.1593C193.736 7.1593 193.792 7.1593 193.792 7.1593C193.906 7.1593 193.962 7.11768 193.906 7.07605C193.906 7.07605 193.849 7.03443 193.792 7.03443C193.736 7.03443 193.679 7.03443 193.679 7.03443C193.566 7.03443 193.453 7.07605 193.34 7.11768C193.453 7.07605 193.566 7.11768 193.623 7.1593ZM178.962 6.36845C178.962 6.32682 178.962 6.2852 178.962 6.24358C178.849 6.24358 178.736 6.20195 178.623 6.20195C178.566 6.20195 178.509 6.24358 178.509 6.24358C178.566 6.2852 178.566 6.36845 178.623 6.36845C178.736 6.41007 178.849 6.36845 178.962 6.36845ZM243.321 8.82426C243.377 8.82426 243.491 8.86588 243.604 8.86588C243.717 8.86588 243.83 8.74101 243.83 8.65776C243.774 8.57451 243.604 8.53289 243.491 8.57451C243.321 8.61614 243.208 8.69939 243.321 8.82426ZM262.736 9.11562C262.849 9.11562 263.019 9.11562 263.075 9.074C263.132 9.074 263.132 8.99075 263.189 8.90751C263.132 8.86588 263.019 8.82426 262.962 8.82426C262.906 8.82426 262.792 8.86588 262.736 8.90751C262.679 8.94913 262.736 9.03238 262.736 9.11562ZM267.151 9.90648C267.151 9.86485 267.151 9.82323 267.094 9.82323C266.925 9.73998 266.755 9.73998 266.585 9.82323C266.585 9.82323 266.528 9.90648 266.585 9.90648C266.642 9.98972 266.811 10.0313 266.925 9.98973C267.038 9.98973 267.094 9.90648 267.151 9.90648ZM113.925 8.28314C113.925 8.24152 113.868 8.1999 113.868 8.1999C113.755 8.1999 113.642 8.1999 113.472 8.1999C113.415 8.1999 113.359 8.24152 113.359 8.24152C113.415 8.28314 113.415 8.36639 113.472 8.36639C113.755 8.40801 113.981 8.36639 113.925 8.28314ZM100.396 7.28417C100.453 7.24255 100.566 7.20092 100.566 7.1593C100.623 7.07605 100.453 6.9928 100.34 6.9928C100.283 6.9928 100.17 7.07605 100.17 7.11767C100.113 7.24255 100.226 7.32579 100.396 7.28417ZM125.075 7.90853C125.132 7.90853 125.132 7.95015 125.189 7.95015C125.302 7.95015 125.358 7.95015 125.472 7.90853C125.528 7.90853 125.528 7.8669 125.528 7.82528C125.528 7.74203 125.359 7.70041 125.189 7.74203C125.075 7.78366 125.019 7.82528 125.075 7.90853ZM249.717 9.11562C249.83 9.11562 249.887 9.11562 249.887 9.03238C249.887 8.99075 249.83 8.99075 249.774 8.99075C249.717 8.99075 249.604 8.99075 249.547 9.03238C249.491 9.074 249.604 9.11562 249.717 9.11562ZM105.774 8.94912C105.887 8.94912 105.943 8.9075 105.943 8.82425C105.887 8.78263 105.83 8.74101 105.717 8.74101C105.66 8.74101 105.547 8.78263 105.491 8.82425C105.491 8.82425 105.491 8.9075 105.547 8.9075C105.604 8.94912 105.66 8.94912 105.774 8.94912ZM232.226 8.49127C232.226 8.44964 232.283 8.40802 232.283 8.32477C232.283 8.32477 232.226 8.28315 232.17 8.28315C232.113 8.32477 232.057 8.36639 232.057 8.40802C232.057 8.49127 232.113 8.53289 232.226 8.49127ZM185.189 7.90853C185.245 7.90853 185.302 7.86691 185.415 7.86691C185.358 7.82528 185.359 7.78366 185.359 7.78366C185.302 7.78366 185.189 7.82528 185.132 7.82528C185.132 7.86691 185.132 7.86691 185.189 7.90853ZM162.887 7.95015C162.943 7.95015 163 7.90853 163 7.90853C163.057 7.82528 162.943 7.78366 162.83 7.82528C162.774 7.82528 162.717 7.86691 162.66 7.90853C162.717 7.90853 162.717 7.95015 162.774 7.95015C162.774 7.95015 162.83 7.95015 162.887 7.95015ZM287.415 13.3196C287.472 13.3196 287.528 13.3196 287.528 13.3196C287.585 13.3196 287.585 13.278 287.585 13.278C287.528 13.278 287.472 13.2364 287.358 13.2364L287.302 13.278C287.358 13.278 287.415 13.278 287.415 13.3196ZM237.321 6.99281C237.321 7.03443 237.321 7.07605 237.377 7.07605C237.491 7.11768 237.547 7.07605 237.547 7.03443C237.547 6.99281 237.547 6.95118 237.491 6.95118C237.434 6.86794 237.377 6.90956 237.321 6.99281ZM252.83 9.11562C252.83 9.074 252.83 9.03238 252.83 9.03238C252.774 9.03238 252.66 9.03238 252.604 9.03238C252.604 9.074 252.604 9.11562 252.66 9.11562C252.717 9.19887 252.774 9.19887 252.83 9.11562ZM243.377 8.11665C243.434 8.11665 243.547 8.07503 243.604 8.07503C243.604 8.0334 243.547 7.95016 243.547 7.95016C243.491 7.95016 243.377 7.95016 243.377 7.99178C243.208 8.0334 243.264 8.07503 243.377 8.11665ZM241.623 8.69939C241.679 8.69939 241.736 8.65776 241.849 8.65776C241.849 8.61614 241.849 8.57451 241.792 8.57451C241.736 8.57451 241.679 8.57451 241.566 8.61614C241.623 8.65776 241.623 8.69939 241.623 8.69939ZM126.377 11.7379L126.321 11.6963L126.264 11.7795L126.377 11.7379ZM240.038 8.69939C240.094 8.69939 240.094 8.65776 240.151 8.65776C240.151 8.61614 240.094 8.61614 240.094 8.61614C239.981 8.57451 239.925 8.61614 239.981 8.69939C239.925 8.69939 239.981 8.69939 240.038 8.69939ZM237.434 6.53494C237.547 6.53494 237.604 6.49332 237.604 6.4517C237.604 6.41007 237.547 6.36845 237.547 6.36845C237.491 6.36845 237.434 6.41007 237.321 6.41007C237.377 6.4517 237.434 6.49332 237.434 6.53494ZM133.792 6.90956C133.849 6.90956 133.849 6.86793 133.906 6.86793C133.906 6.82631 133.849 6.82631 133.849 6.78468C133.736 6.74306 133.679 6.78468 133.736 6.86793C133.679 6.90956 133.736 6.90956 133.792 6.90956ZM135.774 7.74203C135.717 7.82528 135.774 7.8669 135.887 7.82528L135.887 7.74203C135.83 7.74203 135.774 7.74203 135.774 7.74203ZM119.585 8.1999L119.585 8.28314L119.698 8.24152L119.585 8.1999ZM201.094 7.07605L201.151 7.11768C201.264 7.11768 201.321 7.07605 201.264 7.03443C201.264 7.03443 201.208 7.03443 201.151 7.03443C201.151 7.03443 201.094 7.03443 201.094 7.07605ZM219.943 8.07503C220 8.07503 220 8.07503 220.057 8.0334L220 7.99178C220 7.99178 219.943 7.99178 219.887 8.0334C219.887 8.07503 219.887 8.07503 219.943 8.07503ZM164.642 7.90853C164.755 7.90853 164.868 7.95015 164.868 7.78366C164.868 7.78366 164.755 7.78366 164.642 7.78366L164.585 7.82528C164.585 7.90853 164.642 7.90853 164.642 7.90853ZM278.698 11.7379L278.755 11.7796L278.811 11.7379L278.755 11.6963C278.755 11.6963 278.698 11.6963 278.698 11.7379ZM284.585 9.90648C284.642 9.90648 284.642 9.86485 284.698 9.86485L284.642 9.82323C284.642 9.82323 284.585 9.82323 284.528 9.86485C284.528 9.86485 284.528 9.86485 284.585 9.90648ZM273.094 12.3207C273.151 12.3207 273.151 12.279 273.208 12.279C273.208 12.2374 273.151 12.2374 273.151 12.1958C273.038 12.1542 272.981 12.1958 273.038 12.279C272.981 12.3207 273.038 12.3207 273.094 12.3207ZM86.5283 7.53391L86.6415 7.53391C86.6981 7.45066 86.6415 7.45066 86.5283 7.45066C86.4717 7.45066 86.4717 7.49229 86.4151 7.49229C86.4151 7.49229 86.4717 7.49229 86.5283 7.53391ZM67.6793 6.2852C67.6793 6.24357 67.6226 6.20195 67.6226 6.20195C67.566 6.20195 67.4528 6.20195 67.3962 6.24357C67.3962 6.2852 67.4528 6.32682 67.4528 6.32682C67.5095 6.32682 67.5661 6.2852 67.6793 6.2852ZM139.113 6.74306C139.17 6.74306 139.17 6.78468 139.226 6.74306L139.283 6.70144C139.283 6.61819 139.17 6.61819 139.113 6.65981C139.057 6.65981 139.113 6.70144 139.113 6.74306ZM281.302 9.2405C281.245 9.19887 281.245 9.19887 281.189 9.19887C281.132 9.19887 281.132 9.2405 281.075 9.2405C281.132 9.28212 281.132 9.28212 281.189 9.28212C281.189 9.28212 281.245 9.28212 281.302 9.2405ZM145.906 5.82734C145.849 5.82734 145.849 5.78571 145.792 5.82734C145.679 5.86896 145.679 5.91058 145.792 5.91058C145.792 5.91058 145.849 5.91058 145.906 5.91058C145.906 5.86896 145.906 5.86896 145.906 5.82734ZM221.585 6.61819C221.528 6.61819 221.528 6.57657 221.472 6.57657C221.358 6.61819 221.358 6.65982 221.472 6.70144L221.585 6.70144C221.585 6.70144 221.585 6.65981 221.585 6.61819ZM285.094 13.0699L285.038 13.0283L285.038 13.0699L285.094 13.0699ZM162.491 6.49332L162.491 6.41007L162.377 6.45169L162.491 6.49332ZM285.774 12.4872L285.887 12.4455L285.83 12.4039L285.774 12.4872ZM152.358 10.2395L152.415 10.2811L152.415 10.2395L152.358 10.2395ZM225.434 8.15827C225.491 8.15827 225.491 8.15827 225.547 8.11665C225.547 8.07503 225.547 8.0334 225.491 8.0334C225.491 8.0334 225.434 8.0334 225.377 8.07503C225.377 8.11665 225.377 8.11665 225.434 8.15827ZM205.509 7.07605L205.453 7.03443L205.396 7.07605L205.453 7.11768C205.453 7.11768 205.453 7.07605 205.509 7.07605ZM222.604 7.07605L222.547 7.03443C222.547 7.03443 222.491 7.03443 222.434 7.07605L222.491 7.11768C222.547 7.07605 222.604 7.07605 222.604 7.07605ZM173.925 7.90853L173.925 7.82528L173.811 7.86691L173.925 7.90853ZM245.245 10.073C245.358 10.1146 245.415 10.073 245.358 9.98972C245.358 9.98972 245.302 9.98972 245.245 9.98972C245.245 10.0313 245.245 10.073 245.245 10.073ZM254.811 8.49127L254.925 8.44964L254.868 8.40802L254.811 8.49127ZM131.528 6.90956C131.585 6.90956 131.585 6.86793 131.642 6.86793L131.585 6.82631C131.585 6.82631 131.528 6.86793 131.472 6.86793C131.472 6.86793 131.472 6.90956 131.528 6.90956ZM131.925 8.28314C131.925 8.24152 131.868 8.1999 131.868 8.1999C131.811 8.1999 131.755 8.24152 131.642 8.24152C131.642 8.28314 131.698 8.32477 131.698 8.32477C131.755 8.32477 131.811 8.28314 131.925 8.28314ZM300.434 14.277L300.491 14.3186L300.547 14.277L300.491 14.2354C300.491 14.2354 300.491 14.2354 300.434 14.277ZM272.981 8.69939C273.094 8.74101 273.151 8.69939 273.094 8.61614C273.094 8.61614 273.038 8.61614 272.981 8.61614C272.925 8.61614 272.981 8.65776 272.981 8.69939ZM135.547 6.90956C135.604 6.90956 135.66 6.90956 135.66 6.86793C135.66 6.78468 135.66 6.78468 135.547 6.78468L135.491 6.82631C135.491 6.86793 135.547 6.90956 135.547 6.90956ZM182.925 9.86485L182.868 9.82323C182.868 9.82323 182.811 9.86485 182.755 9.86485L182.811 9.90647C182.868 9.90647 182.925 9.90648 182.925 9.86485ZM124.623 6.9928C124.623 7.03443 124.623 7.03443 124.623 7.07605C124.679 7.07605 124.679 7.07605 124.736 7.07605C124.736 7.03443 124.736 6.9928 124.736 6.9928C124.736 6.9928 124.679 6.9928 124.623 6.9928ZM202.226 6.95118C202.283 6.95118 202.34 6.95118 202.34 6.90956C202.34 6.90956 202.34 6.86793 202.283 6.82631C202.226 6.82631 202.17 6.82631 202.17 6.86793C202.226 6.90956 202.226 6.95118 202.226 6.95118ZM193.34 6.2852L193.34 6.20195L193.226 6.24358L193.34 6.2852ZM81.6038 7.70041L81.6038 7.61716L81.4906 7.65878L81.6038 7.70041ZM105.491 7.49229L105.491 7.45066L105.377 7.45066L105.491 7.49229ZM267.377 8.49127C267.434 8.49127 267.434 8.49127 267.491 8.44964L267.434 8.40802C267.434 8.40802 267.377 8.40802 267.377 8.44964C267.321 8.44964 267.377 8.49127 267.377 8.49127ZM266.358 9.03238L266.358 9.074L266.415 9.03238L266.358 9.03238Z" fill="#FF6600"/>
<path d="M128.472 4.66187C129.208 4.57862 129.83 4.57862 130.453 4.45375C130.623 4.41212 130.792 4.41212 130.962 4.41212C131.868 4.45375 132.774 4.3705 133.679 4.28725C133.792 4.28725 133.849 4.28725 133.962 4.28725C134.019 4.28725 134.132 4.32888 134.189 4.3705C134.302 4.49537 134.189 4.537 134.075 4.57862C134.019 4.62024 133.906 4.66187 133.906 4.70349C133.906 4.82836 134.075 4.82836 134.189 4.86999C134.472 4.91161 134.811 4.95323 135.151 4.91161C135.887 4.82836 136.566 4.86999 137.302 4.86999C137.415 4.86999 137.472 4.86999 137.585 4.91161C137.642 4.95323 137.698 4.99486 137.755 5.07811L137.698 5.16135C137.132 5.32785 136.509 5.45272 135.887 5.32785C135.377 5.2446 134.925 5.2446 134.415 5.2446C133.453 5.2446 132.434 5.20298 131.472 5.20298C131.472 5.20298 131.415 5.11973 131.472 5.11973C131.755 4.99486 132.094 5.11973 132.377 5.03648C132.491 4.99486 132.547 4.95323 132.491 4.91161C132.491 4.86999 132.434 4.86999 132.377 4.86999C131.698 4.82836 131.019 4.82836 130.34 4.82836C129.66 4.70349 129.094 4.70349 128.472 4.66187Z" fill="#FF6600"/>
<path d="M115.226 5.57759C114.094 5.57759 112.962 5.57759 111.83 5.57759C111.377 5.57759 110.925 5.61922 110.528 5.78571C110.302 5.86896 110.075 5.86896 109.849 5.82733C109.509 5.78571 109.283 5.66084 109.34 5.57759C109.453 5.45272 109.623 5.4111 109.792 5.4111C110.302 5.4111 110.811 5.36947 111.264 5.4111C111.887 5.45272 112.509 5.45272 113.189 5.4111C113.472 5.4111 113.755 5.36947 113.981 5.4111C114.717 5.45272 115.396 5.4111 116.132 5.32785C117.094 5.2446 118 5.28622 118.962 5.28622C119.075 5.28622 119.132 5.32785 119.245 5.32785C119.302 5.32785 119.302 5.36947 119.359 5.4111C119.415 5.49434 119.358 5.57759 119.302 5.57759C119.019 5.61922 118.679 5.66084 118.34 5.66084C117.547 5.57759 116.698 5.61922 115.906 5.66084C115.679 5.57759 115.453 5.57759 115.226 5.57759Z" fill="#FF6600"/>
<path d="M118.396 4.70349C118.34 4.70349 118.34 4.74511 118.283 4.74511C117.774 4.78674 117.208 4.82836 116.698 4.91161C116.585 4.91161 116.528 4.95323 116.415 4.95323C115.226 4.95323 114.094 5.03648 112.906 5.03648C112.679 5.03648 112.453 4.99486 112.283 4.86999C112.283 4.86999 112.226 4.82836 112.283 4.78674C112.283 4.74511 112.34 4.74511 112.34 4.70349C112.396 4.66187 112.396 4.66187 112.453 4.66187C114.377 4.57862 116.302 4.49537 118.283 4.57862C118.34 4.57862 118.34 4.62024 118.396 4.62024C118.34 4.66187 118.34 4.66187 118.396 4.70349Z" fill="#FF6600"/>
<path d="M225.377 5.91059C225.264 5.91059 224.981 5.91059 224.755 5.86896C224.698 5.86896 224.642 5.78571 224.642 5.70247C224.642 5.66084 224.755 5.57759 224.811 5.57759C225.264 5.57759 225.717 5.57759 226.113 5.61922C226.17 5.61922 226.226 5.70247 226.226 5.74409C226.226 5.78571 226.113 5.86896 226.057 5.86896C225.83 5.91059 225.66 5.91059 225.377 5.91059Z" fill="#FF6600"/>
<path d="M125.415 4.74511C125.245 4.74511 125.075 4.74511 124.906 4.74511C124.849 4.74511 124.792 4.70349 124.736 4.66187C124.736 4.62024 124.792 4.62024 124.792 4.57862C125.302 4.41212 125.868 4.3705 126.491 4.41212C126.547 4.41212 126.604 4.45375 126.604 4.45375C126.604 4.49537 126.547 4.57862 126.491 4.57862C126.151 4.66187 125.811 4.70349 125.415 4.74511Z" fill="#FF6600"/>
<path d="M28.5094 6.07708C28.1698 6.20195 27.8868 6.16032 27.6038 6.16032C27.0378 6.1187 26.4151 6.16032 25.8491 6.03545C25.7925 6.03545 25.7924 5.99383 25.7924 5.9522C25.7924 5.91058 25.8491 5.86896 25.8491 5.86896C26.4151 5.91058 26.9811 5.9522 27.6038 5.91058C27.9434 5.91058 28.1698 5.9522 28.5094 6.07708Z" fill="#FF6600"/>
<path d="M121.566 4.57862C121.509 4.62024 121.509 4.66187 121.453 4.70349C121.17 4.91161 120.83 4.95323 120.434 4.86999C120.321 4.82836 120.151 4.70349 120.208 4.66187C120.264 4.62024 120.321 4.537 120.377 4.537C120.66 4.45375 121 4.3705 121.283 4.41212C121.396 4.41212 121.509 4.537 121.566 4.57862Z" fill="#FF6600"/>
<path d="M220.34 5.74409C219.717 5.70247 219.434 5.86896 219.094 5.70247C219.038 5.70247 219.038 5.66084 219.038 5.61922C219.038 5.57759 219.038 5.57759 219.094 5.53597C219.094 5.49435 219.151 5.49435 219.208 5.49435C219.83 5.49435 220.453 5.49435 221.075 5.53597C221.132 5.53597 221.189 5.61922 221.245 5.66084C221.189 5.66084 221.189 5.70247 221.132 5.70247C220.736 5.74409 220.396 5.74409 220.34 5.74409Z" fill="#FF6600"/>
<path d="M263.358 6.95118C263.868 6.95118 264.321 6.95118 264.83 6.95118C265.113 6.95118 265.34 7.03443 265.509 7.20093C265.566 7.24255 265.509 7.3258 265.453 7.36742C265.396 7.40905 265.283 7.45067 265.226 7.45067C264.717 7.24255 264.151 7.24255 263.585 7.07606C263.528 7.03443 263.472 6.99281 263.358 6.95118Z" fill="#FF6600"/>
<path d="M147.604 4.3705C147.491 4.32888 147.264 4.28725 147.038 4.24563C146.981 4.24563 146.981 4.20401 146.981 4.16238C147.038 4.12076 147.038 4.03751 147.094 3.99589C147.377 3.91264 147.604 3.91264 147.83 4.03751C147.887 4.07913 147.943 4.12076 147.943 4.20401C147.943 4.24563 147.83 4.28725 147.774 4.28725C147.83 4.3705 147.774 4.3705 147.604 4.3705Z" fill="#FF6600"/>
<path d="M314.925 15.276C315.491 15.2343 315.943 15.3176 316.396 15.4425C315.83 15.5257 315.83 15.5257 314.925 15.276Z" fill="#FF6600"/>
<path d="M158.302 4.62024C158.811 4.62024 159.264 4.57862 159.717 4.57862C159.83 4.57862 159.887 4.62024 159.887 4.70349C159.887 4.74512 159.83 4.74512 159.774 4.74512C159.264 4.78674 158.811 4.74512 158.302 4.62024Z" fill="#FF6600"/>
<path d="M232.849 5.07811C233.528 4.95324 233.981 4.91161 234.434 5.03648C233.868 5.20298 233.868 5.20298 232.849 5.07811Z" fill="#FF6600"/>
<path d="M237.717 5.2446C237.038 5.36948 237.038 5.36948 236.472 5.28623C236.472 5.28623 236.415 5.2446 236.472 5.20298C236.472 5.16136 236.528 5.16136 236.585 5.16136C236.925 5.07811 237.321 5.16136 237.717 5.2446Z" fill="#FF6600"/>
<path d="M127.792 5.32785C127.679 5.32785 127.509 5.28622 127.396 5.28622C127.34 5.28622 127.283 5.2446 127.283 5.2446C127.283 5.20298 127.34 5.11973 127.396 5.07811C127.623 4.95323 127.906 4.99486 128.189 5.03648C128.245 5.03648 128.359 5.11973 128.359 5.16135C128.359 5.20298 128.302 5.28622 128.189 5.28622C128.019 5.32785 127.906 5.32785 127.792 5.32785Z" fill="#FF6600"/>
<path d="M158.132 3.82939C158.585 3.87101 159.038 3.78777 159.434 3.99589C158.755 4.16238 158.755 4.16238 158.132 3.82939Z" fill="#FF6600"/>
<path d="M154.679 4.70349C155.075 4.62024 155.132 4.57862 155.245 4.57862C155.358 4.57862 155.528 4.57862 155.642 4.57862C155.868 4.57862 156.094 4.62024 156.377 4.70349C155.925 4.70349 155.472 4.70349 154.679 4.70349Z" fill="#FF6600"/>
<path d="M124.17 5.32785C124.679 5.07811 124.962 5.03648 125.302 5.16135L125.302 5.2446C124.962 5.36947 124.566 5.2446 124.17 5.32785Z" fill="#FF6600"/>
<path d="M262.623 7.24255C262 7.3258 261.491 7.11768 260.868 7.11768C260.811 7.11768 260.755 7.11768 260.755 7.11768L260.755 7.07605C261.377 6.99281 262 7.1593 262.623 7.24255Z" fill="#FF6600"/>
<path d="M206.472 4.78674C206.302 4.78674 206.132 4.70349 206.189 4.66187C206.245 4.62025 206.302 4.537 206.358 4.537C206.472 4.49537 206.642 4.49537 206.755 4.49537C206.811 4.49537 206.868 4.49537 206.868 4.537C206.925 4.537 206.925 4.57862 206.981 4.62025C207.038 4.70349 206.981 4.74512 206.868 4.78674C206.811 4.78674 206.811 4.82836 206.755 4.82836C206.642 4.78674 206.585 4.78674 206.472 4.78674Z" fill="#FF6600"/>
<path d="M141.491 4.86999C141.208 4.99486 140.925 5.03648 140.642 5.03648C140.642 5.03648 140.585 4.99486 140.585 4.95323C140.585 4.91161 140.585 4.86999 140.642 4.86999C140.925 4.82836 141.208 4.78674 141.491 4.86999Z" fill="#FF6600"/>
<path d="M201.038 3.82939C201.434 3.78777 201.774 3.74614 202.113 3.82939C202.057 3.87102 201.943 3.91264 201.887 3.91264C201.604 3.91264 201.321 3.95426 201.038 3.82939Z" fill="#FF6600"/>
<path d="M258.264 7.07605C258.208 7.03443 258.151 7.03443 258.094 6.99281C258.151 6.95118 258.208 6.90956 258.264 6.86794C258.434 6.82631 258.604 6.95118 258.491 6.99281C258.434 7.07605 258.377 7.07605 258.264 7.07605Z" fill="#FF6600"/>
<path d="M245.132 6.24358C244.792 6.32682 244.509 6.49332 244.113 6.41007C244.057 6.41007 244.057 6.36845 244.057 6.32682C244.057 6.2852 244.057 6.24358 244.113 6.24358C244.453 6.16033 244.792 6.2852 245.132 6.24358Z" fill="#FF6600"/>
<path d="M229.906 5.16136C229.792 5.16136 229.736 5.11973 229.736 5.03648C229.736 4.99486 229.792 4.99486 229.849 4.99486C229.906 4.95324 230.019 4.95324 230.075 4.95324C230.132 4.95324 230.245 4.99486 230.302 5.03648C230.245 5.07811 230.189 5.16136 230.132 5.16136C230.075 5.16136 229.962 5.16136 229.906 5.16136Z" fill="#FF6600"/>
<path d="M163.226 5.53597C163.17 5.49435 163.113 5.49435 163.057 5.45272C163.113 5.45272 163.113 5.4111 163.17 5.4111C163.226 5.4111 163.34 5.4111 163.396 5.4111C163.509 5.4111 163.566 5.45272 163.509 5.49435C163.509 5.49435 163.453 5.53597 163.396 5.53597C163.396 5.53597 163.34 5.53597 163.226 5.53597Z" fill="#FF6600"/>
<path d="M107.189 5.74409C107.132 5.70246 107.019 5.70246 106.962 5.66084C106.906 5.61922 107.019 5.53597 107.189 5.53597C107.245 5.53597 107.302 5.53597 107.302 5.53597C107.358 5.57759 107.415 5.61922 107.472 5.66084C107.415 5.70246 107.359 5.70246 107.245 5.74409C107.245 5.74409 107.245 5.74409 107.189 5.74409Z" fill="#FF6600"/>
<path d="M140.528 4.45375C140.245 4.45375 140.132 4.41212 140.245 4.3705C140.302 4.3705 140.415 4.3705 140.472 4.3705C140.528 4.3705 140.585 4.41212 140.642 4.45375C140.642 4.45375 140.585 4.45375 140.528 4.45375Z" fill="#FF6600"/>
<path d="M189.377 5.45272C189.321 5.49435 189.208 5.49435 189.151 5.49435C189.038 5.49435 188.981 5.4111 189.038 5.36947C189.094 5.32785 189.208 5.28623 189.264 5.32785C189.321 5.32785 189.321 5.4111 189.377 5.45272Z" fill="#FF6600"/>
<path d="M205.453 3.82939C205.283 3.82939 205.226 3.87102 205.17 3.87102C205.113 3.87102 205.057 3.87102 205 3.82939C205.057 3.82939 205.057 3.82939 205.113 3.82939C205.226 3.82939 205.283 3.82939 205.453 3.82939Z" fill="#FF6600"/>
<path d="M158.132 3.82939C157.962 3.91264 157.736 3.99589 157.566 4.03751C157.509 4.03751 157.453 3.99589 157.396 3.95426L157.453 3.87101C157.679 3.87101 157.906 3.87101 158.132 3.82939Z" fill="#FF6600"/>
<path d="M182.132 5.57759C182.245 5.49435 182.302 5.4111 182.415 5.36947C182.472 5.32785 182.585 5.32785 182.642 5.36947C182.698 5.4111 182.755 5.49435 182.755 5.53597C182.755 5.61922 182.698 5.74409 182.698 5.82734L182.755 5.78571C182.528 5.70247 182.358 5.61922 182.132 5.57759Z" fill="#FF6600"/>
<path d="M167.019 3.78777C167.075 3.82939 167.132 3.87101 167.189 3.91264C167.132 3.95426 167.075 3.99589 167.019 3.99589C166.849 3.99589 166.736 3.87101 166.792 3.82939C166.849 3.82939 166.906 3.82939 167.019 3.78777Z" fill="#FF6600"/>
<path d="M330.83 0.124872C330.717 0.124872 330.66 0.0832477 330.66 0.0416239C330.66 -9.50104e-09 330.83 -4.75052e-09 330.887 -3.16701e-09C330.943 -1.58351e-09 331 0.0416239 331 0.0416239C331 0.0832477 330.943 0.124872 330.83 0.124872Z" fill="#FF6600"/>
<path d="M142.792 4.24563C142.792 4.204 142.792 4.20401 142.849 4.16238C142.906 4.16238 142.906 4.16238 142.962 4.16238C142.962 4.16238 143.019 4.204 143.019 4.24563C142.962 4.24563 142.962 4.28725 142.906 4.28725C142.906 4.28725 142.849 4.28725 142.792 4.24563Z" fill="#FF6600"/>
<path d="M291.264 9.78161C291.321 9.78161 291.377 9.73998 291.491 9.73998C291.491 9.73998 291.547 9.78161 291.547 9.82323C291.491 9.82323 291.434 9.86485 291.321 9.86485C291.264 9.86485 291.264 9.82323 291.264 9.78161Z" fill="#FF6600"/>
<path d="M234.151 4.537C234.094 4.537 234.038 4.537 234.038 4.49537C234.038 4.41213 234.094 4.41213 234.208 4.41213L234.264 4.45375C234.264 4.49537 234.208 4.49537 234.151 4.537Z" fill="#FF6600"/>
<path d="M167.189 4.70349L167.132 4.66187C167.189 4.62024 167.245 4.62024 167.302 4.70349C167.302 4.66187 167.245 4.70349 167.189 4.70349Z" fill="#FF6600"/>
<path d="M169.226 4.07913C169.226 4.03751 169.17 4.03751 169.17 3.99589C169.17 3.95426 169.226 3.95426 169.283 3.95426C169.396 3.95426 169.396 4.03751 169.34 4.07913C169.283 4.07913 169.226 4.07913 169.226 4.07913Z" fill="#FF6600"/>
<path d="M171.717 4.07913C171.66 4.07913 171.66 4.12076 171.604 4.12076C171.547 4.12076 171.547 4.07913 171.491 4.07913C171.547 4.07913 171.547 4.03751 171.604 4.03751C171.66 3.99589 171.66 4.03751 171.717 4.07913Z" fill="#FF6600"/>
<path d="M318.491 15.6922C318.434 15.6922 318.434 15.6506 318.377 15.6506L318.434 15.6089C318.547 15.6089 318.604 15.6089 318.547 15.6922C318.604 15.6922 318.547 15.6922 318.491 15.6922Z" fill="#FF6600"/>
<path d="M197.019 5.4111C197.019 5.36947 196.962 5.36947 196.962 5.32785L197.019 5.28623C197.132 5.28623 197.132 5.32785 197.075 5.4111C197.132 5.4111 197.075 5.4111 197.019 5.4111Z" fill="#FF6600"/>
<path d="M135.377 4.537C135.377 4.49537 135.321 4.49537 135.321 4.45375C135.377 4.45375 135.377 4.41212 135.434 4.41212C135.547 4.41212 135.604 4.45375 135.547 4.49537C135.491 4.537 135.434 4.537 135.377 4.537Z" fill="#FF6600"/>
<path d="M222.943 5.74409C222.887 5.70247 222.83 5.66084 222.774 5.66084C222.83 5.66084 222.83 5.61922 222.887 5.61922C222.943 5.61922 223.057 5.61922 223.057 5.66084C223.113 5.70247 223 5.74409 222.943 5.74409Z" fill="#FF6600"/>
<path d="M164.868 3.99589C164.755 3.95426 164.698 3.91264 164.755 3.87101C164.811 3.82939 164.925 3.82939 164.981 3.82939L165.038 3.91264C164.981 3.95426 164.925 3.95426 164.868 3.99589Z" fill="#FF6600"/>
<path d="M321.264 15.8171L321.321 15.8587L321.264 15.8587L321.264 15.8171Z" fill="#FF6600"/>
<path d="M288.887 10.739C289 10.6973 289.113 10.6141 289.226 10.5725C289.283 10.5725 289.34 10.5725 289.34 10.5725C289.396 10.6141 289.396 10.6973 289.283 10.6973C289.113 10.739 289 10.739 288.887 10.739Z" fill="#FF6600"/>
<path d="M23.6415 5.86896C23.5849 5.86896 23.5849 5.91058 23.5283 5.91058C23.4151 5.86896 23.4151 5.82733 23.5283 5.82733C23.5283 5.82733 23.5849 5.86896 23.6415 5.86896Z" fill="#FF6600"/>
<path d="M161.868 3.87101C161.925 3.87101 161.925 3.82939 161.981 3.82939C162.038 3.82939 162.038 3.87101 162.094 3.87101C162.038 3.87101 162.038 3.91264 161.981 3.91264C161.925 3.91264 161.868 3.87101 161.868 3.87101Z" fill="#FF6600"/>
<path d="M152.075 5.66084L152.132 5.61922L152.189 5.66084L152.132 5.70246L152.075 5.66084Z" fill="#FF6600"/>
<path d="M253.17 5.86896L253.226 5.82734L253.283 5.86896L253.17 5.86896Z" fill="#FF6600"/>
<path d="M262.623 7.24255L262.623 7.1593C262.623 7.20093 262.566 7.24255 262.623 7.24255Z" fill="#FF6600"/>
</g>
</svg>
