<?xml version="1.0" encoding="UTF-8"?>
<svg width="1599px" height="567px" viewBox="0 0 1599 567" version="1.1" xmlns="http://www.w3.org/2000/svg" xmlns:xlink="http://www.w3.org/1999/xlink">
    <!-- Generator: Sketch 49.3 (51167) - http://www.bohemiancoding.com/sketch -->
    <title>Page 1</title>
    <desc>Created with Sketch.</desc>
    <defs></defs>
    <g id="Page-1" stroke="none" stroke-width="1" fill="none" fill-rule="evenodd" opacity="0.05">
        <g id="Uptime-Product-Template_v3" transform="translate(0.000000, -4793.000000)">
            <g id="Footer-CTA" transform="translate(0.000000, 4754.000000)">
                <g id="Page-1">
                    <g transform="translate(0.000000, -92.000000)">
                        <polygon id="Fill-93" fill="#95EBFE" points="1568.02133 727.29837 1598.42133 727.29837 1598.42133 696.89837 1568.02133 696.89837"></polygon>
                        <polygon id="Fill-94" fill="#18AFF6" points="1533.17689 727.29837 1563.57689 727.29837 1563.57689 696.89837 1533.17689 696.89837"></polygon>
                        <polygon id="Fill-95" fill="#53C8F7" points="1498.33244 727.29837 1528.73244 727.29837 1528.73244 696.89837 1498.33244 696.89837"></polygon>
                        <polygon id="Fill-96" fill="#95EBFE" points="1463.48563 727.29837 1493.88563 727.29837 1493.88563 696.89837 1463.48563 696.89837"></polygon>
                        <polygon id="Fill-97" fill="#95EBFE" points="1428.64119 727.29837 1459.04119 727.29837 1459.04119 696.89837 1428.64119 696.89837"></polygon>
                        <polygon id="Fill-98" fill="#53C8F7" points="1393.79674 727.29837 1424.19674 727.29837 1424.19674 696.89837 1393.79674 696.89837"></polygon>
                        <polygon id="Fill-99" fill="#95EBFE" points="1358.9523 727.29837 1389.3523 727.29837 1389.3523 696.89837 1358.9523 696.89837"></polygon>
                        <polygon id="Fill-100" fill="#53C8F7" points="1324.10785 727.29837 1354.50785 727.29837 1354.50785 696.89837 1324.10785 696.89837"></polygon>
                        <polygon id="Fill-101" fill="#95EBFE" points="1254.41659 727.29837 1284.81659 727.29837 1284.81659 696.89837 1254.41659 696.89837"></polygon>
                        <polygon id="Fill-102" fill="#18AFF6" points="1219.57215 727.29837 1249.97215 727.29837 1249.97215 696.89837 1219.57215 696.89837"></polygon>
                        <polygon id="Fill-103" fill="#95EBFE" points="1184.7277 727.29837 1215.1277 727.29837 1215.1277 696.89837 1184.7277 696.89837"></polygon>
                        <polygon id="Fill-104" fill="#53C8F7" points="1149.88326 727.29837 1180.28326 727.29837 1180.28326 696.89837 1149.88326 696.89837"></polygon>
                        <polygon id="Fill-105" fill="#0198F8" points="1115.03644 727.29837 1145.43644 727.29837 1145.43644 696.89837 1115.03644 696.89837"></polygon>
                        <polygon id="Fill-106" fill="#18AFF6" points="1080.192 727.29837 1110.592 727.29837 1110.592 696.89837 1080.192 696.89837"></polygon>
                        <polygon id="Fill-107" fill="#0198F8" points="1045.34756 727.29837 1075.74756 727.29837 1075.74756 696.89837 1045.34756 696.89837"></polygon>
                        <polygon id="Fill-108" fill="#53C8F7" points="1010.50311 727.29837 1040.90311 727.29837 1040.90311 696.89837 1010.50311 696.89837"></polygon>
                        <polygon id="Fill-109" fill="#95EBFE" points="975.658667 727.29837 1006.05867 727.29837 1006.05867 696.89837 975.658667 696.89837"></polygon>
                        <polygon id="Fill-110" fill="#0198F8" points="940.811852 727.29837 971.211852 727.29837 971.211852 696.89837 940.811852 696.89837"></polygon>
                        <polygon id="Fill-111" fill="#18AFF6" points="905.967407 727.29837 936.367407 727.29837 936.367407 696.89837 905.967407 696.89837"></polygon>
                        <polygon id="Fill-112" fill="#95EBFE" points="871.122963 727.29837 901.522963 727.29837 901.522963 696.89837 871.122963 696.89837"></polygon>
                        <polygon id="Fill-113" fill="#0198F8" points="836.278519 727.29837 866.678519 727.29837 866.678519 696.89837 836.278519 696.89837"></polygon>
                        <polygon id="Fill-114" fill="#53C8F7" points="801.434074 727.29837 831.834074 727.29837 831.834074 696.89837 801.434074 696.89837"></polygon>
                        <polygon id="Fill-115" fill="#18AFF6" points="766.587259 727.29837 796.987259 727.29837 796.987259 696.89837 766.587259 696.89837"></polygon>
                        <polygon id="Fill-116" fill="#95EBFE" points="731.742815 727.29837 762.142815 727.29837 762.142815 696.89837 731.742815 696.89837"></polygon>
                        <polygon id="Fill-117" fill="#0198F8" points="696.89837 727.29837 727.29837 727.29837 727.29837 696.89837 696.89837 696.89837"></polygon>
                        <polygon id="Fill-118" fill="#95EBFE" points="662.053926 727.29837 692.453926 727.29837 692.453926 696.89837 662.053926 696.89837"></polygon>
                        <polygon id="Fill-119" fill="#53C8F7" points="627.209481 727.29837 657.609481 727.29837 657.609481 696.89837 627.209481 696.89837"></polygon>
                        <polygon id="Fill-120" fill="#53C8F7" points="592.365037 727.29837 622.765037 727.29837 622.765037 696.89837 592.365037 696.89837"></polygon>
                        <polygon id="Fill-121" fill="#95EBFE" points="557.518222 727.29837 587.918222 727.29837 587.918222 696.89837 557.518222 696.89837"></polygon>
                        <polygon id="Fill-122" fill="#53C8F7" points="522.673778 727.29837 553.073778 727.29837 553.073778 696.89837 522.673778 696.89837"></polygon>
                        <polygon id="Fill-123" fill="#18AFF6" points="487.829333 727.29837 518.229333 727.29837 518.229333 696.89837 487.829333 696.89837"></polygon>
                        <polygon id="Fill-124" fill="#53C8F7" points="452.984889 727.29837 483.384889 727.29837 483.384889 696.89837 452.984889 696.89837"></polygon>
                        <polygon id="Fill-125" fill="#0198F8" points="418.140444 727.29837 448.540444 727.29837 448.540444 696.89837 418.140444 696.89837"></polygon>
                        <polygon id="Fill-126" fill="#95EBFE" points="383.29363 727.29837 413.69363 727.29837 413.69363 696.89837 383.29363 696.89837"></polygon>
                        <polygon id="Fill-127" fill="#53C8F7" points="348.449185 727.29837 378.849185 727.29837 378.849185 696.89837 348.449185 696.89837"></polygon>
                        <polygon id="Fill-128" fill="#0198F8" points="313.604741 727.29837 344.004741 727.29837 344.004741 696.89837 313.604741 696.89837"></polygon>
                        <polygon id="Fill-129" fill="#53C8F7" points="278.760296 727.29837 309.160296 727.29837 309.160296 696.89837 278.760296 696.89837"></polygon>
                        <polygon id="Fill-130" fill="#53C8F7" points="243.915852 727.29837 274.315852 727.29837 274.315852 696.89837 243.915852 696.89837"></polygon>
                        <polygon id="Fill-131" fill="#53C8F7" points="209.069037 727.29837 239.469037 727.29837 239.469037 696.89837 209.069037 696.89837"></polygon>
                        <polygon id="Fill-132" fill="#53C8F7" points="174.224593 727.29837 204.624593 727.29837 204.624593 696.89837 174.224593 696.89837"></polygon>
                        <polygon id="Fill-133" fill="#0198F8" points="139.380148 727.29837 169.780148 727.29837 169.780148 696.89837 139.380148 696.89837"></polygon>
                        <polygon id="Fill-134" fill="#95EBFE" points="104.535704 727.29837 134.935704 727.29837 134.935704 696.89837 104.535704 696.89837"></polygon>
                        <polygon id="Fill-135" fill="#95EBFE" points="69.6912593 727.29837 100.091259 727.29837 100.091259 696.89837 69.6912593 696.89837"></polygon>
                        <polygon id="Fill-136" fill="#0198F8" points="34.8444444 727.29837 65.2444444 727.29837 65.2444444 696.89837 34.8444444 696.89837"></polygon>
                        <polygon id="Fill-137" fill="#53C8F7" points="0 727.29837 30.4 727.29837 30.4 696.89837 0 696.89837"></polygon>
                        <polygon id="Fill-138" fill="#53C8F7" points="1568.02133 692.453926 1598.42133 692.453926 1598.42133 662.053926 1568.02133 662.053926"></polygon>
                        <polygon id="Fill-139" fill="#95EBFE" points="1533.17689 692.453926 1563.57689 692.453926 1563.57689 662.053926 1533.17689 662.053926"></polygon>
                        <polygon id="Fill-140" fill="#53C8F7" points="1498.33244 692.453926 1528.73244 692.453926 1528.73244 662.053926 1498.33244 662.053926"></polygon>
                        <polygon id="Fill-141" fill="#53C8F7" points="1463.48563 692.453926 1493.88563 692.453926 1493.88563 662.053926 1463.48563 662.053926"></polygon>
                        <polygon id="Fill-142" fill="#18AFF6" points="1428.64119 692.453926 1459.04119 692.453926 1459.04119 662.053926 1428.64119 662.053926"></polygon>
                        <polygon id="Fill-143" fill="#53C8F7" points="1358.9523 692.453926 1389.3523 692.453926 1389.3523 662.053926 1358.9523 662.053926"></polygon>
                        <polygon id="Fill-144" fill="#95EBFE" points="1324.10785 692.453926 1354.50785 692.453926 1354.50785 662.053926 1324.10785 662.053926"></polygon>
                        <polygon id="Fill-145" fill="#0198F8" points="1289.26104 692.453926 1319.66104 692.453926 1319.66104 662.053926 1289.26104 662.053926"></polygon>
                        <polygon id="Fill-146" fill="#95EBFE" points="1219.57215 692.453926 1249.97215 692.453926 1249.97215 662.053926 1219.57215 662.053926"></polygon>
                        <polygon id="Fill-147" fill="#95EBFE" points="1184.7277 692.453926 1215.1277 692.453926 1215.1277 662.053926 1184.7277 662.053926"></polygon>
                        <polygon id="Fill-148" fill="#53C8F7" points="1149.88326 692.453926 1180.28326 692.453926 1180.28326 662.053926 1149.88326 662.053926"></polygon>
                        <polygon id="Fill-149" fill="#95EBFE" points="1115.03644 692.453926 1145.43644 692.453926 1145.43644 662.053926 1115.03644 662.053926"></polygon>
                        <polygon id="Fill-150" fill="#0198F8" points="1080.192 692.453926 1110.592 692.453926 1110.592 662.053926 1080.192 662.053926"></polygon>
                        <polygon id="Fill-151" fill="#95EBFE" points="1045.34756 692.453926 1075.74756 692.453926 1075.74756 662.053926 1045.34756 662.053926"></polygon>
                        <polygon id="Fill-152" fill="#53C8F7" points="975.658667 692.453926 1006.05867 692.453926 1006.05867 662.053926 975.658667 662.053926"></polygon>
                        <polygon id="Fill-153" fill="#95EBFE" points="940.811852 692.453926 971.211852 692.453926 971.211852 662.053926 940.811852 662.053926"></polygon>
                        <polygon id="Fill-154" fill="#95EBFE" points="905.967407 692.453926 936.367407 692.453926 936.367407 662.053926 905.967407 662.053926"></polygon>
                        <polygon id="Fill-155" fill="#0198F8" points="871.122963 692.453926 901.522963 692.453926 901.522963 662.053926 871.122963 662.053926"></polygon>
                        <polygon id="Fill-156" fill="#95EBFE" points="836.278519 692.453926 866.678519 692.453926 866.678519 662.053926 836.278519 662.053926"></polygon>
                        <polygon id="Fill-157" fill="#95EBFE" points="801.434074 692.453926 831.834074 692.453926 831.834074 662.053926 801.434074 662.053926"></polygon>
                        <polygon id="Fill-158" fill="#95EBFE" points="766.587259 692.453926 796.987259 692.453926 796.987259 662.053926 766.587259 662.053926"></polygon>
                        <polygon id="Fill-159" fill="#95EBFE" points="731.742815 692.453926 762.142815 692.453926 762.142815 662.053926 731.742815 662.053926"></polygon>
                        <polygon id="Fill-160" fill="#53C8F7" points="696.89837 692.453926 727.29837 692.453926 727.29837 662.053926 696.89837 662.053926"></polygon>
                        <polygon id="Fill-161" fill="#0198F8" points="627.209481 692.453926 657.609481 692.453926 657.609481 662.053926 627.209481 662.053926"></polygon>
                        <polygon id="Fill-162" fill="#95EBFE" points="592.365037 692.453926 622.765037 692.453926 622.765037 662.053926 592.365037 662.053926"></polygon>
                        <polygon id="Fill-163" fill="#0198F8" points="557.518222 692.453926 587.918222 692.453926 587.918222 662.053926 557.518222 662.053926"></polygon>
                        <polygon id="Fill-164" fill="#53C8F7" points="522.673778 692.453926 553.073778 692.453926 553.073778 662.053926 522.673778 662.053926"></polygon>
                        <polygon id="Fill-165" fill="#95EBFE" points="487.829333 692.453926 518.229333 692.453926 518.229333 662.053926 487.829333 662.053926"></polygon>
                        <polygon id="Fill-166" fill="#95EBFE" points="452.984889 692.453926 483.384889 692.453926 483.384889 662.053926 452.984889 662.053926"></polygon>
                        <polygon id="Fill-167" fill="#95EBFE" points="418.140444 692.453926 448.540444 692.453926 448.540444 662.053926 418.140444 662.053926"></polygon>
                        <polygon id="Fill-168" fill="#53C8F7" points="383.29363 692.453926 413.69363 692.453926 413.69363 662.053926 383.29363 662.053926"></polygon>
                        <polygon id="Fill-169" fill="#95EBFE" points="348.449185 692.453926 378.849185 692.453926 378.849185 662.053926 348.449185 662.053926"></polygon>
                        <polygon id="Fill-170" fill="#95EBFE" points="313.604741 692.453926 344.004741 692.453926 344.004741 662.053926 313.604741 662.053926"></polygon>
                        <polygon id="Fill-171" fill="#0198F8" points="243.915852 692.453926 274.315852 692.453926 274.315852 662.053926 243.915852 662.053926"></polygon>
                        <polygon id="Fill-172" fill="#95EBFE" points="209.069037 692.453926 239.469037 692.453926 239.469037 662.053926 209.069037 662.053926"></polygon>
                        <polygon id="Fill-173" fill="#53C8F7" points="174.224593 692.453926 204.624593 692.453926 204.624593 662.053926 174.224593 662.053926"></polygon>
                        <polygon id="Fill-174" fill="#95EBFE" points="104.535704 692.453926 134.935704 692.453926 134.935704 662.053926 104.535704 662.053926"></polygon>
                        <polygon id="Fill-175" fill="#53C8F7" points="69.6912593 692.453926 100.091259 692.453926 100.091259 662.053926 69.6912593 662.053926"></polygon>
                        <polygon id="Fill-176" fill="#95EBFE" points="34.8444444 692.453926 65.2444444 692.453926 65.2444444 662.053926 34.8444444 662.053926"></polygon>
                        <polygon id="Fill-177" fill="#0198F8" points="0 692.453926 30.4 692.453926 30.4 662.053926 0 662.053926"></polygon>
                        <polygon id="Fill-178" fill="#53C8F7" points="1533.17689 657.609481 1563.57689 657.609481 1563.57689 627.207111 1533.17689 627.207111"></polygon>
                        <polygon id="Fill-179" fill="#18AFF6" points="1498.33244 657.609481 1528.73244 657.609481 1528.73244 627.207111 1498.33244 627.207111"></polygon>
                        <polygon id="Fill-180" fill="#53C8F7" points="1463.48563 657.609481 1493.88563 657.609481 1493.88563 627.207111 1463.48563 627.207111"></polygon>
                        <polygon id="Fill-181" fill="#53C8F7" points="1428.64119 657.609481 1459.04119 657.609481 1459.04119 627.207111 1428.64119 627.207111"></polygon>
                        <polygon id="Fill-182" fill="#95EBFE" points="1393.79674 657.609481 1424.19674 657.609481 1424.19674 627.207111 1393.79674 627.207111"></polygon>
                        <polygon id="Fill-183" fill="#95EBFE" points="1358.9523 657.609481 1389.3523 657.609481 1389.3523 627.207111 1358.9523 627.207111"></polygon>
                        <polygon id="Fill-184" fill="#18AFF6" points="1324.10785 657.609481 1354.50785 657.609481 1354.50785 627.207111 1324.10785 627.207111"></polygon>
                        <polygon id="Fill-185" fill="#53C8F7" points="1289.26104 657.609481 1319.66104 657.609481 1319.66104 627.207111 1289.26104 627.207111"></polygon>
                        <polygon id="Fill-186" fill="#53C8F7" points="1219.57215 657.609481 1249.97215 657.609481 1249.97215 627.207111 1219.57215 627.207111"></polygon>
                        <polygon id="Fill-187" fill="#95EBFE" points="1184.7277 657.609481 1215.1277 657.609481 1215.1277 627.207111 1184.7277 627.207111"></polygon>
                        <polygon id="Fill-188" fill="#95EBFE" points="1149.88326 657.609481 1180.28326 657.609481 1180.28326 627.207111 1149.88326 627.207111"></polygon>
                        <polygon id="Fill-189" fill="#53C8F7" points="1115.03644 657.609481 1145.43644 657.609481 1145.43644 627.207111 1115.03644 627.207111"></polygon>
                        <polygon id="Fill-190" fill="#53C8F7" points="1045.34756 657.609481 1075.74756 657.609481 1075.74756 627.207111 1045.34756 627.207111"></polygon>
                        <polygon id="Fill-191" fill="#53C8F7" points="1010.50311 657.609481 1040.90311 657.609481 1040.90311 627.207111 1010.50311 627.207111"></polygon>
                        <polygon id="Fill-192" fill="#95EBFE" points="975.658667 657.609481 1006.05867 657.609481 1006.05867 627.207111 975.658667 627.207111"></polygon>
                        <polygon id="Fill-193" fill="#95EBFE" points="940.811852 657.609481 971.211852 657.609481 971.211852 627.207111 940.811852 627.207111"></polygon>
                        <polygon id="Fill-194" fill="#53C8F7" points="905.967407 657.609481 936.367407 657.609481 936.367407 627.207111 905.967407 627.207111"></polygon>
                        <polygon id="Fill-195" fill="#53C8F7" points="871.122963 657.609481 901.522963 657.609481 901.522963 627.207111 871.122963 627.207111"></polygon>
                        <polygon id="Fill-196" fill="#18AFF6" points="801.434074 657.609481 831.834074 657.609481 831.834074 627.207111 801.434074 627.207111"></polygon>
                        <polygon id="Fill-197" fill="#53C8F7" points="766.587259 657.609481 796.987259 657.609481 796.987259 627.207111 766.587259 627.207111"></polygon>
                        <polygon id="Fill-198" fill="#0198F8" points="731.742815 657.609481 762.142815 657.609481 762.142815 627.207111 731.742815 627.207111"></polygon>
                        <polygon id="Fill-199" fill="#95EBFE" points="696.89837 657.609481 727.29837 657.609481 727.29837 627.207111 696.89837 627.207111"></polygon>
                        <polygon id="Fill-200" fill="#53C8F7" points="662.053926 657.609481 692.453926 657.609481 692.453926 627.207111 662.053926 627.207111"></polygon>
                        <polygon id="Fill-201" fill="#95EBFE" points="592.365037 657.609481 622.765037 657.609481 622.765037 627.207111 592.365037 627.207111"></polygon>
                        <polygon id="Fill-202" fill="#53C8F7" points="557.518222 657.609481 587.918222 657.609481 587.918222 627.207111 557.518222 627.207111"></polygon>
                        <polygon id="Fill-203" fill="#95EBFE" points="522.673778 657.609481 553.073778 657.609481 553.073778 627.207111 522.673778 627.207111"></polygon>
                        <polygon id="Fill-204" fill="#0198F8" points="487.829333 657.609481 518.229333 657.609481 518.229333 627.207111 487.829333 627.207111"></polygon>
                        <polygon id="Fill-205" fill="#95EBFE" points="452.984889 657.609481 483.384889 657.609481 483.384889 627.207111 452.984889 627.207111"></polygon>
                        <polygon id="Fill-206" fill="#53C8F7" points="418.140444 657.609481 448.540444 657.609481 448.540444 627.207111 418.140444 627.207111"></polygon>
                        <polygon id="Fill-207" fill="#53C8F7" points="313.604741 657.609481 344.004741 657.609481 344.004741 627.207111 313.604741 627.207111"></polygon>
                        <polygon id="Fill-208" fill="#0198F8" points="278.760296 657.609481 309.160296 657.609481 309.160296 627.207111 278.760296 627.207111"></polygon>
                        <polygon id="Fill-209" fill="#95EBFE" points="243.915852 657.609481 274.315852 657.609481 274.315852 627.207111 243.915852 627.207111"></polygon>
                        <polygon id="Fill-210" fill="#53C8F7" points="209.069037 657.609481 239.469037 657.609481 239.469037 627.207111 209.069037 627.207111"></polygon>
                        <polygon id="Fill-211" fill="#53C8F7" points="139.380148 657.609481 169.780148 657.609481 169.780148 627.207111 139.380148 627.207111"></polygon>
                        <polygon id="Fill-212" fill="#95EBFE" points="104.535704 657.609481 134.935704 657.609481 134.935704 627.207111 104.535704 627.207111"></polygon>
                        <polygon id="Fill-213" fill="#0198F8" points="69.6912593 657.609481 100.091259 657.609481 100.091259 627.207111 69.6912593 627.207111"></polygon>
                        <polygon id="Fill-214" fill="#53C8F7" points="34.8444444 657.609481 65.2444444 657.609481 65.2444444 627.207111 34.8444444 627.207111"></polygon>
                        <polygon id="Fill-215" fill="#53C8F7" points="0 657.607111 30.4 657.607111 30.4 627.204741 0 627.204741"></polygon>
                        <polygon id="Fill-216" fill="#18AFF6" points="1568.02133 622.762667 1598.42133 622.762667 1598.42133 592.360296 1568.02133 592.360296"></polygon>
                        <polygon id="Fill-217" fill="#95EBFE" points="1533.17689 622.762667 1563.57689 622.762667 1563.57689 592.362667 1533.17689 592.362667"></polygon>
                        <polygon id="Fill-218" fill="#95EBFE" points="1428.64119 622.762667 1459.04119 622.762667 1459.04119 592.362667 1428.64119 592.362667"></polygon>
                        <polygon id="Fill-219" fill="#53C8F7" points="1393.79674 622.762667 1424.19674 622.762667 1424.19674 592.362667 1393.79674 592.362667"></polygon>
                        <polygon id="Fill-220" fill="#53C8F7" points="1324.10785 622.762667 1354.50785 622.762667 1354.50785 592.362667 1324.10785 592.362667"></polygon>
                        <polygon id="Fill-221" fill="#53C8F7" points="1289.26104 622.762667 1319.66104 622.762667 1319.66104 592.362667 1289.26104 592.362667"></polygon>
                        <polygon id="Fill-222" fill="#95EBFE" points="1254.41659 622.762667 1284.81659 622.762667 1284.81659 592.362667 1254.41659 592.362667"></polygon>
                        <polygon id="Fill-223" fill="#53C8F7" points="1184.7277 622.762667 1215.1277 622.762667 1215.1277 592.362667 1184.7277 592.362667"></polygon>
                        <polygon id="Fill-224" fill="#95EBFE" points="1115.03644 622.762667 1145.43644 622.762667 1145.43644 592.362667 1115.03644 592.362667"></polygon>
                        <polygon id="Fill-225" fill="#95EBFE" points="1080.192 622.762667 1110.592 622.762667 1110.592 592.362667 1080.192 592.362667"></polygon>
                        <polygon id="Fill-226" fill="#95EBFE" points="1045.34756 622.762667 1075.74756 622.762667 1075.74756 592.362667 1045.34756 592.362667"></polygon>
                        <polygon id="Fill-227" fill="#95EBFE" points="1010.50311 622.762667 1040.90311 622.762667 1040.90311 592.362667 1010.50311 592.362667"></polygon>
                        <polygon id="Fill-228" fill="#53C8F7" points="940.811852 622.762667 971.211852 622.762667 971.211852 592.362667 940.811852 592.362667"></polygon>
                        <polygon id="Fill-229" fill="#95EBFE" points="905.967407 622.762667 936.367407 622.762667 936.367407 592.362667 905.967407 592.362667"></polygon>
                        <polygon id="Fill-230" fill="#95EBFE" points="871.122963 622.762667 901.522963 622.762667 901.522963 592.362667 871.122963 592.362667"></polygon>
                        <polygon id="Fill-231" fill="#95EBFE" points="836.278519 622.762667 866.678519 622.762667 866.678519 592.362667 836.278519 592.362667"></polygon>
                        <polygon id="Fill-232" fill="#0198F8" points="801.434074 622.762667 831.834074 622.762667 831.834074 592.362667 801.434074 592.362667"></polygon>
                        <polygon id="Fill-233" fill="#18AFF6" points="766.587259 622.762667 796.987259 622.762667 796.987259 592.362667 766.587259 592.362667"></polygon>
                        <polygon id="Fill-234" fill="#53C8F7" points="731.742815 622.762667 762.142815 622.762667 762.142815 592.362667 731.742815 592.362667"></polygon>
                        <polygon id="Fill-235" fill="#18AFF6" points="662.053926 622.762667 692.453926 622.762667 692.453926 592.362667 662.053926 592.362667"></polygon>
                        <polygon id="Fill-236" fill="#53C8F7" points="592.365037 622.762667 622.765037 622.762667 622.765037 592.362667 592.365037 592.362667"></polygon>
                        <polygon id="Fill-237" fill="#95EBFE" points="557.518222 622.762667 587.918222 622.762667 587.918222 592.362667 557.518222 592.362667"></polygon>
                        <polygon id="Fill-238" fill="#95EBFE" points="487.829333 622.762667 518.229333 622.762667 518.229333 592.362667 487.829333 592.362667"></polygon>
                        <polygon id="Fill-239" fill="#0198F8" points="452.984889 622.762667 483.384889 622.762667 483.384889 592.362667 452.984889 592.362667"></polygon>
                        <polygon id="Fill-240" fill="#53C8F7" points="418.140444 622.762667 448.540444 622.762667 448.540444 592.362667 418.140444 592.362667"></polygon>
                        <polygon id="Fill-241" fill="#95EBFE" points="348.449185 622.762667 378.849185 622.762667 378.849185 592.362667 348.449185 592.362667"></polygon>
                        <polygon id="Fill-242" fill="#53C8F7" points="313.604741 622.762667 344.004741 622.762667 344.004741 592.362667 313.604741 592.362667"></polygon>
                        <polygon id="Fill-243" fill="#53C8F7" points="243.915852 622.762667 274.315852 622.762667 274.315852 592.362667 243.915852 592.362667"></polygon>
                        <polygon id="Fill-244" fill="#53C8F7" points="209.069037 622.762667 239.469037 622.762667 239.469037 592.362667 209.069037 592.362667"></polygon>
                        <polygon id="Fill-245" fill="#95EBFE" points="174.224593 622.762667 204.624593 622.762667 204.624593 592.362667 174.224593 592.362667"></polygon>
                        <polygon id="Fill-246" fill="#53C8F7" points="69.6912593 622.762667 100.091259 622.762667 100.091259 592.362667 69.6912593 592.362667"></polygon>
                        <polygon id="Fill-247" fill="#95EBFE" points="34.8444444 622.762667 65.2444444 622.762667 65.2444444 592.362667 34.8444444 592.362667"></polygon>
                        <polygon id="Fill-248" fill="#53C8F7" points="1533.17689 587.915852 1563.57689 587.915852 1563.57689 557.515852 1533.17689 557.515852"></polygon>
                        <polygon id="Fill-249" fill="#95EBFE" points="1498.33244 587.915852 1528.73244 587.915852 1528.73244 557.515852 1498.33244 557.515852"></polygon>
                        <polygon id="Fill-250" fill="#53C8F7" points="1428.64119 587.915852 1459.04119 587.915852 1459.04119 557.515852 1428.64119 557.515852"></polygon>
                        <polygon id="Fill-251" fill="#95EBFE" points="1393.79674 587.915852 1424.19674 587.915852 1424.19674 557.515852 1393.79674 557.515852"></polygon>
                        <polygon id="Fill-252" fill="#18AFF6" points="1358.9523 587.915852 1389.3523 587.915852 1389.3523 557.515852 1358.9523 557.515852"></polygon>
                        <polygon id="Fill-253" fill="#95EBFE" points="1289.26104 587.915852 1319.66104 587.915852 1319.66104 557.515852 1289.26104 557.515852"></polygon>
                        <polygon id="Fill-254" fill="#95EBFE" points="1254.41659 587.915852 1284.81659 587.915852 1284.81659 557.515852 1254.41659 557.515852"></polygon>
                        <polygon id="Fill-255" fill="#95EBFE" points="1219.57215 587.915852 1249.97215 587.915852 1249.97215 557.515852 1219.57215 557.515852"></polygon>
                        <polygon id="Fill-256" fill="#53C8F7" points="1080.192 587.915852 1110.592 587.915852 1110.592 557.515852 1080.192 557.515852"></polygon>
                        <polygon id="Fill-257" fill="#95EBFE" points="1045.34756 587.915852 1075.74756 587.915852 1075.74756 557.515852 1045.34756 557.515852"></polygon>
                        <polygon id="Fill-258" fill="#53C8F7" points="940.811852 587.915852 971.211852 587.915852 971.211852 557.515852 940.811852 557.515852"></polygon>
                        <polygon id="Fill-259" fill="#95EBFE" points="905.967407 587.915852 936.367407 587.915852 936.367407 557.515852 905.967407 557.515852"></polygon>
                        <polygon id="Fill-260" fill="#53C8F7" points="836.278519 587.915852 866.678519 587.915852 866.678519 557.515852 836.278519 557.515852"></polygon>
                        <polygon id="Fill-261" fill="#53C8F7" points="766.587259 587.915852 796.987259 587.915852 796.987259 557.515852 766.587259 557.515852"></polygon>
                        <polygon id="Fill-262" fill="#95EBFE" points="731.742815 587.915852 762.142815 587.915852 762.142815 557.515852 731.742815 557.515852"></polygon>
                        <polygon id="Fill-263" fill="#18AFF6" points="696.89837 587.915852 727.29837 587.915852 727.29837 557.515852 696.89837 557.515852"></polygon>
                        <polygon id="Fill-264" fill="#95EBFE" points="662.053926 587.915852 692.453926 587.915852 692.453926 557.515852 662.053926 557.515852"></polygon>
                        <polygon id="Fill-265" fill="#95EBFE" points="627.209481 587.915852 657.609481 587.915852 657.609481 557.515852 627.209481 557.515852"></polygon>
                        <polygon id="Fill-266" fill="#95EBFE" points="557.518222 587.915852 587.918222 587.915852 587.918222 557.515852 557.518222 557.515852"></polygon>
                        <polygon id="Fill-267" fill="#95EBFE" points="522.673778 587.915852 553.073778 587.915852 553.073778 557.515852 522.673778 557.515852"></polygon>
                        <polygon id="Fill-268" fill="#95EBFE" points="418.140444 587.915852 448.540444 587.915852 448.540444 557.515852 418.140444 557.515852"></polygon>
                        <polygon id="Fill-269" fill="#53C8F7" points="383.29363 587.915852 413.69363 587.915852 413.69363 557.515852 383.29363 557.515852"></polygon>
                        <polygon id="Fill-270" fill="#53C8F7" points="348.449185 587.915852 378.849185 587.915852 378.849185 557.515852 348.449185 557.515852"></polygon>
                        <polygon id="Fill-271" fill="#95EBFE" points="243.915852 587.915852 274.315852 587.915852 274.315852 557.515852 243.915852 557.515852"></polygon>
                        <polygon id="Fill-272" fill="#0198F8" points="209.069037 587.915852 239.469037 587.915852 239.469037 557.515852 209.069037 557.515852"></polygon>
                        <polygon id="Fill-273" fill="#53C8F7" points="139.380148 587.915852 169.780148 587.915852 169.780148 557.515852 139.380148 557.515852"></polygon>
                        <polygon id="Fill-274" fill="#95EBFE" points="104.535704 587.915852 134.935704 587.915852 134.935704 557.515852 104.535704 557.515852"></polygon>
                        <polygon id="Fill-275" fill="#95EBFE" points="0 587.915852 30.4 587.915852 30.4 557.515852 0 557.515852"></polygon>
                        <polygon id="Fill-276" fill="#53C8F7" points="1568.02133 553.071407 1598.42133 553.071407 1598.42133 522.669037 1568.02133 522.669037"></polygon>
                        <polygon id="Fill-277" fill="#95EBFE" points="1498.33244 553.071407 1528.73244 553.071407 1528.73244 522.671407 1498.33244 522.671407"></polygon>
                        <polygon id="Fill-278" fill="#53C8F7" points="1463.48563 553.071407 1493.88563 553.071407 1493.88563 522.671407 1463.48563 522.671407"></polygon>
                        <polygon id="Fill-279" fill="#53C8F7" points="1393.79674 553.071407 1424.19674 553.071407 1424.19674 522.671407 1393.79674 522.671407"></polygon>
                        <polygon id="Fill-280" fill="#95EBFE" points="1358.9523 553.071407 1389.3523 553.071407 1389.3523 522.671407 1358.9523 522.671407"></polygon>
                        <polygon id="Fill-281" fill="#53C8F7" points="1289.26104 553.071407 1319.66104 553.071407 1319.66104 522.671407 1289.26104 522.671407"></polygon>
                        <polygon id="Fill-282" fill="#95EBFE" points="1219.57215 553.071407 1249.97215 553.071407 1249.97215 522.671407 1219.57215 522.671407"></polygon>
                        <polygon id="Fill-283" fill="#95EBFE" points="1184.7277 553.071407 1215.1277 553.071407 1215.1277 522.671407 1184.7277 522.671407"></polygon>
                        <polygon id="Fill-284" fill="#95EBFE" points="1115.03644 553.071407 1145.43644 553.071407 1145.43644 522.671407 1115.03644 522.671407"></polygon>
                        <polygon id="Fill-285" fill="#53C8F7" points="1045.34756 553.071407 1075.74756 553.071407 1075.74756 522.671407 1045.34756 522.671407"></polygon>
                        <polygon id="Fill-286" fill="#95EBFE" points="975.658667 553.071407 1006.05867 553.071407 1006.05867 522.671407 975.658667 522.671407"></polygon>
                        <polygon id="Fill-287" fill="#95EBFE" points="905.967407 553.071407 936.367407 553.071407 936.367407 522.671407 905.967407 522.671407"></polygon>
                        <polygon id="Fill-288" fill="#53C8F7" points="871.122963 553.071407 901.522963 553.071407 901.522963 522.671407 871.122963 522.671407"></polygon>
                        <polygon id="Fill-289" fill="#53C8F7" points="731.742815 553.071407 762.142815 553.071407 762.142815 522.671407 731.742815 522.671407"></polygon>
                        <polygon id="Fill-290" fill="#95EBFE" points="696.89837 553.071407 727.29837 553.071407 727.29837 522.671407 696.89837 522.671407"></polygon>
                        <polygon id="Fill-291" fill="#95EBFE" points="627.209481 553.071407 657.609481 553.071407 657.609481 522.671407 627.209481 522.671407"></polygon>
                        <polygon id="Fill-292" fill="#95EBFE" points="592.365037 553.071407 622.765037 553.071407 622.765037 522.671407 592.365037 522.671407"></polygon>
                        <polygon id="Fill-293" fill="#95EBFE" points="487.829333 553.071407 518.229333 553.071407 518.229333 522.671407 487.829333 522.671407"></polygon>
                        <polygon id="Fill-294" fill="#53C8F7" points="452.984889 553.071407 483.384889 553.071407 483.384889 522.671407 452.984889 522.671407"></polygon>
                        <polygon id="Fill-295" fill="#95EBFE" points="383.29363 553.071407 413.69363 553.071407 413.69363 522.671407 383.29363 522.671407"></polygon>
                        <polygon id="Fill-296" fill="#95EBFE" points="313.604741 553.071407 344.004741 553.071407 344.004741 522.671407 313.604741 522.671407"></polygon>
                        <polygon id="Fill-297" fill="#95EBFE" points="209.069037 553.071407 239.469037 553.071407 239.469037 522.671407 209.069037 522.671407"></polygon>
                        <polygon id="Fill-298" fill="#53C8F7" points="139.380148 553.071407 169.780148 553.071407 169.780148 522.671407 139.380148 522.671407"></polygon>
                        <polygon id="Fill-299" fill="#95EBFE" points="69.6912593 553.071407 100.091259 553.071407 100.091259 522.671407 69.6912593 522.671407"></polygon>
                        <polygon id="Fill-300" fill="#53C8F7" points="34.8444444 553.071407 65.2444444 553.071407 65.2444444 522.671407 34.8444444 522.671407"></polygon>
                        <polygon id="Fill-301" fill="#95EBFE" points="1289.26104 727.29837 1319.66104 727.29837 1319.66104 696.89837 1289.26104 696.89837"></polygon>
                        <polygon id="Fill-302" fill="#53C8F7" points="1254.41659 692.453926 1284.81659 692.453926 1284.81659 662.053926 1254.41659 662.053926"></polygon>
                        <polygon id="Fill-303" fill="#95EBFE" points="1568.02133 483.380148 1598.42133 483.380148 1598.42133 452.980148 1568.02133 452.980148"></polygon>
                        <polygon id="Fill-304" fill="#95EBFE" points="1568.02133 204.624593 1598.42133 204.624593 1598.42133 174.224593 1568.02133 174.224593"></polygon>
                        <polygon id="Fill-305" fill="#53C8F7" points="1533.17689 518.226963 1563.57689 518.226963 1563.57689 487.826963 1533.17689 487.826963"></polygon>
                        <polygon id="Fill-306" fill="#53C8F7" points="1568.02133 378.849185 1598.42133 378.849185 1598.42133 348.449185 1568.02133 348.449185"></polygon>
                        <polygon id="Fill-307" fill="#95EBFE" points="1533.17689 413.69363 1563.57689 413.69363 1563.57689 383.29363 1533.17689 383.29363"></polygon>
                        <polygon id="Fill-308" fill="#53C8F7" points="1498.33244 344.004741 1528.73244 344.004741 1528.73244 313.604741 1498.33244 313.604741"></polygon>
                        <polygon id="Fill-309" fill="#95EBFE" points="1393.79674 239.469037 1424.19674 239.469037 1424.19674 209.069037 1393.79674 209.069037"></polygon>
                        <polygon id="Fill-310" fill="#53C8F7" points="1463.48563 518.226963 1493.88563 518.226963 1493.88563 487.826963 1463.48563 487.826963"></polygon>
                        <polygon id="Fill-311" fill="#95EBFE" points="1358.9523 483.382519 1389.3523 483.382519 1389.3523 452.982519 1358.9523 452.982519"></polygon>
                        <polygon id="Fill-312" fill="#53C8F7" points="1358.9523 448.538074 1389.3523 448.538074 1389.3523 418.140444 1358.9523 418.140444"></polygon>
                        <polygon id="Fill-313" fill="#95EBFE" points="1393.79674 413.69363 1424.19674 413.69363 1424.19674 383.29363 1393.79674 383.29363"></polygon>
                        <polygon id="Fill-314" fill="#53C8F7" points="1324.10785 344.004741 1354.50785 344.004741 1354.50785 313.604741 1324.10785 313.604741"></polygon>
                        <polygon id="Fill-316" fill="#95EBFE" points="1115.03644 309.160296 1145.43644 309.160296 1145.43644 278.760296 1115.03644 278.760296"></polygon>
                        <polygon id="Fill-317" fill="#53C8F7" points="1045.34756 274.315852 1075.74756 274.315852 1075.74756 243.915852 1045.34756 243.915852"></polygon>
                        <polygon id="Fill-318" fill="#95EBFE" points="1219.57215 518.226963 1249.97215 518.226963 1249.97215 487.826963 1219.57215 487.826963"></polygon>
                        <polygon id="Fill-319" fill="#95EBFE" points="1254.41659 483.382519 1284.81659 483.382519 1284.81659 452.982519 1254.41659 452.982519"></polygon>
                        <polygon id="Fill-320" fill="#53C8F7" points="1254.41659 413.69363 1284.81659 413.69363 1284.81659 383.29363 1254.41659 383.29363"></polygon>
                        <polygon id="Fill-321" fill="#95EBFE" points="1289.26104 448.538074 1319.66104 448.538074 1319.66104 418.140444 1289.26104 418.140444"></polygon>
                        <polygon id="Fill-322" fill="#95EBFE" points="1184.7277 448.538074 1215.1277 448.538074 1215.1277 418.140444 1184.7277 418.140444"></polygon>
                        <polygon id="Fill-323" fill="#53C8F7" points="1149.88326 448.538074 1180.28326 448.538074 1180.28326 418.140444 1149.88326 418.140444"></polygon>
                        <polygon id="Fill-324" fill="#95EBFE" points="1149.88326 483.382519 1180.28326 483.382519 1180.28326 452.982519 1149.88326 452.982519"></polygon>
                        <polygon id="Fill-325" fill="#53C8F7" points="1080.192 518.226963 1110.592 518.226963 1110.592 487.826963 1080.192 487.826963"></polygon>
                        <polygon id="Fill-326" fill="#95EBFE" points="1115.03644 518.226963 1145.43644 518.226963 1145.43644 487.826963 1115.03644 487.826963"></polygon>
                        <polygon id="Fill-327" fill="#53C8F7" points="1080.192 413.69363 1110.592 413.69363 1110.592 383.29363 1080.192 383.29363"></polygon>
                        <polygon id="Fill-328" fill="#95EBFE" points="1045.34756 448.538074 1075.74756 448.538074 1075.74756 418.140444 1045.34756 418.140444"></polygon>
                        <polygon id="Fill-329" fill="#53C8F7" points="1045.34756 378.849185 1075.74756 378.849185 1075.74756 348.449185 1045.34756 348.449185"></polygon>
                        <polygon id="Fill-330" fill="#53C8F7" points="1289.26104 169.780148 1319.66104 169.780148 1319.66104 139.380148 1289.26104 139.380148"></polygon>
                        <polygon id="Fill-331" fill="#53C8F7" points="975.658667 518.226963 1006.05867 518.226963 1006.05867 487.826963 975.658667 487.826963"></polygon>
                        <polygon id="Fill-332" fill="#95EBFE" points="940.811852 483.382519 971.211852 483.382519 971.211852 452.982519 940.811852 452.982519"></polygon>
                        <polygon id="Fill-333" fill="#95EBFE" points="1080.192 483.382519 1110.592 483.382519 1110.592 452.982519 1080.192 452.982519"></polygon>
                        <polygon id="Fill-334" fill="#53C8F7" points="0 518.226963 30.4 518.226963 30.4 487.826963 0 487.826963"></polygon>
                        <polygon id="Fill-335" fill="#95EBFE" points="34.8444444 483.382519 65.2444444 483.382519 65.2444444 452.982519 34.8444444 452.982519"></polygon>
                        <polygon id="Fill-336" fill="#53C8F7" points="0 448.538074 30.4 448.538074 30.4 418.140444 0 418.140444"></polygon>
                        <polygon id="Fill-337" fill="#53C8F7" points="871.122963 413.691259 901.522963 413.691259 901.522963 383.291259 871.122963 383.291259"></polygon>
                        <polygon id="Fill-338" fill="#95EBFE" points="871.122963 344.004741 901.522963 344.004741 901.522963 313.604741 871.122963 313.604741"></polygon>
                        <polygon id="Fill-339" fill="#53C8F7" points="905.967407 378.849185 936.367407 378.849185 936.367407 348.449185 905.967407 348.449185"></polygon>
                        <polygon id="Fill-340" fill="#95EBFE" points="905.967407 309.160296 936.367407 309.160296 936.367407 278.760296 905.967407 278.760296"></polygon>
                        <polygon id="Fill-341" fill="#53C8F7" points="871.122963 274.315852 901.522963 274.315852 901.522963 243.915852 871.122963 243.915852"></polygon>
                        <polygon id="Fill-342" fill="#53C8F7" points="801.434074 239.469037 831.834074 239.469037 831.834074 209.069037 801.434074 209.069037"></polygon>
                        <polygon id="Fill-343" fill="#95EBFE" points="696.89837 204.624593 727.29837 204.624593 727.29837 174.224593 696.89837 174.224593"></polygon>
                        <polygon id="Fill-344" fill="#53C8F7" points="696.89837 378.849185 727.29837 378.849185 727.29837 348.449185 696.89837 348.449185"></polygon>
                        <polygon id="Fill-345" fill="#95EBFE" points="696.89837 448.538074 727.29837 448.538074 727.29837 418.140444 696.89837 418.140444"></polygon>
                        <polygon id="Fill-346" fill="#95EBFE" points="731.742815 413.691259 762.142815 413.691259 762.142815 383.291259 731.742815 383.291259"></polygon>
                        <polygon id="Fill-347" fill="#53C8F7" points="662.053926 413.691259 692.453926 413.691259 692.453926 383.291259 662.053926 383.291259"></polygon>
                        <polygon id="Fill-348" fill="#53C8F7" points="627.209481 378.849185 657.609481 378.849185 657.609481 348.449185 627.209481 348.449185"></polygon>
                        <polygon id="Fill-349" fill="#95EBFE" points="627.209481 309.160296 657.609481 309.160296 657.609481 278.760296 627.209481 278.760296"></polygon>
                        <polygon id="Fill-350" fill="#53C8F7" points="592.365037 448.538074 622.765037 448.538074 622.765037 418.140444 592.365037 418.140444"></polygon>
                        <polygon id="Fill-351" fill="#95EBFE" points="557.518222 378.849185 587.918222 378.849185 587.918222 348.449185 557.518222 348.449185"></polygon>
                        <polygon id="Fill-352" fill="#53C8F7" points="766.587259 518.226963 796.987259 518.226963 796.987259 487.826963 766.587259 487.826963"></polygon>
                        <polygon id="Fill-353" fill="#53C8F7" points="801.434074 483.382519 831.834074 483.382519 831.834074 452.982519 801.434074 452.982519"></polygon>
                        <polygon id="Fill-354" fill="#95EBFE" points="801.434074 448.538074 831.834074 448.538074 831.834074 418.140444 801.434074 418.140444"></polygon>
                        <polygon id="Fill-355" fill="#53C8F7" points="871.122963 518.226963 901.522963 518.226963 901.522963 487.826963 871.122963 487.826963"></polygon>
                        <polygon id="Fill-356" fill="#53C8F7" points="452.984889 518.226963 483.384889 518.226963 483.384889 487.826963 452.984889 487.826963"></polygon>
                        <polygon id="Fill-357" fill="#95EBFE" points="209.069037 483.382519 239.469037 483.382519 239.469037 452.982519 209.069037 452.982519"></polygon>
                        <polygon id="Fill-358" fill="#53C8F7" points="139.380148 483.382519 169.780148 483.382519 169.780148 452.982519 139.380148 452.982519"></polygon>
                        <polygon id="Fill-359" fill="#95EBFE" points="174.224593 448.538074 204.624593 448.538074 204.624593 418.140444 174.224593 418.140444"></polygon>
                        <polygon id="Fill-360" fill="#53C8F7" points="69.6912593 518.226963 100.091259 518.226963 100.091259 487.826963 69.6912593 487.826963"></polygon>
                        <polygon id="Fill-361" fill="#95EBFE" points="243.915852 274.315852 274.315852 274.315852 274.315852 243.915852 243.915852 243.915852"></polygon>
                        <polygon id="Fill-362" fill="#95EBFE" points="313.604741 483.382519 344.004741 483.382519 344.004741 452.982519 313.604741 452.982519"></polygon>
                        <polygon id="Fill-363" fill="#95EBFE" points="418.140444 483.382519 448.540444 483.382519 448.540444 452.982519 418.140444 452.982519"></polygon>
                        <polygon id="Fill-364" fill="#95EBFE" points="592.365037 518.226963 622.765037 518.226963 622.765037 487.826963 592.365037 487.826963"></polygon>
                        <polygon id="Fill-365" fill="#95EBFE" points="557.518222 483.382519 587.918222 483.382519 587.918222 452.982519 557.518222 452.982519"></polygon>
                        <polygon id="Fill-366" fill="#53C8F7" points="522.673778 483.382519 553.073778 483.382519 553.073778 452.982519 522.673778 452.982519"></polygon>
                        <polygon id="Fill-367" fill="#53C8F7" points="243.915852 518.226963 274.315852 518.226963 274.315852 487.826963 243.915852 487.826963"></polygon>
                        <polygon id="Fill-368" fill="#95EBFE" points="383.29363 134.935704 413.69363 134.935704 413.69363 104.535704 383.29363 104.535704"></polygon>
                        <polygon id="Fill-369" fill="#53C8F7" points="313.604741 309.160296 344.004741 309.160296 344.004741 278.760296 313.604741 278.760296"></polygon>
                        <polygon id="Fill-370" fill="#53C8F7" points="0 378.849185 30.4 378.849185 30.4 348.449185 0 348.449185"></polygon>
                        <polygon id="Fill-371" fill="#95EBFE" points="34.8444444 344.004741 65.2444444 344.004741 65.2444444 313.604741 34.8444444 313.604741"></polygon>
                        <polygon id="Fill-372" fill="#53C8F7" points="383.29363 413.691259 413.69363 413.691259 413.69363 383.291259 383.29363 383.291259"></polygon>
                        <polygon id="Fill-373" fill="#53C8F7" points="418.140444 378.849185 448.540444 378.849185 448.540444 348.449185 418.140444 348.449185"></polygon>
                        <polygon id="Fill-374" fill="#95EBFE" points="383.29363 344.004741 413.69363 344.004741 413.69363 313.604741 383.29363 313.604741"></polygon>
                        <polygon id="Fill-375" fill="#95EBFE" points="278.760296 413.691259 309.160296 413.691259 309.160296 383.291259 278.760296 383.291259"></polygon>
                        <polygon id="Fill-376" fill="#95EBFE" points="209.069037 378.849185 239.469037 378.849185 239.469037 348.449185 209.069037 348.449185"></polygon>
                        <polygon id="Fill-377" fill="#95EBFE" points="69.6912593 413.691259 100.091259 413.691259 100.091259 383.291259 69.6912593 383.291259"></polygon>
                        <polygon id="Fill-378" fill="#95EBFE" points="139.380148 169.780148 169.780148 169.780148 169.780148 139.380148 139.380148 139.380148"></polygon>
                        <polygon id="Fill-379" fill="#5CD3FE" points="139.380148 239.469037 169.780148 239.469037 169.780148 209.069037 139.380148 209.069037"></polygon>
                        <polygon id="Fill-380" fill="#95EBFE" points="104.535704 309.160296 134.935704 309.160296 134.935704 278.760296 104.535704 278.760296"></polygon>
                        <polygon id="Fill-381" fill="#95EBFE" points="1115.03644 239.469037 1145.43644 239.469037 1145.43644 209.069037 1115.03644 209.069037"></polygon>
                        <polygon id="Fill-382" fill="#53C8F7" points="975.658667 413.69363 1006.05867 413.69363 1006.05867 383.29363 975.658667 383.29363"></polygon>
                        <polygon id="Fill-383" fill="#95EBFE" points="940.811852 134.935704 971.211852 134.935704 971.211852 104.535704 940.811852 104.535704"></polygon>
                    </g>
                </g>
            </g>
        </g>
    </g>
</svg>