<svg id="Layer_1" data-name="Layer 1" xmlns="http://www.w3.org/2000/svg" viewBox="0 0 64 64"><defs><style>.cls-1{fill:#00a966;}.cls-2{fill:#fff;}</style></defs><path class="cls-1" d="M32.18,62.15A3.89,3.89,0,0,1,29.42,61l-4.68-4.68A1,1,0,0,0,24,56H8.83a3.91,3.91,0,0,1-3.91-3.91V5.76A3.91,3.91,0,0,1,8.83,1.85H55.17A3.9,3.9,0,0,1,57.94,3a3.84,3.84,0,0,1,1.14,2.77L59,52.13A3.92,3.92,0,0,1,55.1,56H40.35a1.05,1.05,0,0,0-.74.31L35,61A3.87,3.87,0,0,1,32.18,62.15ZM8.83,4.72a1,1,0,0,0-1,1V52.11a1,1,0,0,0,1,1H24a4,4,0,0,1,2.77,1.15L31.44,59a1.06,1.06,0,0,0,1.49,0l4.65-4.66a4,4,0,0,1,2.77-1.15H55.1a1.05,1.05,0,0,0,1-1l.07-46.36A1.06,1.06,0,0,0,55.91,5a1,1,0,0,0-.74-.3Z"/><path d="M36.65,46.66H26.89a1.25,1.25,0,0,1,0-2.5h9.76a1.25,1.25,0,1,1,0,2.5Z"/><path d="M33.91,50.5h-4.5a1.25,1.25,0,1,1,0-2.5h4.5a1.25,1.25,0,0,1,0,2.5Z"/><path class="cls-2" d="M31.87,16.81c9.61,0,10.35,9.17,10.35,9.17a9.52,9.52,0,0,1-2.83,8,5.21,5.21,0,0,0-.52.53c-2.1,2.5-2,7.12-2,7.12H26.6s.13-4.62-2-7.12A4.42,4.42,0,0,0,24.1,34a9.56,9.56,0,0,1-2.82-8s.73-9.17,10.35-9.17Z"/><path d="M36.9,42.9H26.6a1.25,1.25,0,0,1-1.25-1.28c0-1.16-.21-4.54-1.68-6.29a3,3,0,0,0-.4-.4A10.72,10.72,0,0,1,20,25.86c0-.09,1-10.3,11.6-10.3h.24c10.64,0,11.59,10.21,11.6,10.32a10.72,10.72,0,0,1-3.24,9.05,3,3,0,0,0-.4.4c-1.47,1.75-1.71,5.13-1.68,6.29A1.26,1.26,0,0,1,36.9,42.9Zm-9.09-2.5h7.88c.11-1.7.56-4.69,2.22-6.67a6.75,6.75,0,0,1,.65-.66,8.34,8.34,0,0,0,2.42-7c0-.34-.8-8-9.11-8h-.24c-8.32,0-9.08,7.69-9.11,8a8.35,8.35,0,0,0,2.42,7,6.75,6.75,0,0,1,.65.66C27.25,35.71,27.69,38.7,27.81,40.4Z"/><path d="M31.63,13a1.25,1.25,0,0,1-1.25-1.25v-4a1.25,1.25,0,1,1,2.49,0v4A1.24,1.24,0,0,1,31.63,13Z"/><path d="M15.62,28.07h-4a1.25,1.25,0,0,1,0-2.5h4a1.25,1.25,0,1,1,0,2.5Z"/><path d="M19.8,17.76a1.22,1.22,0,0,1-.83-.31l-2.66-2.37a1.24,1.24,0,0,1-.11-1.76A1.26,1.26,0,0,1,18,13.21l2.66,2.37a1.25,1.25,0,0,1-.83,2.18Z"/><path d="M51.66,28.07h-4a1.25,1.25,0,0,1,0-2.5h4a1.25,1.25,0,0,1,0,2.5Z"/><path d="M43.49,17.76a1.25,1.25,0,0,1-.83-2.18l2.67-2.37A1.25,1.25,0,0,1,47,15.08l-2.67,2.37A1.22,1.22,0,0,1,43.49,17.76Z"/><path class="cls-1" d="M32.18,62.15A3.89,3.89,0,0,1,29.42,61l-4.68-4.68A1,1,0,0,0,24,56H8.83a3.91,3.91,0,0,1-3.91-3.91V5.76A3.91,3.91,0,0,1,8.83,1.85H55.17A3.9,3.9,0,0,1,57.94,3a3.84,3.84,0,0,1,1.14,2.77L59,52.13A3.92,3.92,0,0,1,55.1,56H40.35a1.05,1.05,0,0,0-.74.31L35,61A3.87,3.87,0,0,1,32.18,62.15ZM8.83,4.72a1,1,0,0,0-1,1V52.11a1,1,0,0,0,1,1H24a4,4,0,0,1,2.77,1.15L31.44,59a1.06,1.06,0,0,0,1.49,0l4.65-4.66a4,4,0,0,1,2.77-1.15H55.1a1.05,1.05,0,0,0,1-1l.07-46.36A1.06,1.06,0,0,0,55.91,5a1,1,0,0,0-.74-.3Z"/></svg>