<svg id="Layer_1" data-name="Layer 1" xmlns="http://www.w3.org/2000/svg" viewBox="0 0 24 24"><defs><style>.cls-1{fill:#0a6;}.cls-2{fill:#00a966;}.cls-3{fill:#fff;}</style></defs><path class="cls-1" d="M21.72,2.06l0,17.57a.94.94,0,0,1-.94.94H15.16a1,1,0,0,0-.66.27l-1.76,1.77a1,1,0,0,1-1.34,0L9.63,20.83A.94.94,0,0,0,9,20.56H3.22a.94.94,0,0,1-.94-.94V2.06a.94.94,0,0,1,.94-.94H20.78A.94.94,0,0,1,21.72,2.06Z"/><path class="cls-2" d="M12.07,23.42A1.48,1.48,0,0,1,11,23L9.25,21.22A.39.39,0,0,0,9,21.1H3.22a1.48,1.48,0,0,1-1.48-1.48V2.06A1.49,1.49,0,0,1,3.22.57H20.78a1.49,1.49,0,0,1,1.48,1.49l0,17.57a1.5,1.5,0,0,1-1.49,1.48H15.16a.39.39,0,0,0-.28.12L13.12,23A1.48,1.48,0,0,1,12.07,23.42ZM3.22,1.66a.4.4,0,0,0-.4.4V19.62a.4.4,0,0,0,.4.4H9a1.48,1.48,0,0,1,1,.43l1.77,1.77a.39.39,0,0,0,.56,0l1.77-1.76a1.47,1.47,0,0,1,1-.44h5.59a.4.4,0,0,0,.4-.39l0-17.57h0a.4.4,0,0,0-.12-.28.39.39,0,0,0-.28-.12Z"/><path class="cls-3" d="M10.3,15.5a1.13,1.13,0,0,1-.78-.32L6.3,12a1.1,1.1,0,0,1,0-1.56,1.09,1.09,0,0,1,1.55,0l2.45,2.45,6.4-6.4A1.1,1.1,0,1,1,18.25,8l-7.17,7.18A1.13,1.13,0,0,1,10.3,15.5Z"/></svg>