<svg width="40" height="40" viewBox="0 0 40 40" fill="none" xmlns="http://www.w3.org/2000/svg">
<rect opacity="0.2" x="10" y="3.5" width="27" height="27" fill="#1276CB"/>
<path d="M26.4 35.0625C26.6 35.0625 26.8 35.1641 26.95 35.3164C27.1 35.4687 27.2 35.6719 27.2 35.875V36.6875C27.2 36.9414 27.1 37.1445 26.95 37.2969C26.8 37.4492 26.6 37.5 26.4 37.5H5.6C5.35 37.5 5.15 37.4492 5 37.2969C4.85 37.1445 4.8 36.9414 4.8 36.6875V35.875C4.8 35.6719 4.85 35.4687 5 35.3164C5.15 35.1641 5.35 35.0625 5.6 35.0625H26.4ZM29.6 18C30.25 18 30.8 18.2539 31.3 18.7109C31.75 19.2187 32 19.7773 32 20.4375C32 21.1484 31.75 21.707 31.3 22.1641C30.8 22.6719 30.25 22.875 29.6 22.875L29.2 22.8242L25.6 32.625H6.4L2.8 22.8242L2.4 22.875C1.7 22.875 1.15 22.6719 0.7 22.1641C0.2 21.707 0 21.1484 0 20.4375C0 19.7773 0.2 19.2187 0.7 18.7109C1.15 18.2539 1.7 18 2.4 18C3.05 18 3.6 18.2539 4.1 18.7109C4.55 19.2187 4.8 19.7773 4.8 20.4375C4.8 20.793 4.7 21.1484 4.6 21.4531L8.2 23.6367C8.45 23.8398 8.7 23.8906 9 23.8906C9.3 23.8906 9.55 23.8398 9.8 23.6875C10.05 23.5352 10.25 23.332 10.4 23.0781L14.5 15.8164C13.9 15.3086 13.6 14.6992 13.6 13.9375C13.6 13.2773 13.8 12.7188 14.3 12.2109C14.75 11.7539 15.3 11.5 16 11.5C16.65 11.5 17.2 11.7539 17.7 12.2109C18.15 12.7188 18.4 13.2773 18.4 13.9375C18.4 14.6992 18.1 15.3086 17.5 15.8164L21.6 23.0781C21.7 23.332 21.9 23.5352 22.15 23.6875C22.4 23.8398 22.65 23.8906 22.95 23.8906C23.25 23.8906 23.5 23.8398 23.8 23.6367L27.4 21.4531C27.25 21.1484 27.2 20.793 27.2 20.4375C27.2 19.7773 27.4 19.2187 27.9 18.7109C28.35 18.2539 28.9 18 29.6 18ZM23.95 30.1875L25.75 25.3125L25.05 25.7187C24.4 26.125 23.7 26.3281 23 26.3281C22.25 26.3281 21.55 26.1758 20.95 25.7695C20.35 25.4141 19.85 24.9062 19.5 24.2461L16 18.0508L12.5 24.2461C12.1 24.9062 11.6 25.4141 11 25.7695C10.4 26.1758 9.7 26.3281 9 26.3281C8.25 26.3281 7.55 26.125 6.95 25.7187L6.25 25.3125L8.05 30.1875H23.95Z" fill="#1276CB"/>
</svg>
