<svg width="28" height="35" viewBox="0 0 28 35" fill="none" xmlns="http://www.w3.org/2000/svg">
<path d="M3.60362 3.52632C3.60362 3.52632 9.88835 1 14 1C18.1117 1 24.3965 3.52632 24.3965 3.52632C24.3965 3.52632 27.2654 11.9801 26.0599 17.2632C24.8952 22.3674 19.0851 28.2015 16.9064 30.2455C16.3787 30.7405 15.6809 31 14.9574 31H13.0427C12.3192 31 11.6214 30.7405 11.0937 30.2455C8.91498 28.2015 3.10493 22.3674 1.9402 17.2632C0.734669 11.9801 3.60362 3.52632 3.60362 3.52632Z" fill="white" fill-opacity="0.7" stroke="#0B62AB" stroke-width="2"/>
<path opacity="0.2" fill-rule="evenodd" clip-rule="evenodd" d="M14 35H15.4149C16.1819 35 16.9193 34.7073 17.4563 34.1597C19.7206 31.8504 25.8251 25.1919 27.0463 19.3684C28.307 13.3567 25.3068 3.73684 25.3068 3.73684C25.3068 3.73684 18.7347 2 14.4349 2C14.2923 2 14.1472 2.00191 14 2.0056V35Z" fill="#1276CB"/>
<path fill-rule="evenodd" clip-rule="evenodd" d="M22 10.6396L11.6266 22L7 16.9333L8.81595 15.2937L11.6266 18.3717L20.184 9L22 10.6396Z" fill="#1276CB"/>
</svg>
