<svg id="Layer_1" data-name="Layer 1" xmlns="http://www.w3.org/2000/svg" viewBox="0 0 348.26 368.36"><defs><style>.cls-1,.cls-3{fill:none;}.cls-1{stroke:#00a966;stroke-linecap:round;stroke-linejoin:round;stroke-width:13.85px;}.cls-2{fill:#fff;}.cls-3{stroke:#000;stroke-miterlimit:10;stroke-width:11px;}</style></defs><path class="cls-1" d="M50.24,57.46V281.29a12,12,0,0,0,12,12h73.26a12,12,0,0,1,8.47,3.51l22.59,22.59a12,12,0,0,0,16.95,0L206,296.89a12,12,0,0,1,8.47-3.52h71.22a12,12,0,0,0,12-12L298,57.48a12,12,0,0,0-12-12H62.23A12,12,0,0,0,50.24,57.46Z"/><path class="cls-2" d="M174.13,91.15a83.57,83.57,0,1,0,83.57,83.57A83.57,83.57,0,0,0,174.13,91.15Zm0,118.45A34.88,34.88,0,1,1,209,174.72,34.88,34.88,0,0,1,174.13,209.6Z"/><circle class="cls-3" cx="174.13" cy="174.72" r="84.92"/><circle class="cls-3" cx="174.13" cy="174.72" r="34.36"/><line class="cls-3" x1="113.44" y1="115.33" x2="149.26" y2="151.15"/><line class="cls-3" x1="199.03" y1="197.7" x2="234.85" y2="233.52"/><line class="cls-3" x1="234.82" y1="115.33" x2="199.06" y2="151.09"/><line class="cls-3" x1="155.89" y1="197.7" x2="118.04" y2="237.55"/></svg>